<?xml version="1.0" standalone="no"?><!DOCTYPE svg PUBLIC "-//W3C//DTD SVG 1.1//EN" "http://www.w3.org/Graphics/SVG/1.1/DTD/svg11.dtd"><svg width="200" height="200" viewBox="0 0 200 200" version="1.1" xmlns="http://www.w3.org/2000/svg" xmlns:xlink="http://www.w3.org/1999/xlink"><defs><style type="text/css"><![CDATA[
@font-face { font-family: ifont; src: url(http://at.alicdn.com/t/font_1442373896_4754455.eot?#iefix) format(embedded-opentype), url(http://at.alicdn.com/t/font_1442373896_4754455.woff) format(woff), url(http://at.alicdn.com/t/font_1442373896_4754455.ttf) format(truetype), url(http://at.alicdn.com/t/font_1442373896_4754455.svg#ifont) format(svg); }

]]></style></defs><g class="transform-group"><g transform="scale(0.1953125, 0.1953125)"><path d="M968.498523 664.075854l-28.112018 0c0.1129-1.196736 0.338699-2.303153 0.338699-3.52247L940.725204 599.948842c0-77.404013-62.930276-140.356869-140.334289-140.356869-77.358853 0-140.311709 62.952856-140.311709 140.356869l0 60.604542c0 1.241896 0.248379 2.348313 0.361279 3.52247l-16.573671 0c-25.808864 0-46.785623 20.999338-46.785623 46.785623l0 223.157486c0 25.854024 20.999338 46.830783 46.785623 46.830783l324.654289 0c25.786284 0 46.785623-20.999338 46.785623-46.830783l0-223.157486C1015.284146 685.075193 994.262227 664.075854 968.498523 664.075854L968.498523 664.075854zM731.702756 660.553385 731.702756 599.948842c0-37.934289 30.79903-68.755899 68.665579-68.755899 37.889129 0 68.710739 30.82161 68.710739 68.755899l0 60.604542c0 1.241896 0.270959 2.348313 0.383859 3.52247L731.364057 664.075854C731.454377 662.879118 731.702756 661.795281 731.702756 660.553385L731.702756 660.553385zM979.449791 934.018964c0 6.096582-4.922426 10.973848-10.951268 10.973848L643.844234 944.992811c-6.051422 0-10.973848-4.899846-10.973848-10.973848l0-223.157486c0-6.051422 4.945006-10.973848 10.973848-10.973848l324.654289 0c6.051422 0 10.951268 4.945006 10.951268 10.973848L979.449791 934.018964 979.449791 934.018964zM806.148798 810.574465c-14.789857 0-26.824961 11.989945-26.824961 26.824961l0 51.640309 53.627343 0 0-51.640309C832.97376 822.58699 820.961235 810.574465 806.148798 810.574465L806.148798 810.574465zM655.901918 605.300287c-17.02527-6.006262-34.29892-11.199647-51.820948-15.557574-2.551533-1.332216-5.441764-2.122514-8.377155-2.122514l-9.190033 0c-2.867652 0-5.735303 0.699978-8.309416 2.077354-6.186902 3.34183-13.186681 6.164322-20.231621 8.919074-5.441764 2.167674-11.199647 3.883749-17.00269 5.644983-2.641852 0.699978-5.306284 1.535436-7.993297 2.303153-5.035325 1.377376-10.25129 2.461213-15.467255 3.47731-4.606307 0.925777-9.302933 1.670915-14.022139 2.348313-4.041808 0.564498-8.015877 1.196736-12.125424 1.580595-9.280353 0.970937-18.741345 1.580595-28.224917 1.580595-3.54505 0-7.044939-0.451599-10.567409-0.609658-38.837486-1.377376-76.523396-10.13839-104.590254-25.221786-2.506373-1.377376-5.419184-2.077354-8.309416-2.077354l-6.68366 0c-1.354796 0-2.732172 0.13548-4.086968 0.451599-103.958015 24.612128-200.577552 78.194311-279.539581 154.762867-3.36441 3.29667-5.283705 7.948137-5.283705 12.667343l0 62.930276c0 9.754531 7.857817 161.356207 17.612348 161.356207l390.881235 0 105.403131 0 26.328203 0c-20.52516-42.111577-32.063506-89.393958-32.063506-139.408512C552.237442 747.305491 592.203925 663.511356 655.901918 605.300287L655.901918 605.300287zM265.111003 308.758015c0 18.944564 14.518897 34.29892 32.379625 34.29892l0.587078 0c6.70624 90.500375 77.968512 181.02333 165.059316 181.02333 4.967585 0 9.844851-0.361279 14.722117-0.970937 1.716075-0.180639 3.45473-0.519338 5.215965-0.790298 3.003131-0.474179 5.983682-1.061257 8.941654-1.716075 2.167674-0.519338 4.245028-1.151577 6.435281-1.716075 2.325733-0.654818 4.628886-1.445116 6.93204-2.212834 2.483793-0.880617 4.967585-1.716075 7.383638-2.777332 1.422536-0.519338 2.822492-1.241896 4.199868-1.851555 61.010981-27.4572 105.96763-98.109813 111.251334-168.965645l0.474179 0c17.928467 0 32.424785-15.354355 32.424785-34.29892 0-13.976979-7.902977-26.034664-19.125204-31.386108 6.457861-20.32194 10.07065-42.021257 10.07065-64.75925 0-91.742271-58.211069-168.965645-137.624697-192.719735-1.309636-0.361279-2.551533-0.722558-3.838589-1.083837-6.074002-1.625755-12.238324-2.912811-18.470386-4.019228-1.919294-0.316119-3.770849-0.654818-5.712723-0.903197-7.654598-0.970937-15.399515-1.670915-23.279912-1.670915-104.387034 0-188.994046 89.755237-188.994046 200.396913 0 22.737993 3.590209 44.43731 10.16097 64.75925C273.01398 282.723352 265.111003 294.758456 265.111003 308.758015L265.111003 308.758015zM265.111003 308.758015" fill="#272636"></path></g></g></svg>