<?xml version="1.0" encoding="utf-8"?>
<!-- Generator: Adobe Illustrator 19.0.0, SVG Export Plug-In . SVG Version: 6.00 Build 0)  -->
<svg version="1.1" id="图层_1" xmlns="http://www.w3.org/2000/svg" xmlns:xlink="http://www.w3.org/1999/xlink" x="0px" y="0px"
	 viewBox="0 0 36 36" style="enable-background:new 0 0 36 36;" xml:space="preserve">
<style type="text/css">
	.st0{fill:#9F9E9F;}
</style>
<g id="XMLID_1620_">
	<path id="XMLID_2_" class="st0" d="M18.2,33.3c-2,0-11.1-14.3-11.1-19.8c0-6.1,5-11.1,11.1-11.1s11.1,5,11.1,11.1
		C29.2,19.3,20.3,33.3,18.2,33.3z M18.2,3.4c-5.5,0-10.1,4.5-10.1,10.1c0,5.6,8.9,18.4,10.1,18.8c1.2-0.3,10-13.1,10-18.8
		C28.2,7.9,23.7,3.4,18.2,3.4z"/>
</g>
<g id="XMLID_1626_">
	<path id="XMLID_5_" class="st0" d="M18.2,20.3c-3.8,0-6.8-3.1-6.8-6.8c0-3.8,3.1-6.8,6.8-6.8c3.8,0,6.8,3.1,6.8,6.8
		C25,17.2,21.9,20.3,18.2,20.3z M18.2,7.6c-3.2,0-5.8,2.6-5.8,5.8c0,3.2,2.6,5.8,5.8,5.8c3.2,0,5.8-2.6,5.8-5.8
		C24,10.2,21.4,7.6,18.2,7.6z"/>
</g>
</svg>
