<?xml version="1.0" encoding="utf-8"?>
<!-- Generator: Adobe Illustrator 19.0.0, SVG Export Plug-In . SVG Version: 6.00 Build 0)  -->
<svg version="1.1" id="图层_1" xmlns="http://www.w3.org/2000/svg" xmlns:xlink="http://www.w3.org/1999/xlink" x="0px" y="0px"
	 viewBox="0 0 320 182" style="enable-background:new 0 0 320 182;" xml:space="preserve">
<style type="text/css">
	.st0{fill:#F2BF1E;}
	.st1{fill:#333333;}
	.st2{fill:#6E6E6D;}
</style>
<g id="XMLID_2686_">
	<g id="XMLID_2730_">
		<g id="XMLID_2731_">
			<g id="XMLID_2732_">
				<path class="st0" d="M73,65.6c1.1,0.6,1.3,23.5,0.3,24c-6.3,2.7-11.6,5-24.7,4.9C24.1,94.5,6.8,78.7,6.8,53.4
					c0-24,16.6-40.9,41.5-40.9c17.1,0,18.9,1.4,24.9,4.4c1.2,0.6,1.1,23.6,0,24c0,0-8.8-9.2-21.9-9.5C36.5,31.3,28.2,39.8,28,52.7
					c-0.3,16,11.7,21,20.9,21.8C63.9,75.8,73,65.6,73,65.6z"/>
			</g>
		</g>
	</g>
	<g id="XMLID_2726_">
		<g id="XMLID_2727_">
			<g id="XMLID_2728_">
				<path class="st0" d="M221,60.2c0,0,10.3-14.2,15.1-21.2c0.2-0.4,0.5-1,1.5-1c6.2,0,13.2,0,18.7,0c1.3,0,0.8,1.4,0.3,2
					c-5.3,6.5-16.6,21.5-16.6,21.5s12.3,20.1,18.9,30.1c0.5,1,0.2,1.4-1,1.4c-8.8,0-12.8,0-19.7,0c-0.8,0-2-0.2-2.8-1.4l-10.5-13.7
					l-4.1,4.8v9c0,1,0.2,1.3-0.4,1.3c-5.6,0-10.7,0-16.7,0c-0.8,0-0.9-0.1-0.9-1.6c0-19.9,0-52.1,0-72c0-1.3-0.2-6.3,0.6-6.3
					c9.3,0,3.8,0,17.2,0c0.8,0,0.3,5,0.3,6.3V60.2z"/>
			</g>
		</g>
	</g>
	<g id="XMLID_2721_">
		<g id="XMLID_2722_">
			<g id="XMLID_2723_">
				<path class="st0" d="M295,85.1c-1,5.6-8.4,8.6-15,8.6c-14.5,0-25.4-10.4-25.4-28.2c0-16.4,11.2-27.9,25-27.9
					c7.4,0,13.4,4.3,14.4,8.6v-6.6c0-1,0.8-1.5,1.5-1.5c6.2,0,10.5,0,16.7,0c0.5,0,0.8,0.6,0.8,1.2c0,20.8,0,32.3,0,52.2
					c0,1.2-0.4,1.6-0.9,1.6c-2.9,0-13.6,0-15.4,0c-0.8,0-1.7-0.5-1.7-1.1V85.1z M272.7,66c0,6.6,5,11.2,11,11.2
					c6,0,10.8-4.5,10.8-11.4c0-7.2-4.9-11.4-10.8-11.4C277,54.4,272.7,59.3,272.7,66z"/>
			</g>
		</g>
	</g>
	<g id="XMLID_2719_">
		<g id="XMLID_2720_">
			<path class="st0" d="M119.7,68c-0.1,0-0.3,0.6-0.5,0.9c-1.6,3.6-4.8,6-8.6,6.3c-0.4,0-0.5,0.1-0.8,0.1C103.7,75.3,99,70,99,63.4
				c0,0,0,0,0,0c0,0-0.2,0-0.2-0.1c0-5,2.5-8.9,6.2-10.6c1.4-0.7,2.9-1.1,4.6-1.1c1.4,0,2.6,0.3,3.8,0.8c2.9,1.1,5.2,3.5,6.3,6.7
				c0.1,0.3,0.2,0,0.3,1h18.2c-1.5-15-13-25.7-28.7-25.7c-17.2,0-28.9,12.5-28.9,29.1c0,17.3,12.2,29.1,28.9,29.1
				c15.4,0,26.7-9.4,28.6-24.4H119.7z"/>
		</g>
	</g>
	<g id="XMLID_2717_">
		<g id="XMLID_2718_">
			<path class="st0" d="M165.7,34.5c-15.9,0-27.1,10.5-28.7,25.5h18.3c0.9-3,2.9-5.5,5.4-6.8c1.5-0.8,3.2-1.3,5-1.3
				c1,0,2,0.1,2.9,0.4c3.2,0.9,5.8,3.1,7.1,6.5c0.6,1.5,1,3.1,1,4.9c0,2.5-0.7,4.8-1.9,6.7c-1.7,2.9-4.6,4.7-7.9,5.1
				c-0.4,0-0.8,0.1-1.2,0.1c-4.5,0-8.4-2.6-10.1-7.2c0,0,0,0,0-0.1c0-0.1-0.1-0.3-0.1-0.3H137c1.9,15,13.4,24.7,28.7,24.7
				c16.9,0,28.9-11.8,28.9-29C194.6,46.4,182.6,34.5,165.7,34.5z"/>
		</g>
	</g>
	<g id="XMLID_2688_">
		<g id="XMLID_2709_">
			<g id="XMLID_2710_">
				<path class="st1" d="M21,114v1.8c0,11.1-0.8,21.3-1.7,29.6l-2.6-0.3c0.9-8.3,1.4-18.3,1.4-29.3V114H21z M27,103v6h7v3h-7v34h-3
					v-34h-7v-3h7v-6H27z M33,114v32h-3v-32H33z M35,104h25v3h-3v33.7c-1,2.7-1.5,4.4-3.1,5.7c0,0,0.1-3.9,0.1-7.8V107H35V104z
					 M41,137c-2.5,0-5-2.2-5-4.7v-15.5c0-2.6,2.5-4.8,5-4.8h5.2c2.5,0,3.8,2.1,3.8,4.8v15.5c0,2.5-1.3,4.7-3.8,4.7H41z M46.2,135
					c1.1,0,1.8-1.5,1.8-2.7v-15.5c0-1.3-0.7-2.8-1.8-2.8H41c-1.2,0-2,1.5-2,2.8v15.5c0,1.3,0.8,2.7,2,2.7H46.2z"/>
			</g>
		</g>
		<g id="XMLID_2704_">
			<g id="XMLID_2705_">
				<path class="st1" d="M107,103v6h15v2h-15v9h16v2h-16v24h-3v-24H94v16.1c0,3-1.8,5.9-4.9,5.9h-3.4c-3.1,0-5.7-2.8-5.7-5.9v-27.4
					c0-3.2,2.5-5.7,5.7-5.7h3.4c3,0,4.9,2.7,4.9,5.7v9.3h10v-17H107z M89.1,141c1.7,0,2.9-1.1,2.9-2.9v-27.4c0-1.7-1.1-2.7-2.9-2.7
					h-3.4c-1.8,0-3.7,0.9-3.7,2.7v27.4c0,1.8,1.9,2.9,3.7,2.9H89.1z M112.7,125.1l10.1,18.3l-2.1,1.1l-10-18.3L112.7,125.1z"/>
			</g>
		</g>
		<g id="XMLID_2697_">
			<g id="XMLID_2698_">
				<path class="st1" d="M142.8,146.2l1.1-38.1c0.1-2.4,2-4.1,4.4-4.1h6.8c2.6,0,4.9,1.6,4.9,4.2v32.4c-1,4.5-3,6.4-3,6.4
					s0-4.7,0-6.4V133h-11.5l-0.4,13.3L142.8,146.2z M145.6,131H157v-12h-11.1L145.6,131z M146,117h11v-8.8c0-1.3-0.6-2.2-1.9-2.2
					h-6.8c-1.2,0-2,0.8-2.1,2L146,117z M163,146v-37.7c0-2.5,2.3-4.3,4.9-4.3h12c2.6,0,4.1,1.7,4.1,4.3v5.8c0,2.6-1.4,4.9-4.1,4.9
					H173v-3h6.9c1.3,0,2.1-0.6,2.1-1.9v-5.8c0-1.3-0.8-2.3-2.1-2.3h-12c-1.3,0-2.9,1-2.9,2.3V122h19.5c-1.9,5-4.2,10-6.8,14.1
					l7.8,8.4l-1.7,1.5l-7.4-8c-2.2,3-4.6,5.6-7.4,8l-1.5-1.8c2.8-2.4,4.9-5,7-7.8l-9.5-9.9V146H163z M166.8,124l9.4,10.1
					c1.9-3,3.6-6.1,5-10.1H166.8z"/>
			</g>
		</g>
		<g id="XMLID_2691_">
			<g id="XMLID_2692_">
				<path class="st1" d="M225,122v4h19v2h-23.4c-2.4,3-5.6,5.4-8.6,7.4v4.6c0,1.7,2.2,3,3.9,3h4.1v3h-4.1c-3,0-5.9-3-5.9-6v-3.1
					c-2,1.4-4.5,2.6-7.3,3.8l-0.9-2.3c6.5-2.8,11.4-5.4,15.5-10.4H203v-2h19v-4H225z M202,106h12v-3h3v20h-3v-5.5l-11,3.6l-0.8-2.3
					L214,115v-6h-12V106z M234,103v4h11v2h-11v10h10v2h-23v-2h10v-10h-11v-2h11v-4H234z M242.5,131.9l-5.7,5.6l8.3,6.3l-1.4,1.8
					l-16.9-12.9l1.4-1.8l6.8,5.2l5.9-5.9L242.5,131.9z"/>
			</g>
		</g>
		<g id="XMLID_2689_">
			<g id="XMLID_2690_">
				<path class="st1" d="M300,140.7v-30.6c0-1.8-0.7-3.1-2.4-3.1h-27c-1.7,0-3.6,1.3-3.6,3.1V146h-2v-35.9c0-3,2.5-6.1,5.6-6.1h27
					c3,0,5.4,3,5.4,6.1v30.6c0,5.1-2.9,7.3-2.9,7.3S300,142.5,300,140.7z M271.9,112.5l5.7,10.3c1.3-3.4,2.4-7,3.1-10.8l2.4,0.5
					c-0.9,4.6-2.3,9-4,13l4.7,8.4l-2.1,1.1l-3.8-6.8c-1.9,3.8-4.1,7.4-6.7,10.8l-1.9-1.4c2.8-3.7,5.2-7.7,7.2-12l-6.6-12
					L271.9,112.5z M286.8,112l5.3,11.2c1.4-3.5,2.5-7.2,3.2-11.1l2.4,0.5c-0.9,4.8-2.4,9.3-4.2,13.5l5.6,11.7l-2.1,1.1l-4.8-10
					c-1.8,3.6-4,7-6.4,10.3l-1.9-1.4c2.7-3.6,5.1-7.5,7-11.6l-6.2-13L286.8,112z"/>
			</g>
		</g>
	</g>
	<g id="XMLID_2737_">
		<path id="XMLID_2_" class="st2" d="M16.4,157.4h2.3l3.9,9.9c0,0.1,0.1,0.2,0.1,0.3c0,0.1,0.1,0.4,0.2,0.8c0.1-0.3,0.2-0.7,0.3-1
			c0,0,0,0,0,0l4.2-9.9h2.7l4.2,9.8c0,0.1,0.1,0.4,0.3,1l0,0.1c0.1-0.3,0.1-0.6,0.1-0.8c0-0.2,0.1-0.3,0.1-0.3l4.3-9.8h2.1
			l-5.5,12.2h-2.4l-4.4-10.2c-0.1-0.2-0.1-0.4-0.2-0.5c0-0.1-0.1-0.3-0.1-0.4c-0.1,0.3-0.1,0.5-0.1,0.7c0,0.1-0.1,0.2-0.1,0.3
			L24,169.6h-2.4L16.4,157.4z"/>
		<path id="XMLID_4_" class="st2" d="M41.9,157.4h2.3l3.9,9.9c0,0.1,0.1,0.2,0.1,0.3c0,0.1,0.1,0.4,0.2,0.8c0.1-0.3,0.2-0.7,0.3-1
			c0,0,0,0,0,0l4.2-9.9h2.7l4.2,9.8c0,0.1,0.1,0.4,0.3,1l0,0.1c0.1-0.3,0.1-0.6,0.1-0.8c0-0.2,0.1-0.3,0.1-0.3l4.3-9.8h2.1
			l-5.5,12.2h-2.4l-4.4-10.2c-0.1-0.2-0.1-0.4-0.2-0.5c0-0.1-0.1-0.3-0.1-0.4c-0.1,0.3-0.1,0.5-0.1,0.7c0,0.1-0.1,0.2-0.1,0.3
			l-4.3,10.2h-2.4L41.9,157.4z"/>
		<path id="XMLID_6_" class="st2" d="M67.4,157.4h2.3l3.9,9.9c0,0.1,0.1,0.2,0.1,0.3c0,0.1,0.1,0.4,0.2,0.8c0.1-0.3,0.2-0.7,0.3-1
			c0,0,0,0,0,0l4.2-9.9h2.7l4.2,9.8c0,0.1,0.1,0.4,0.3,1l0,0.1c0.1-0.3,0.1-0.6,0.1-0.8c0-0.2,0.1-0.3,0.1-0.3l4.3-9.8h2.1
			l-5.5,12.2h-2.4l-4.4-10.2c-0.1-0.2-0.1-0.4-0.2-0.5c0-0.1-0.1-0.3-0.1-0.4c-0.1,0.3-0.1,0.5-0.1,0.7c0,0.1-0.1,0.2-0.1,0.3
			l-4.3,10.2h-2.4L67.4,157.4z"/>
		<path id="XMLID_8_" class="st2" d="M93.6,167.4h2.7v2.1h-2.7V167.4z"/>
		<path id="XMLID_10_" class="st2" d="M113.4,157.8l-0.2,1.5c-0.5-0.2-1.1-0.4-1.7-0.5c-0.6-0.1-1.3-0.2-2-0.2
			c-1.8,0-3.2,0.4-4.3,1.3c-1.1,0.9-1.7,2-1.7,3.5c0,1.5,0.5,2.7,1.6,3.5c1.1,0.9,2.5,1.3,4.3,1.3c0.6,0,1.3-0.1,1.9-0.2
			c0.6-0.1,1.3-0.3,2-0.5l0.2,1.5c-0.7,0.2-1.3,0.3-2.1,0.4c-0.7,0.1-1.4,0.1-2.2,0.1c-2.4,0-4.3-0.6-5.8-1.7
			c-1.5-1.1-2.2-2.6-2.2-4.5c0-1.8,0.8-3.3,2.3-4.4c1.5-1.1,3.6-1.7,6-1.7c0.7,0,1.4,0,2,0.1C112.2,157.5,112.8,157.6,113.4,157.8z"
			/>
		<path id="XMLID_12_" class="st2" d="M123.6,157.2c2.3,0,4.2,0.6,5.6,1.7c1.4,1.1,2.1,2.7,2.1,4.6c0,1.9-0.7,3.5-2.1,4.6
			c-1.4,1.2-3.3,1.7-5.6,1.7c-2.3,0-4.2-0.6-5.6-1.7c-1.4-1.2-2.1-2.7-2.1-4.6c0-1.9,0.7-3.5,2.1-4.6
			C119.4,157.7,121.3,157.2,123.6,157.2z M123.6,158.5c-1.6,0-2.9,0.5-3.9,1.4c-1,0.9-1.5,2.1-1.5,3.6c0,1.5,0.5,2.7,1.5,3.6
			s2.3,1.4,3.9,1.4c1.7,0,3-0.5,4-1.4c1-0.9,1.5-2.1,1.5-3.7c0-1.5-0.5-2.8-1.5-3.7C126.6,158.9,125.3,158.5,123.6,158.5z"/>
		<path id="XMLID_15_" class="st2" d="M142.2,157.2c2.3,0,4.2,0.6,5.6,1.7c1.4,1.1,2.1,2.7,2.1,4.6c0,1.9-0.7,3.5-2.1,4.6
			c-1.4,1.2-3.3,1.7-5.6,1.7c-2.3,0-4.2-0.6-5.6-1.7c-1.4-1.2-2.1-2.7-2.1-4.6c0-1.9,0.7-3.5,2.1-4.6
			C138,157.7,139.8,157.2,142.2,157.2z M142.2,158.5c-1.6,0-2.9,0.5-3.9,1.4s-1.5,2.1-1.5,3.6c0,1.5,0.5,2.7,1.5,3.6
			s2.3,1.4,3.9,1.4c1.7,0,3-0.5,4-1.4c1-0.9,1.5-2.1,1.5-3.7c0-1.5-0.5-2.8-1.5-3.7C145.1,158.9,143.8,158.5,142.2,158.5z"/>
		<path id="XMLID_18_" class="st2" d="M154.3,151.4h2.1v10.8l7.3-4.8h2.6l-8,5.1l9.1,7h-2.8l-8.2-6.4v6.4h-2.1V151.4z"/>
		<path id="XMLID_20_" class="st2" d="M180.9,161.8v7.8H179v-2.1c-0.6,0.7-1.4,1.3-2.3,1.7c-0.9,0.4-2,0.6-3.2,0.6
			c-1.6,0-2.9-0.3-3.8-1c-1-0.6-1.4-1.5-1.4-2.5c0-1.3,0.7-2.3,2.2-3c1.5-0.7,3.5-1.1,6.2-1.1h2.1c0,0,0-0.1,0-0.2
			c0-0.1,0-0.2,0-0.2c0-1-0.3-1.8-1-2.4s-1.6-0.9-2.8-0.9c-0.8,0-1.7,0.1-2.4,0.3s-1.6,0.4-2.3,0.8v-1.5c0.8-0.3,1.7-0.5,2.5-0.7
			c0.8-0.2,1.7-0.2,2.5-0.2c1.9,0,3.3,0.4,4.3,1.2C180.4,159.1,180.9,160.3,180.9,161.8z M176.5,163.4c-1.9,0-3.4,0.2-4.5,0.7
			s-1.6,1.2-1.6,2c0,0.7,0.3,1.3,0.9,1.7c0.6,0.4,1.4,0.6,2.4,0.6c1.5,0,2.8-0.4,3.7-1.1c0.9-0.7,1.4-1.7,1.4-2.9v-1.1H176.5z"/>
		<path id="XMLID_23_" class="st2" d="M186.4,151.4h2.1v8.1c0.6-0.7,1.3-1.3,2.2-1.7c0.9-0.4,1.9-0.6,3.1-0.6c2,0,3.7,0.6,4.9,1.7
			c1.2,1.1,1.9,2.6,1.9,4.5c0,1.9-0.6,3.4-1.8,4.6c-1.2,1.2-2.8,1.8-4.7,1.8c-1.3,0-2.4-0.2-3.3-0.7c-1-0.4-1.8-1.1-2.4-2v2.5h-1.9
			V151.4z M193.6,158.4c-1.6,0-2.9,0.4-3.8,1.3c-0.9,0.9-1.4,2.1-1.4,3.7c0,1.5,0.5,2.7,1.4,3.6c0.9,0.9,2.2,1.4,3.7,1.4
			c1.5,0,2.6-0.4,3.5-1.3c0.9-0.9,1.3-2.1,1.3-3.6c0-1.6-0.4-2.8-1.3-3.7C196.2,158.9,195.1,158.4,193.6,158.4z"/>
		<path id="XMLID_26_" class="st2" d="M204.8,157.4h2.1v7c0,1.4,0.3,2.4,1,3c0.6,0.6,1.6,1,3,1c1.6,0,2.8-0.4,3.6-1.3
			s1.3-2.2,1.3-3.8v-5.8h2.1v12.2h-1.9v-2.4c-0.6,0.9-1.4,1.5-2.3,1.9c-0.9,0.4-2,0.6-3.3,0.6c-1.8,0-3.1-0.4-4.1-1.3
			c-0.9-0.8-1.4-2.1-1.4-3.7V157.4z"/>
		<path id="XMLID_28_" class="st2" d="M221.1,157.4h2.2l4.8,10.5l4.8-10.5h2.1l-6.6,14c-0.6,1.2-1.3,2.1-2,2.7
			c-0.7,0.5-1.7,0.8-2.8,0.8c-0.3,0-0.5,0-0.8,0c-0.3,0-0.6-0.1-0.9-0.1l0.2-1.4l0.1,0c0.7,0.1,1.1,0.1,1.3,0.1c0.8,0,1.4-0.2,2-0.7
			c0.5-0.5,1.1-1.4,1.7-2.7L221.1,157.4z"/>
		<path id="XMLID_30_" class="st2" d="M235.8,167.4h2.7v2.1h-2.7V167.4z"/>
		<path id="XMLID_32_" class="st2" d="M255.6,157.8l-0.2,1.5c-0.5-0.2-1.1-0.4-1.7-0.5c-0.6-0.1-1.3-0.2-2-0.2
			c-1.8,0-3.2,0.4-4.3,1.3c-1.1,0.9-1.7,2-1.7,3.5c0,1.5,0.5,2.7,1.6,3.5c1.1,0.9,2.5,1.3,4.3,1.3c0.6,0,1.3-0.1,1.9-0.2
			c0.6-0.1,1.3-0.3,2-0.5l0.2,1.5c-0.7,0.2-1.3,0.3-2.1,0.4c-0.7,0.1-1.4,0.1-2.2,0.1c-2.4,0-4.3-0.6-5.8-1.7
			c-1.5-1.1-2.2-2.6-2.2-4.5c0-1.8,0.8-3.3,2.3-4.4c1.5-1.1,3.6-1.7,6-1.7c0.7,0,1.4,0,2,0.1C254.3,157.5,255,157.6,255.6,157.8z"/>
		<path id="XMLID_34_" class="st2" d="M265.8,157.2c2.3,0,4.2,0.6,5.6,1.7c1.4,1.1,2.1,2.7,2.1,4.6c0,1.9-0.7,3.5-2.1,4.6
			c-1.4,1.2-3.3,1.7-5.6,1.7c-2.3,0-4.2-0.6-5.6-1.7c-1.4-1.2-2.1-2.7-2.1-4.6c0-1.9,0.7-3.5,2.1-4.6
			C261.6,157.7,263.4,157.2,265.8,157.2z M265.8,158.5c-1.6,0-2.9,0.5-3.9,1.4s-1.5,2.1-1.5,3.6c0,1.5,0.5,2.7,1.5,3.6
			c1,0.9,2.3,1.4,3.9,1.4c1.7,0,3-0.5,4-1.4c1-0.9,1.5-2.1,1.5-3.7c0-1.5-0.5-2.8-1.5-3.7C268.8,158.9,267.4,158.5,265.8,158.5z"/>
		<path id="XMLID_37_" class="st2" d="M290,159.9c0.6-0.9,1.3-1.5,2.3-2c0.9-0.5,2-0.7,3.1-0.7c1.7,0,3,0.4,3.8,1.3
			c0.9,0.8,1.3,2.1,1.3,3.7v7.4h-2.1v-7.1c0-1.4-0.3-2.4-0.8-3s-1.4-0.9-2.6-0.9c-1.5,0-2.6,0.4-3.4,1.2c-0.8,0.8-1.2,2-1.2,3.4v6.3
			h-2.1v-7.1c0-1.4-0.3-2.3-0.8-3c-0.6-0.6-1.4-1-2.6-1c-1.4,0-2.6,0.4-3.4,1.2s-1.3,2-1.3,3.4v6.3H278v-12.2h1.9v2.3
			c0.6-0.8,1.3-1.5,2.2-1.9c0.9-0.4,1.9-0.6,3.1-0.6c1.2,0,2.2,0.2,3,0.7C289,158.3,289.6,159,290,159.9z"/>
	</g>
</g>
</svg>
