<?xml version="1.0" encoding="utf-8"?>
<!-- Generator: Adobe Illustrator 19.0.0, SVG Export Plug-In . SVG Version: 6.00 Build 0)  -->
<svg version="1.1" id="图层_1" xmlns="http://www.w3.org/2000/svg" xmlns:xlink="http://www.w3.org/1999/xlink" x="0px" y="0px"
	 viewBox="0 0 36 36" style="enable-background:new 0 0 36 36;" xml:space="preserve">
<style type="text/css">
	.st0{fill-rule:evenodd;clip-rule:evenodd;fill:#F2BF1E;}
	.st1{fill-rule:evenodd;clip-rule:evenodd;fill:#EB5E1F;}
	.st2{fill:#FFFFFF;}
</style>
<g id="XMLID_1_">
	<g id="XMLID_2626_">
		<g id="XMLID_2629_">
			<path class="st0" d="M18,31.7c-9.3,0-16.9-7.5-16.9-16.9c0-2.9,0.8-5.7,2.1-8.1h1.5c-1.4,2.4-2.3,5.1-2.3,8.1
				c0,8.6,7,15.6,15.6,15.6c8.6,0,15.6-7,15.6-15.6c0-3-0.8-5.8-2.3-8.1h1.5c1.3,2.4,2.1,5.2,2.1,8.1C34.9,24.2,27.4,31.7,18,31.7
				L18,31.7z M20.2,17.2c0-0.1,0.2-0.2,0.3-0.3l2.3-0.4l1-2c0.1-0.1,0.2-0.2,0.4-0.2c0.2,0,0.3,0.1,0.4,0.2l1,2l2.3,0.4
				c0.2,0,0.3,0.1,0.3,0.3c0,0.1,0,0.3-0.1,0.4l-1.6,1.5l0.4,2.2c0,0.1,0,0.3-0.2,0.4c-0.1,0.1-0.4,0.1-0.4,0l-2.1-1.1l-2,1.1
				c-0.1,0-0.3,0.1-0.4,0c-0.1-0.1-0.2-0.2-0.2-0.4l0.4-2.2l-1.6-1.5C20.2,17.5,20.1,17.4,20.2,17.2L20.2,17.2z M21.5,17.9l1.1,1
				l-0.3,1.4c0,0.1,0,0.2,0.1,0.3c0.1,0.1,0.2,0,0.3,0l1.4-0.7l1.4,0.7c0,0,0.2,0.1,0.3,0c0.1-0.1,0.1-0.2,0.1-0.3l-0.3-1.4l1.1-1
				c0.1-0.1,0.1-0.2,0.1-0.3c0-0.1-0.1-0.2-0.2-0.2l-1.7-0.2l-0.5-1.4c0-0.1-0.1-0.1-0.2-0.1c-0.1,0-0.2,0.1-0.2,0.1l-0.5,1.4
				l-1.7,0.2c-0.1,0-0.2,0.1-0.2,0.2C21.4,17.7,21.4,17.8,21.5,17.9L21.5,17.9z M11.8,20.5H18c0.4,0,0.6,0.2,0.6,0.6
				c0,0.4-0.2,0.6-0.6,0.6h-6.3c-2.3-0.1-2.5-1.4-2.5-3.1v-4.4c0-0.4,0.2-0.6,0.6-0.6c0.4,0,0.6,0.2,0.6,0.6v4.4
				C10.4,19.9,10.9,20.5,11.8,20.5L11.8,20.5z M25.6,12.7c-0.9,0-2-0.3-2.6-0.9c-0.6,0.7-1.7,0.9-2.6,0.9c-0.9,0-1.8-0.3-2.4-0.9
				c-0.6,0.7-1.6,1-2.6,1c-0.9,0-1.6-0.2-2.4-1c0,0-0.7,0.9-1.9,0.9C9.4,12.7,8,11.5,8,9.8c0,0,0-0.1,0-0.1c0-0.1,0-0.2,0-0.4
				L10,2.8c0.4-1,1.2-1,1.8-1h13.1c0.6,0,1.5,0,1.8,1l1.9,6.8c0,0.1,0,0.2,0,0.2v0C28.7,11.5,27.4,12.7,25.6,12.7L25.6,12.7z
				 M25.5,3c-0.9,0-5.5,0-14.4,0L9.3,9.9c0,0,0,0,0,0c-0.1,1.2,0.9,1.9,1.9,1.9c1.4-0.1,1.2-1.9,1.2-1.9H13c0,0,0.5,0,0.6,0
				c0.2,1.8,1.1,1.9,1.9,1.9c1.8,0,1.9-1.9,1.9-1.9s1,0,1.2,0c0.2,1.2,0.4,1.9,1.9,1.9c1.9,0.1,1.9-1.9,1.9-1.9h1.2
				c0,0,0.1,1.7,1.9,1.9c0.9,0.1,1.8-0.9,1.9-1.9L25.5,3L25.5,3z"/>
		</g>
	</g>
	<g id="XMLID_2632_">
		<g id="XMLID_2631_">
			<rect x="3.8" y="25" class="st1" width="28.4" height="9.4"/>
		</g>
		<g id="XMLID_2625_">
			<path id="XMLID_2_" class="st2" d="M7.5,33.8v-8.1h1.2v3.4h3.9v-3.4h1.2v8.1h-1.2v-3.7H8.6v3.7H7.5z"/>
			<path id="XMLID_4_" class="st2" d="M18.9,25.5c0.5,0,1,0.1,1.4,0.3c0.4,0.2,0.8,0.5,1.1,0.9c0.3,0.4,0.6,0.9,0.7,1.4
				c0.2,0.5,0.2,1.1,0.2,1.7c0,0.6-0.1,1.2-0.2,1.7c-0.2,0.5-0.4,1-0.7,1.4c-0.3,0.4-0.7,0.6-1.1,0.8c-0.4,0.2-0.9,0.3-1.4,0.3
				s-1-0.1-1.4-0.3c-0.4-0.2-0.8-0.5-1.1-0.8c-0.3-0.4-0.6-0.9-0.7-1.4s-0.2-1.1-0.2-1.7c0-0.6,0.1-1.2,0.2-1.7s0.4-1,0.7-1.4
				c0.3-0.4,0.7-0.7,1.1-0.8C18,25.6,18.4,25.5,18.9,25.5z M16.7,29.8c0,1,0.2,1.7,0.6,2.3c0.4,0.6,0.9,0.9,1.6,0.9
				c0.7,0,1.2-0.3,1.6-0.9c0.4-0.6,0.6-1.3,0.6-2.3c0-1-0.2-1.7-0.6-2.3c-0.4-0.6-0.9-0.9-1.6-0.9c-0.7,0-1.2,0.3-1.6,0.9
				C16.9,28,16.7,28.8,16.7,29.8z"/>
			<path id="XMLID_7_" class="st2" d="M27.1,26.8v7.1H26v-7.1h-2.6v-1.1h6.3v1.1H27.1z"/>
		</g>
	</g>
</g>
</svg>
