<?xml version="1.0" standalone="no"?><!DOCTYPE svg PUBLIC "-//W3C//DTD SVG 1.1//EN" "http://www.w3.org/Graphics/SVG/1.1/DTD/svg11.dtd"><svg width="200" height="200" viewBox="0 0 200 200" version="1.1" xmlns="http://www.w3.org/2000/svg" xmlns:xlink="http://www.w3.org/1999/xlink"><defs><style type="text/css"><![CDATA[
@font-face { font-family: ifont; src: url(http://at.alicdn.com/t/font_1442373896_4754455.eot?#iefix) format(embedded-opentype), url(http://at.alicdn.com/t/font_1442373896_4754455.woff) format(woff), url(http://at.alicdn.com/t/font_1442373896_4754455.ttf) format(truetype), url(http://at.alicdn.com/t/font_1442373896_4754455.svg#ifont) format(svg); }

]]></style></defs><g class="transform-group"><g transform="scale(0.1953125, 0.1953125)"><path d="M768 1024 256 1024c-32.8 0-64-32.736-64-64L192 64c0-31.264 32.736-64 64-64l512 0c32.8 0 64 31.2 64 64l0 896C832 992.8 802.304 1024 768 1024zM512 896c17.664 0 32-14.336 32-32 0-17.664-14.336-32-32-32-17.664 0-32 14.336-32 32C480 881.664 494.336 896 512 896zM768 128 256 128l0 640 512 0L768 128z" fill="#272636"></path></g></g></svg>