<?xml version="1.0" standalone="no"?><!DOCTYPE svg PUBLIC "-//W3C//DTD SVG 1.1//EN" "http://www.w3.org/Graphics/SVG/1.1/DTD/svg11.dtd"><svg width="200" height="200" viewBox="0 0 200 200" version="1.1" xmlns="http://www.w3.org/2000/svg" xmlns:xlink="http://www.w3.org/1999/xlink"><defs><style type="text/css"><![CDATA[
@font-face { font-family: ifont; src: url(http://at.alicdn.com/t/font_1442373896_4754455.eot?#iefix) format(embedded-opentype), url(http://at.alicdn.com/t/font_1442373896_4754455.woff) format(woff), url(http://at.alicdn.com/t/font_1442373896_4754455.ttf) format(truetype), url(http://at.alicdn.com/t/font_1442373896_4754455.svg#ifont) format(svg); }

]]></style></defs><g class="transform-group"><g transform="scale(0.1953125, 0.1953125)"><path d="M951.05024 484.39296l0-98.05824-94.08512 0c-17.32608 0-31.35488-14.06976-31.35488-31.4368l0-47.104c0-17.34656 14.04928-31.4368 31.35488-31.4368l94.08512 0 0-62.81216c0-17.34656-14.04928-31.41632-31.35488-31.41632L104.32512 182.12864c-17.32608 0-31.35488 14.06976-31.35488 31.41632l0 62.81216 501.76 0c17.32608 0 31.35488 14.09024 31.35488 31.4368l0 47.104c0 17.36704-14.04928 31.4368-31.35488 31.4368l-501.76 0 0 298.43456c0 17.34656 14.04928 31.41632 31.35488 31.41632l452.34176 0 38.95296 62.83264L72.97024 779.01824c-34.63168 0-62.73024-28.11904-62.73024-62.83264L10.24 182.14912c0-34.69312 28.07808-62.81216 62.73024-62.81216l878.08 0c34.63168 0 62.73024 28.13952 62.73024 62.81216l0 125.66528 0 47.104 0 148.97152L951.05024 484.39296zM668.79488 527.70816c0-72.02816 0-181.28896 0-204.1856s24.65792-48.92672 47.04256-47.12448c22.38464 1.82272 47.04256 25.23136 47.04256 47.12448s0 162.05824 0 172.78976 63.83616 24.90368 62.73024 31.41632 57.87648-3.8912 62.73024 15.70816c0 0 183.45984-9.64608 47.04256 204.1856-6.38976 1.61792 0 157.0816 0 157.0816l-250.88 0 0-109.95712c0 0-80.5888-133.632-94.08512-157.0816C576.90112 614.21568 548.47488 542.39232 668.79488 527.70816z" fill="#272636"></path></g></g></svg>