<?xml version="1.0" encoding="utf-8"?>
<!-- Generator: Adobe Illustrator 19.0.0, SVG Export Plug-In . SVG Version: 6.00 Build 0)  -->
<svg version="1.1" id="图层_1" xmlns="http://www.w3.org/2000/svg" xmlns:xlink="http://www.w3.org/1999/xlink" x="0px" y="0px"
	 viewBox="0 0 140 140" style="enable-background:new 0 0 140 140;" xml:space="preserve">
<style type="text/css">
	.st0{display:none;}
	.st1{display:inline;}
	.st2{fill:#272728;}
	.st3{fill:none;stroke:#272728;stroke-width:2;stroke-linecap:round;stroke-linejoin:round;stroke-miterlimit:10;}
	.st4{fill:#F1BE1C;}
	.st5{display:inline;fill:#F1BE1C;}
	.st6{fill:#FFFFFF;}
	.st7{display:inline;fill:#FB5B46;}
	.st8{fill:#515151;}
</style>
<g id="XMLID_137_" class="st0">
	<g id="XMLID_149_" class="st1">
		<g id="XMLID_366_">
			<path id="XMLID_6_" class="st2" d="M64,91.4H53.6c-1.5,0-2.8-1.3-2.8-2.8V77.4c0-0.6,0.4-1,1-1s1,0.4,1,1v11.1
				c0,0.4,0.4,0.8,0.8,0.8H64c0.6,0,1,0.4,1,1S64.5,91.4,64,91.4z"/>
		</g>
		<g id="XMLID_150_">
			<path id="XMLID_5_" class="st2" d="M51.8,66.4c-0.6,0-1-0.4-1-1V55c0-1.5,1.3-2.8,2.8-2.8h10.3c0.6,0,1,0.4,1,1s-0.4,1-1,1H53.6
				c-0.4,0-0.8,0.4-0.8,0.8v10.5C52.8,66,52.4,66.4,51.8,66.4z"/>
		</g>
	</g>
	<g id="XMLID_143_" class="st1">
		<g id="XMLID_145_">
			<path id="XMLID_4_" class="st2" d="M87.2,91.4H76.8c-0.6,0-1-0.4-1-1s0.4-1,1-1h10.4c0.4,0,0.8-0.4,0.8-0.8V77.4c0-0.6,0.4-1,1-1
				s1,0.4,1,1v11.1C89.9,90.1,88.7,91.4,87.2,91.4z"/>
		</g>
		<g id="XMLID_144_">
			<path id="XMLID_7_" class="st2" d="M88.9,66.4c-0.6,0-1-0.4-1-1V55c0-0.4-0.4-0.8-0.8-0.8H76.8c-0.6,0-1-0.4-1-1s0.4-1,1-1h10.3
				c1.5,0,2.8,1.3,2.8,2.8v10.5C89.9,66,89.5,66.4,88.9,66.4z"/>
		</g>
	</g>
	<g id="XMLID_141_" class="st1">
		<path id="XMLID_3_" class="st2" d="M91,72H51c-0.6,0-1-0.4-1-1s0.4-1,1-1h40c0.6,0,1,0.4,1,1S91.6,72,91,72z"/>
	</g>
</g>
<g id="XMLID_385_" class="st0">
	<g id="XMLID_407_" class="st1">
		<path id="XMLID_16_" class="st2" d="M56.7,89.1l2.6-4.3c-5.7-2.9-9.1-7.9-9.1-13.3c0-8.8,9.1-15.9,20.3-15.9
			c11.2,0,20.3,7.1,20.3,15.9s-9.1,15.9-20.3,15.9c-0.7,0-1.5,0-2.4-0.1L56.7,89.1z M70.5,57.6c-10.1,0-18.3,6.2-18.3,13.9
			c0,4.9,3.4,9.4,9,11.9l1,0.5l-1.5,2.5l7.4-1.2l0.1,0c0.9,0.1,1.7,0.1,2.4,0.1c10.1,0,18.3-6.2,18.3-13.9
			C88.9,63.8,80.7,57.6,70.5,57.6z"/>
	</g>
	<g id="XMLID_395_" class="st1">
		<path id="XMLID_13_" class="st2" d="M59,74.2c-1.6,0-2.8-1.3-2.8-2.8s1.3-2.8,2.8-2.8s2.8,1.3,2.8,2.8S60.6,74.2,59,74.2z
			 M59,70.6c-0.4,0-0.8,0.4-0.8,0.8c0,0.4,0.4,0.8,0.8,0.8s0.8-0.4,0.8-0.8C59.8,71,59.5,70.6,59,70.6z"/>
	</g>
	<g id="XMLID_394_" class="st1">
		<path id="XMLID_10_" class="st2" d="M71,74.2c-1.6,0-2.8-1.3-2.8-2.8s1.3-2.8,2.8-2.8c1.6,0,2.8,1.3,2.8,2.8S72.6,74.2,71,74.2z
			 M71,70.6c-0.4,0-0.8,0.4-0.8,0.8c0,0.4,0.4,0.8,0.8,0.8c0.4,0,0.8-0.4,0.8-0.8C71.8,71,71.5,70.6,71,70.6z"/>
	</g>
	<g id="XMLID_386_" class="st1">
		<path id="XMLID_8_" class="st2" d="M83,74.2c-1.6,0-2.8-1.3-2.8-2.8s1.3-2.8,2.8-2.8s2.8,1.3,2.8,2.8S84.6,74.2,83,74.2z M83,70.6
			c-0.4,0-0.8,0.4-0.8,0.8c0,0.4,0.4,0.8,0.8,0.8s0.8-0.4,0.8-0.8C83.8,71,83.5,70.6,83,70.6z"/>
	</g>
</g>
<g id="XMLID_455_" class="st0">
	<g id="XMLID_458_" class="st1">
		<path id="XMLID_49_" class="st2" d="M88.5,73.2c-0.3,0-0.5-0.1-0.7-0.3L71.4,56.3L54.9,72.9c-0.4,0.4-1,0.4-1.4,0
			c-0.4-0.4-0.4-1,0-1.4l17.2-17.2c0.2-0.2,0.4-0.2,0.7-0.2c0,0,0,0,0,0c0.3,0,0.5,0,0.7,0.2l17.1,17.2c0.4,0.4,0.4,1,0,1.4
			C89,73.1,88.7,73.2,88.5,73.2z"/>
	</g>
	<g id="XMLID_457_" class="st1">
		<path id="XMLID_48_" class="st2" d="M81,86.8H61.7c-1.7,0-3-1.3-3-3V71.2c0-0.6,0.4-1,1-1s1,0.4,1,1v12.7c0,0.6,0.4,1,1,1H81
			c0.6,0,1-0.4,1-1V71.2c0-0.6,0.4-1,1-1s1,0.4,1,1v12.7C84,85.5,82.7,86.8,81,86.8z"/>
	</g>
	<g id="XMLID_456_" class="st1">
		<path id="XMLID_45_" class="st2" d="M74,86.1h-5.4c-0.4,0-0.8-0.3-0.8-0.8v-6.5c0-0.4,0.3-0.8,0.8-0.8H74c0.4,0,0.8,0.3,0.8,0.8
			v6.5C74.8,85.7,74.4,86.1,74,86.1z M69.4,84.6h3.9v-5h-3.9V84.6z"/>
	</g>
</g>
<g id="XMLID_554_" class="st0">
	<g id="XMLID_467_" class="st1">
		<g id="XMLID_468_">
			<path id="XMLID_57_" class="st2" d="M74.8,86.4c-5.2,0-9.3-4.2-9.3-9.3s4.2-9.3,9.3-9.3s9.3,4.2,9.3,9.3S80,86.4,74.8,86.4z
				 M74.8,69.7c-4,0-7.3,3.3-7.3,7.3s3.3,7.3,7.3,7.3c4,0,7.3-3.3,7.3-7.3S78.9,69.7,74.8,69.7z"/>
		</g>
	</g>
	<g id="XMLID_465_" class="st1">
		<g id="XMLID_466_">
			<path id="XMLID_52_" class="st2" d="M67,88.3h-9.1c-1.8,0-3.3-1.5-3.3-3.3V63.5c0-0.6,0.4-1,1-1h29.8c0.6,0,1,0.4,1,1v6.7
				c0,0.6-0.4,1-1,1s-1-0.4-1-1v-5.7H56.6V85c0,0.7,0.6,1.3,1.3,1.3H67c0.6,0,1,0.4,1,1S67.5,88.3,67,88.3z"/>
		</g>
	</g>
	<g id="XMLID_462_" class="st1">
		<g id="XMLID_463_">
			<path id="XMLID_53_" class="st2" d="M85.5,64.6H55.6c-0.4,0-0.8-0.2-0.9-0.6c-0.2-0.4-0.1-0.8,0.2-1.1l6.4-7.1
				c0.2-0.2,0.5-0.3,0.7-0.3h17.1c0.3,0,0.6,0.1,0.7,0.3l6.4,7.1c0.3,0.3,0.3,0.7,0.2,1.1C86.2,64.3,85.9,64.6,85.5,64.6z
				 M57.9,62.6h25.4l-4.6-5.1H62.4L57.9,62.6z"/>
		</g>
	</g>
	<g id="XMLID_459_" class="st1">
		<g id="XMLID_460_">
			<path id="XMLID_51_" class="st2" d="M59,72.4c-0.1,0-0.3,0-0.4-0.1c-0.4-0.2-0.6-0.5-0.6-0.9V64c0-0.6,0.4-1,1-1s1,0.4,1,1v5.2
				l1.4-1.2c0.4-0.3,0.9-0.3,1.3,0l1.3,1.1V64c0-0.6,0.4-1,1-1s1,0.4,1,1v7.3c0,0.4-0.2,0.7-0.6,0.9c-0.4,0.2-0.8,0.1-1.1-0.1
				l-2.3-2l-2.4,2C59.5,72.3,59.2,72.4,59,72.4z"/>
		</g>
	</g>
	<g id="XMLID_521_" class="st1">
		<g id="XMLID_524_">
			<path id="XMLID_185_" class="st3" d="M84.7,88"/>
		</g>
		<g id="XMLID_523_">
			<path id="XMLID_50_" class="st2" d="M84.7,88.2c-0.2,0-0.5-0.1-0.7-0.3l-3.8-3.5c-0.4-0.4-0.4-1-0.1-1.4c0.4-0.4,1-0.4,1.4-0.1
				l3.8,3.5c0.4,0.4,0.4,1,0.1,1.4C85.2,88.1,85,88.2,84.7,88.2z"/>
		</g>
		<g id="XMLID_522_">
			<path id="XMLID_181_" class="st3" d="M80.1,83.7"/>
		</g>
	</g>
</g>
<g id="XMLID_555_" class="st0">
	<g id="XMLID_518_" class="st1">
		<path id="XMLID_65_" class="st2" d="M82,72H61c-0.6,0-1-0.4-1-1s0.4-1,1-1h21c0.6,0,1,0.4,1,1S82.6,72,82,72z"/>
	</g>
	<g id="XMLID_517_" class="st1">
		<path id="XMLID_64_" class="st2" d="M82,78H61c-0.6,0-1-0.4-1-1s0.4-1,1-1h21c0.6,0,1,0.4,1,1S82.6,78,82,78z"/>
	</g>
	<g id="XMLID_516_" class="st1">
		<path id="XMLID_63_" class="st2" d="M82,84H61c-0.6,0-1-0.4-1-1s0.4-1,1-1h21c0.6,0,1,0.4,1,1S82.6,84,82,84z"/>
	</g>
	<g id="XMLID_515_" class="st1">
		<path id="XMLID_62_" class="st2" d="M85.8,64.6c-0.2,0-0.5-0.1-0.6-0.3L81.8,59c-0.2-0.3-0.1-0.8,0.2-1c0.4-0.2,0.8-0.1,1,0.2
			l3.3,5.3c0.2,0.3,0.1,0.8-0.2,1C86,64.6,85.9,64.6,85.8,64.6z"/>
	</g>
	<g id="XMLID_500_" class="st1">
		<path id="XMLID_56_" class="st2" d="M84.9,89H57.8c-1.6,0-2.8-1.3-2.8-3V59c0-1.7,1.2-3,2.8-3H80c0.6,0,1,0.4,1,1v9h6
			c0.6,0,1,0.4,1,1v19C88,87.7,86.6,89,84.9,89z M57.8,58c-0.7,0-0.8,0.7-0.8,1v27c0,0.3,0.1,1,0.8,1h27.2c0.6,0,1.1-0.4,1.1-1V68
			h-6c-0.6,0-1-0.4-1-1v-9H57.8z"/>
	</g>
</g>
<g id="XMLID_501_" class="st0">
	<g id="XMLID_503_" class="st1">
		<g id="XMLID_513_">
			<path id="XMLID_71_" class="st2" d="M74.4,74.6c-5,0-9.1-4.1-9.1-9.2s4.1-9.2,9.1-9.2c5,0,9.1,4.1,9.1,9.2S79.4,74.6,74.4,74.6z
				 M74.4,58.2c-3.9,0-7.1,3.2-7.1,7.2s3.2,7.2,7.1,7.2c3.9,0,7.1-3.2,7.1-7.2S78.3,58.2,74.4,58.2z"/>
		</g>
		<g id="XMLID_512_">
			<path id="XMLID_69_" class="st2" d="M62,87.6c-0.6,0-1-0.4-1-1c0-7.7,6.2-14.1,13.9-14.1c0.6,0,1,0.4,1,1s-0.4,1-1,1
				C68.4,74.6,63,80,63,86.6C63,87.2,62.6,87.6,62,87.6z"/>
		</g>
		<g id="XMLID_511_">
			<path id="XMLID_68_" class="st2" d="M87.8,87.6c-0.6,0-1-0.4-1-1c0-4.2-2.3-8.1-5.9-10.2c-0.5-0.3-0.6-0.9-0.4-1.4
				c0.3-0.5,0.9-0.6,1.4-0.4c4.2,2.5,6.9,7.1,6.9,12C88.8,87.2,88.3,87.6,87.8,87.6z"/>
		</g>
		<g id="XMLID_505_">
			<g id="XMLID_507_">
				<path id="XMLID_67_" class="st2" d="M65.5,74.4c-0.1,0-0.1,0-0.2,0c-4.3-0.8-7.4-4.6-7.4-9c0-5.1,4.1-9.2,9.1-9.2
					c0.6,0,1,0.4,1,1s-0.4,1-1,1c-3.9,0-7.1,3.2-7.1,7.2c0,3.5,2.4,6.4,5.8,7.1c0.5,0.1,0.9,0.6,0.8,1.2
					C66.4,74.1,66,74.4,65.5,74.4z"/>
			</g>
			<g id="XMLID_506_">
				<path id="XMLID_66_" class="st2" d="M54.6,87.6c-0.6,0-1-0.4-1-1c0-6.9,5.1-13.1,11.6-14.2c0.5-0.1,1.1,0.3,1.1,0.8
					c0.1,0.5-0.3,1.1-0.8,1.1c-5.6,0.9-9.9,6.3-9.9,12.2C55.6,87.2,55.1,87.6,54.6,87.6z"/>
			</g>
		</g>
	</g>
	<g id="XMLID_502_" class="st1">
		<path id="XMLID_148_" class="st3" d="M65.5,73.9"/>
	</g>
</g>
<g id="XMLID_99_" class="st0">
	<g id="XMLID_960_" class="st1">
		<polygon id="XMLID_1015_" class="st4" points="70.4,57 85.4,72 87.5,72 70.4,54.7 53.2,72 55.5,72 		"/>
		<polygon id="XMLID_1016_" class="st4" points="84,72.2 70.4,58.6 56.9,72.2 		"/>
	</g>
	<path id="XMLID_98_" class="st5" d="M59,71v12.8c0,1.1,0.6,2.2,1.7,2.2H68v-7h5v7h7c1.1,0,2-1.1,2-2.2V71H59z"/>
</g>
<g id="XMLID_100_" class="st0">
	<g id="XMLID_982_" class="st1">
		<path id="XMLID_983_" class="st4" d="M67,86.3h-9.1c-1.3,0-2.3-1-2.3-2.3V63.5h29.8v20.8c0,1.1-0.9,2-2,2H67z"/>
	</g>
	<g id="XMLID_979_" class="st1">
		<path id="XMLID_980_" class="st4" d="M85.5,62.6H55.6l6.4-7.1h17.1L85.5,62.6z"/>
	</g>
	<g id="XMLID_977_" class="st1">
		<polyline id="XMLID_978_" class="st6" points="65,63 65,70.3 62,67.8 59,70.4 59,63 		"/>
	</g>
	<g id="XMLID_988_" class="st1">
		<path id="XMLID_989_" class="st6" d="M74.8,84.4c-4.6,0-8.3-3.7-8.3-8.3s3.7-8.3,8.3-8.3c4.6,0,8.3,3.7,8.3,8.3
			S79.4,84.4,74.8,84.4z"/>
	</g>
	<g id="XMLID_984_" class="st1">
		<g id="XMLID_987_">
			<path id="XMLID_381_" class="st6" d="M84.5,86.1"/>
		</g>
		<g id="XMLID_986_">
			<path id="XMLID_374_" class="st6" d="M84.4,86.3c-0.2,0-0.5-0.1-0.7-0.3L80,82.5c-0.4-0.4-0.4-1-0.1-1.4c0.4-0.4,1-0.4,1.4-0.1
				l3.8,3.5c0.4,0.4,0.4,1,0.1,1.4C85,86.2,84.7,86.3,84.4,86.3z"/>
		</g>
		<g id="XMLID_985_">
			<path id="XMLID_377_" class="st6" d="M79.9,81.8"/>
		</g>
	</g>
</g>
<g id="XMLID_101_" class="st0">
	<path id="XMLID_954_" class="st5" d="M80,67V57H57.8c-1.1,0-1.8,0.9-1.8,2v27c0,1.1,0.7,2,1.8,2h27.2c1.1,0,2.1-0.9,2.1-2V67H80z"
		/>
	<g id="XMLID_958_" class="st1">
		<path id="XMLID_382_" class="st6" d="M81.7,72h-21c-0.6,0-1-0.4-1-1s0.4-1,1-1h21c0.6,0,1,0.4,1,1S82.3,72,81.7,72z"/>
	</g>
	<g id="XMLID_957_" class="st1">
		<path id="XMLID_379_" class="st6" d="M81.7,78h-21c-0.6,0-1-0.4-1-1s0.4-1,1-1h21c0.6,0,1,0.4,1,1S82.3,78,81.7,78z"/>
	</g>
	<g id="XMLID_956_" class="st1">
		<path id="XMLID_378_" class="st6" d="M81.7,84h-21c-0.6,0-1-0.4-1-1s0.4-1,1-1h21c0.6,0,1,0.4,1,1S82.3,84,81.7,84z"/>
	</g>
	<g id="XMLID_955_" class="st1">
		<path id="XMLID_383_" class="st4" d="M85.8,64.6c-0.2,0-0.5-0.1-0.6-0.3L81.8,59c-0.2-0.3-0.1-0.8,0.2-1c0.3-0.2,0.8-0.1,1,0.2
			l3.3,5.3c0.2,0.3,0.1,0.8-0.2,1C86,64.6,85.9,64.6,85.8,64.6z"/>
	</g>
</g>
<g id="XMLID_1237_" class="st0">
	<path id="XMLID_1238_" class="st7" d="M77.1,57.1c-3.7,0-6.5,2.9-6.7,6.6c0-0.3,0-0.6,0-1c0,0.3,0,0.6,0,1c-0.2-3.7-3-6.6-6.7-6.6
		c-3.8,0-7.6,3.1-7.6,6.9c0,1.8,0.2,3.8,1.6,5.6l3,3.2c0,0,4.1,4,7.1,7.5c1.3,1.5,1,0.8,2.5,3.8h0h0c1.5-3,1.3-2.3,2.5-3.8
		c3-3.5,7.1-7.4,7.1-7.4l3-3.2c1.5-1.8,1.6-3.8,1.6-5.6C84.7,60.2,80.9,57.1,77.1,57.1z"/>
</g>
<g id="XMLID_1275_">
	<g id="XMLID_1261_">
		<path id="XMLID_33_" class="st8" d="M67.6,130.8c-33.8,0-61.3-27.5-61.3-61.3c0-33.8,27.5-61.3,61.3-61.3c12.2,0,23.9,3.5,34,10.3
			c1.8,1.2,2.3,3.7,1.1,5.5c-1.2,1.8-3.7,2.3-5.5,1.1c-8.8-5.8-19-8.9-29.5-8.9c-29.4,0-53.3,23.9-53.3,53.3
			c0,29.4,23.9,53.3,53.3,53.3c22.1,0,42.1-13.9,49.9-34.5c0.8-2.1,3.1-3.1,5.2-2.3c2.1,0.8,3.1,3.1,2.3,5.2
			C116.1,114.9,93,130.8,67.6,130.8z"/>
	</g>
	<g id="XMLID_1273_">
		<path id="XMLID_32_" class="st8" d="M65.8,96.7c-1,0-2.1-0.4-2.8-1.2L29.9,62.2c-1.6-1.6-1.5-4.1,0-5.7c1.6-1.6,4.1-1.5,5.7,0
			l30.5,30.8l61.5-49.7c1.7-1.4,4.2-1.1,5.6,0.6c1.4,1.7,1.1,4.2-0.6,5.6L68.3,95.8C67.6,96.4,66.7,96.7,65.8,96.7z"/>
	</g>
</g>
</svg>
