<?xml version="1.0" encoding="utf-8"?>
<!-- Generator: Adobe Illustrator 16.0.0, SVG Export Plug-In . SVG Version: 6.00 Build 0)  -->
<!DOCTYPE svg PUBLIC "-//W3C//DTD SVG 1.1//EN" "http://www.w3.org/Graphics/SVG/1.1/DTD/svg11.dtd">
<svg version="1.1" id="图层_1" xmlns="http://www.w3.org/2000/svg" xmlns:xlink="http://www.w3.org/1999/xlink" x="0px" y="0px"
	 width="16.193px" height="24.094px" viewBox="91.844 87.953 16.193 24.094" enable-background="new 91.844 87.953 16.193 24.094"
	 xml:space="preserve">
<g>
	<g>
		<g transform="scale(0.1953125, 0.1953125)">
			<path fill="#C9C9C9" d="M507.971,483.901l2.217-4.168c3.14-5.915,10.145-7.887,16.635-4.705c3,1.475,5.215,4.013,6.23,7.147
				c1.01,3.133,0.705,6.487-0.865,9.437l-6.98,13.13c-2.15,4.057-4.96,6.665-8.09,7.675c-2.56,0.83-5.328,0.598-8.133-0.782
				c-1.625-0.802-2.27-2.758-1.425-4.372c0.85-1.612,2.845-2.267,4.487-1.467c1.22,0.603,4.085,2.01,7.285-3.992l6.99-13.13
				c0.735-1.395,0.88-2.975,0.405-4.448c-0.49-1.475-1.53-2.67-2.945-3.367c-2.67-1.302-6.075-1.247-7.705,1.813l-2.22,4.17
				c-0.855,1.605-2.857,2.25-4.492,1.44C507.744,487.469,507.116,485.509,507.971,483.901L507.971,483.901z M496.559,532.014
				c3.092,1.52,6.555,1.65,9.642,0.655c3.087-1,5.818-3.14,7.43-6.175l1.782-3.35c0.855-1.61,0.23-3.57-1.395-4.38
				c-1.622-0.81-3.637-0.165-4.485,1.445l-1.78,3.335c-1.545,2.9-5.2,4.08-8.142,2.635c-1.417-0.69-2.457-1.89-2.935-3.36
				c-0.475-1.475-0.335-3.05,0.41-4.44l6.55-12.31c1.362-2.548,4.16-6.557,7.722-4.82c1.635,0.798,3.635,0.145,4.485-1.467
				c0.835-1.615,0.19-3.567-1.44-4.372c-6.047-2.967-12.592,0.063-16.655,7.715l-6.55,12.31c-1.572,2.955-1.88,6.3-0.867,9.435
				C491.341,528.009,493.561,530.544,496.559,532.014L496.559,532.014z M553.149,460.724v103.45c0,5.58-4.535,10.11-10.115,10.11
				h-62.682c-5.585,0-10.11-4.53-10.11-10.11v-103.45c0-5.585,4.525-10.112,10.11-10.112h62.692
				C548.614,450.621,553.139,455.139,553.149,460.724L553.149,460.724z M519.409,560.064c0-4.26-3.45-7.715-7.712-7.715
				c-4.257,0-7.712,3.455-7.712,7.715c0,4.255,3.455,7.71,7.712,7.71C515.959,567.774,519.409,564.319,519.409,560.064
				L519.409,560.064z M542.774,460.991h-62.14v84.852h62.13L542.774,460.991L542.774,460.991z"/>
		</g>
	</g>
</g>
</svg>
