<?xml version="1.0" encoding="utf-8"?>
<!-- Generator: Adobe Illustrator 19.0.0, SVG Export Plug-In . SVG Version: 6.00 Build 0)  -->
<svg version="1.1" id="图层_1" xmlns="http://www.w3.org/2000/svg" xmlns:xlink="http://www.w3.org/1999/xlink" x="0px" y="0px"
	 viewBox="114.8 -87.5 94 94" style="enable-background:new 114.8 -87.5 94 94;" xml:space="preserve">
<style type="text/css">
	.st0{fill:#272636;}
</style>
<g>
	<g transform="scale(0.1953125, 0.1953125)">
		<path class="st0" d="M828.4-320c20.4,1.1,35.5-16.2,38.4-35.1c0.4-1.3,0.5-2.7,0.4-4.2c0.1-1.5-0.1-2.8-0.4-4
			c-2.8-20.1-17.9-34.2-38.5-35.3c-21.9-1.2-37.7,18.9-38.8,39.3C788.4-337.2,808.2-321.1,828.4-320z M843-359.3
			c-1,19-28.1,19-29.1,0C812.8-378.4,842-378.3,843-359.3z M682.3-265.7c0.1-1.5-0.1-2.8-0.4-4c-2.8-20.1-17.9-34.2-38.5-35.3
			c-21.9-1.2-37.7,18.9-38.8,39.3c-1.2,22.2,18.7,38.2,38.8,39.3c20.4,1.1,35.5-16.2,38.4-35.1C682.2-262.8,682.4-264.2,682.3-265.7
			z M628.9-265.7c-1-19,28.1-18.9,29.1,0C657-246.7,629.9-246.7,628.9-265.7z M1056.8-265.7c0.1-1.5-0.1-2.8-0.4-4
			c-2.8-20.1-17.9-34.2-38.5-35.3c-21.9-1.2-37.7,18.9-38.8,39.3c-1.2,22.2,18.7,38.2,38.8,39.3c20.4,1.1,35.5-16.2,38.4-35.1
			C1056.7-262.8,1056.9-264.2,1056.8-265.7z M1003.4-265.7c-1-19,28.1-18.9,29.1,0C1031.5-246.7,1004.4-246.7,1003.4-265.7z
			 M974.2-224.7c-53.4-4.1-102.6-25.3-134.6-70.1c-4.1-5.7-13.8-9.2-19.1-2.5c-34.8,44.9-80.8,67.6-136.5,72.8
			c-9.7,0.9-14.5,9.6-10.5,18.5c18.5,41.1,37,82.3,55.4,123.4c2.7,6,7.8,7.3,12.5,5.8c0.4,0,0.8-0.1,1.2-0.2
			c58.4-12,114.5-12,172.9,0c4.9,1,11.4-0.5,13.7-5.6c18.5-41.2,37-82.4,55.4-123.6C988.6-214.9,983.9-223.9,974.2-224.7z
			 M911.7-102.7c-55.6-10.3-109.6-10.2-165.3,0c-14.9-33.2-29.8-66.3-44.7-99.5c50-7.7,93.1-28.5,127.1-67.1
			c33.1,39,77.4,60.1,127.5,67.2C941.4-168.9,926.6-135.8,911.7-102.7z M922.8-37.2c-63.3-17-125-17.5-188.3,0
			c-15.1,4.2-8.7,27.9,6.5,23.7c59.2-16.3,116.2-15.9,175.4,0C931.5-9.4,938-33.1,922.8-37.2z"/>
	</g>
</g>
</svg>
