<?xml version="1.0" encoding="utf-8"?>
<!-- Generator: Adobe Illustrator 16.0.0, SVG Export Plug-In . SVG Version: 6.00 Build 0)  -->
<!DOCTYPE svg PUBLIC "-//W3C//DTD SVG 1.1//EN" "http://www.w3.org/Graphics/SVG/1.1/DTD/svg11.dtd">
<svg version="1.1" id="图层_1" xmlns="http://www.w3.org/2000/svg" xmlns:xlink="http://www.w3.org/1999/xlink" x="0px" y="0px"
	 width="121.89px" height="121.89px" viewBox="39.055 39.055 121.89 121.89" enable-background="new 39.055 39.055 121.89 121.89"
	 xml:space="preserve">
<g>
	<g>
		<g transform="scale(0.1953125, 0.1953125)">
			<path fill="#50C4FC" d="M603.973,790.008c-2.665-10.2-11.48-17.055-21.935-17.055c-2.105,0-3.9,0.45-5.345,0.815l-0.085,0.02
				c-5.77,1.515-10.75,2.585-15.675,3.36l-0.15,0.025c-5.965,1.07-11.125,4.42-14.54,9.445c-3.335,4.925-4.605,10.88-3.57,16.78
				c0.89,5.645,4.22,10.925,9.14,14.515l0.26,0.185c3.825,2.545,8.205,3.895,12.675,3.895h1.205l1.03-0.34
				c0.1-0.02,0.205-0.035,0.3-0.055c0.47-0.075,1.13-0.185,1.885-0.4c6.015-1.14,12.225-2.335,18.15-3.81
				c5.59-1.315,10.8-5.05,13.96-10.01l0.155-0.255c2.995-5.145,3.92-11.145,2.59-16.91L603.973,790.008z M765.968,430.164
				c1.29,4.205,4.04,8.052,7.955,11.145c3.565,3.04,8.15,4.645,13.28,4.645c2.43,0,5.06-0.485,7.27-1.335
				c11.75-4.042,18.135-16.777,14.225-28.497l-0.05-0.145c-2.04-5.827-4.15-11.855-6.55-17.852
				c-3.425-8.57-11.685-14.107-21.045-14.107c-3.275,0-6.02,0.575-8.6,1.805c-5.47,2.205-9.87,6.522-12.12,11.907
				c-2.395,5.763-2.375,12.205,0.045,17.33C762.313,420.034,764.298,425.166,765.968,430.164z M691.028,742.978
				c-4.43-6.19-11.42-9.885-18.715-9.885c-4.58,0-9.035,1.43-12.575,4.035c-4.865,3.34-9.16,5.965-13.51,8.265l-0.16,0.09
				c-5.255,2.94-9.025,7.78-10.62,13.635c-1.585,5.8-0.775,12.085,2.195,17.18c1.66,2.885,3.805,5.2,6.575,7.09
				c3.835,2.825,8.27,4.31,12.85,4.31c4.31,0,8.21-1.07,11.55-3.15c1.715-1.05,3.46-2.1,5.215-3.15
				c3.595-2.16,7.32-4.395,10.77-6.63l0.335-0.235c4.9-3.56,8.135-8.44,9.37-14.12c1.255-5.515,0.225-11.49-2.895-16.85
				L691.028,742.978z M823.733,502.304c-0.46-12.097-10.31-21.565-22.455-21.565l-0.86,0.003
				c-12.355,0.443-22.055,10.902-21.61,23.317l0.005,0.13c0.28,5.277,0.28,10.635,0,15.915l-0.02,0.42l0.025,0.415
				c0.435,7.415,4.01,14.055,9.805,18.235c3.555,2.635,8.045,4.085,12.655,4.085h0.285c12.395,0,22.475-9.95,22.475-22.17
				C824.033,514.959,824.033,508.624,823.733,502.304z M757.523,670.193c-3.8-2.95-8.535-4.51-13.695-4.51
				c-6.985,0-13.535,3.315-17.98,9.09l-0.105,0.14c-3.08,4.205-6.505,8.48-10.17,12.71l-0.135,0.165
				c-3.805,4.645-5.645,10.445-5.195,16.33c0.455,5.92,3.19,11.27,7.705,15.095c0.59,0.575,1.335,1.2,2.395,1.79
				c3.805,2.445,8.055,3.685,12.64,3.685c6.33,0,12.525-2.82,16.995-7.74l0.095-0.105c4.235-4.845,8.165-9.975,11.96-14.94
				l0.185-0.245C769.363,691.828,767.253,677.713,757.523,670.193z M795.633,579.084c-2.72-1.035-5.165-1.035-6.97-1.035
				c-10.005,0-18.44,6.17-21.51,15.735c-1.685,5.07-3.43,10.31-5.42,15.435l-0.06,0.16c-3.57,9.815-0.245,20.65,8.09,26.355
				l0.085,0.06c1.22,0.805,2.555,1.485,4.05,2.225l0.465,0.23l0.49,0.17c2.525,0.845,5.095,1.27,7.66,1.27
				c9.29,0,17.56-5.655,21.05-14.405l0.075-0.19c2.06-5.585,4.155-11.565,6.22-17.765c1.885-5.49,1.485-11.435-1.125-16.745
				C806.078,585.219,801.318,581.034,795.633,579.084z M479.094,786.603c-3.58-4.925-8.867-8.255-14.525-9.155
				c-21.737-3.81-43.355-10.615-64.27-20.24l-1.547-1.55h-1.397c-4.438-2.09-8.965-4.245-12.805-6.55l-1.783-1.07h-0.31
				c-7.677-4.245-15.472-9.17-23.812-15.04c-58.162-41.055-96.937-102.41-109.185-172.76c-12.235-70.267,3.66-141.03,44.77-199.269
				c17.747-25.355,39.777-47.295,65.475-65.212l0.925-0.615c44.875-30.96,97.517-47.325,152.242-47.325
				c52.822,0,103.877,15.472,147.652,44.752l2.445,1.633l-27.975,40.73l96.985-9.45c3.725-0.152,7.34-2.127,9.31-5.1
				c1.96-2.943,2.405-6.84,1.2-10.287l-26.195-94.292l-28.115,40.572l-2.31-1.515c-51.72-34.577-111.64-52.855-173.295-52.855
				c-18.487,0-36.692,1.617-54.18,4.822l-1.938,0.372c-7.132,1.37-14.51,2.785-21.747,4.737l-1.047,0.335
				c-69.197,17.737-128.517,57.487-171.545,114.965l-2.087,3.105v0.005c-0.038,0.05-0.075,0.098-0.113,0.148
				c-1.027,1.377-2.09,2.802-3.077,4.475c-2.407,3.335-4.475,6.587-6.48,9.74l-0.777,1.465
				c-34.965,54.09-52.025,117.042-49.345,182.1l0.008,1.1c0.3,6.01,0.905,12.34,1.492,18.51l0.052,0.56l0.29,1.165
				c0.602,6.435,1.505,12.68,2.682,18.575c11.145,64.36,41.367,122.38,87.362,167.775l0.362,0.365
				c12.812,12.5,26.24,23.705,39.905,33.295c37.802,26.615,79.5,44.07,123.95,51.89c1.763,0.485,3.302,0.485,4.358,0.485
				c10.995,0,20.277-7.825,22.072-18.6l0.025-0.165c0.827-5.79-0.363-11.405-3.445-16.24L479.094,786.603z M496.741,312.209
				c-9.8,0-17.775,7.975-17.775,17.777v202.417l185.022,95.8c2.48,1.44,5.135,2.11,8.325,2.11c6.715,0,12.75-3.695,15.765-9.645
				c2.195-4.195,2.6-8.995,1.13-13.53c-1.445-4.465-4.53-8.14-8.755-10.375l-165.932-85.825V329.987
				C514.521,320.184,506.546,312.209,496.741,312.209z"/>
		</g>
	</g>
</g>
</svg>
