<?xml version="1.0" encoding="utf-8"?>
<!-- Generator: Adobe Illustrator 19.0.0, SVG Export Plug-In . SVG Version: 6.00 Build 0)  -->
<svg version="1.1" id="图层_1" xmlns="http://www.w3.org/2000/svg" xmlns:xlink="http://www.w3.org/1999/xlink" x="0px" y="0px"
	 viewBox="0 0 34 34" style="enable-background:new 0 0 34 34;" xml:space="preserve">
<style type="text/css">
	.st0{fill:none;stroke:#282828;stroke-width:2;stroke-linecap:round;stroke-linejoin:round;stroke-miterlimit:10;}
	.st1{fill:#EA5A46;}
</style>
<g id="XMLID_1_">
	
		<rect id="XMLID_17_" x="449.1" y="598.8" transform="matrix(0.7071 -0.7071 0.7071 0.7071 -294.0082 498.0201)" class="st0" width="10.2" height="10.2"/>
	<rect id="XMLID_16_" x="465" y="599" class="st0" width="11" height="10"/>
	<rect id="XMLID_15_" x="449" y="615" class="st0" width="10" height="10"/>
	<rect id="XMLID_14_" x="465" y="615" class="st0" width="11" height="10"/>
</g>
<g id="XMLID_2_">
	<g id="XMLID_526_">
		<path id="XMLID_8_" class="st1" d="M16.8,33.3c-9,0-16.4-7.4-16.4-16.4S7.8,0.5,16.8,0.5c9,0,16.4,7.4,16.4,16.4
			S25.9,33.3,16.8,33.3z M16.8,1.5C8.3,1.5,1.4,8.4,1.4,16.9c0,8.5,6.9,15.4,15.4,15.4c8.5,0,15.4-6.9,15.4-15.4
			C32.3,8.4,25.3,1.5,16.8,1.5z"/>
	</g>
	<g id="XMLID_527_">
		<line id="XMLID_5_" class="st1" x1="9.1" y1="25.8" x2="25.3" y2="8.3"/>
		
			<rect id="XMLID_6_" x="16.7" y="5.1" transform="matrix(0.7349 0.6782 -0.6782 0.7349 16.1346 -7.1693)" class="st1" width="1" height="23.9"/>
	</g>
	<g id="XMLID_528_">
		<line id="XMLID_3_" class="st1" x1="26" y1="25.2" x2="8.5" y2="8.9"/>
		
			<rect id="XMLID_4_" x="5.3" y="16.6" transform="matrix(0.7347 0.6784 -0.6784 0.7347 16.1421 -7.1701)" class="st1" width="23.9" height="1"/>
	</g>
</g>
</svg>
