<?xml version="1.0" encoding="utf-8"?>
<!-- Generator: Adobe Illustrator 19.0.0, SVG Export Plug-In . SVG Version: 6.00 Build 0)  -->
<svg version="1.1" id="图层_1" xmlns="http://www.w3.org/2000/svg" xmlns:xlink="http://www.w3.org/1999/xlink" x="0px" y="0px"
	 viewBox="0 0 49.8 14.5" style="enable-background:new 0 0 49.8 14.5;" xml:space="preserve">
<style type="text/css">
	.st0{fill:#F2BF1E;}
</style>
<g id="XMLID_27_">
	<g id="XMLID_2730_">
		<g id="XMLID_2731_">
			<path id="XMLID_2732_" class="st0" d="M11.3,9.2c0.2,0.1,0.2,3.7,0,3.8c-1,0.4-1.8,0.8-3.9,0.8c-3.9,0-6.6-2.5-6.6-6.5
				c0-3.8,2.6-6.5,6.6-6.5c2.7,0,3,0.2,3.9,0.7c0.2,0.1,0.2,3.7,0,3.8c0,0-1.4-1.5-3.5-1.5c-2.3,0-3.7,1.3-3.7,3.4
				c0,2.5,1.9,3.3,3.3,3.4C9.9,10.8,11.3,9.2,11.3,9.2z"/>
		</g>
	</g>
	<g id="XMLID_2726_">
		<g id="XMLID_2727_">
			<path id="XMLID_2728_" class="st0" d="M34.8,8.3c0,0,1.6-2.1,2.3-3.2c0-0.1,0,0,0.2,0c1,0,2.1,0,3,0c0.2,0,0.1,0.1,0.1,0.2
				c-0.8,1-2.6,3.3-2.6,3.3s2,3.4,3,5c0.1,0.2,0,0.5-0.2,0.5c-1.4,0-2,0-3.1,0c-0.1,0-0.3-0.3-0.4-0.5l-1.6-2.3l-0.6,0.6v1.4
				c0,0.2,0,0.7-0.1,0.7c-0.9,0-1.7,0-2.6,0c-0.1,0-0.2-0.6-0.2-0.8c0-3.2,0-8.2,0-11.4c0-0.2,0-0.8,0.2-0.8c1.5,0,0.6,0,2.7,0
				c0.1,0,0.1,0.6,0.1,0.8V8.3z"/>
		</g>
	</g>
	<g id="XMLID_2721_">
		<g id="XMLID_2722_">
			<path id="XMLID_2723_" class="st0" d="M45.8,12.3c0,0.9-1,1.4-2.1,1.4c-2.3,0-3.9-1.6-3.9-4.5c0-2.6,1.6-4.4,3.8-4.4
				c1.2,0,2.1,0.7,2.1,1.4v-1c0-0.2,0.6,0,0.7,0c1,0,1.7,0,2.6,0c0.1,0-0.3-0.1-0.3,0c0,3.3,0,5.1,0,8.3c0,0.2,0.4,0.8,0.3,0.8
				c-0.5,0-2.2,0-2.4,0c-0.1,0-0.9-0.6-0.9-0.7V12.3z M42.9,9.3c0,1,0.8,1.8,1.7,1.8c0.9,0,1.7-0.7,1.7-1.8c0-1.1-0.8-1.8-1.7-1.8
				C43.6,7.4,42.9,8.2,42.9,9.3z"/>
		</g>
	</g>
	<g id="XMLID_2719_">
		<path id="XMLID_2720_" class="st0" d="M18.7,9.1c0,0,0,0.4-0.1,0.4c-0.3,0.6-0.8,1.1-1.4,1.1c-0.1,0,0.1,0.1,0.1,0.1
			c-1,0-1.5-0.8-1.5-1.8c0,0,0,0,0,0c0,0-0.2,0-0.2,0c0-0.8,0.3-1.4,0.9-1.7C16.7,7,16.9,7,17.1,7c0.2,0,0.4,0,0.6,0.1
			c0.5,0.2,0.8,0.4,1,0.9c0,0,0,0,0,0h2.9c-0.2-2-2.1-3.9-4.5-3.9c-2.7,0-4.6,2-4.6,4.7c0,2.7,1.9,4.4,4.6,4.4
			c2.4,0,4.2-1.1,4.5-4.1H18.7z"/>
	</g>
	<g id="XMLID_2717_">
		<path id="XMLID_2718_" class="st0" d="M25.9,4.2c-2.5,0-4.3,1.9-4.5,3.9h2.9c0.1-1,0.5-0.7,0.9-1C25.4,7,25.7,7,26,7
			c0.2,0,0.3,0.1,0.5,0.1c0.5,0.1,0.9,0.5,1.1,1c0.1,0.2,0.2,0.5,0.2,0.8c0,0.4-0.1,0.8-0.3,1.1c-0.3,0.5-0.7,0.7-1.2,0.8
			c-0.1,0-0.1,0-0.2,0c-0.7,0-1.3-0.4-1.6-1.1c0,0,0-0.3,0-0.3c0,0,0-0.3,0-0.3h-2.9c0.3,3,2.1,4.2,4.5,4.2c2.7,0,4.6-1.8,4.6-4.5
			C30.5,6,28.6,4.2,25.9,4.2z"/>
	</g>
</g>
</svg>
