<?xml version="1.0" encoding="utf-8"?>
<!-- Generator: Adobe Illustrator 19.0.0, SVG Export Plug-In . SVG Version: 6.00 Build 0)  -->
<svg version="1.1" id="图层_1" xmlns="http://www.w3.org/2000/svg" xmlns:xlink="http://www.w3.org/1999/xlink" x="0px" y="0px"
	 viewBox="0 0 24 24" style="enable-background:new 0 0 24 24;" xml:space="preserve">
<style type="text/css">
	.st0{fill:#62727B;}
</style>
<g id="XMLID_2596_">
	<g id="XMLID_2618_">
		<path id="XMLID_2671_" class="st0" d="M12.1,23.5c-6.1,0-11-4.9-11-11s4.9-11,11-11s11,4.9,11,11S18.1,23.5,12.1,23.5z M12.1,2.5
			c-5.5,0-10,4.5-10,10s4.5,10,10,10s10-4.5,10-10S17.6,2.5,12.1,2.5z"/>
	</g>
	<g id="XMLID_2619_">
		<path id="XMLID_2670_" class="st0" d="M16.9,19.7H7.4c-0.8,0-1.5-0.7-1.5-1.5v-4.5c0-0.3,0.2-0.5,0.5-0.5s0.5,0.2,0.5,0.5v4.5
			c0,0.3,0.2,0.5,0.5,0.5h9.5c0.3,0,0.5-0.2,0.5-0.5v-4.5c0-0.3,0.2-0.5,0.5-0.5s0.5,0.2,0.5,0.5v4.5C18.4,19.1,17.8,19.7,16.9,19.7
			z"/>
	</g>
	<g id="XMLID_2620_">
		<path id="XMLID_2669_" class="st0" d="M14.1,19.5c-0.3,0-0.5-0.2-0.5-0.5v-2.2h-2.8V19c0,0.3-0.2,0.5-0.5,0.5S9.8,19.3,9.8,19
			v-2.7c0-0.3,0.2-0.5,0.5-0.5h3.8c0.3,0,0.5,0.2,0.5,0.5V19C14.6,19.3,14.4,19.5,14.1,19.5z"/>
	</g>
	<g id="XMLID_2595_">
		<path id="XMLID_2666_" class="st0" d="M18.4,11.4h-13c-0.2,0-0.4-0.1-0.4-0.3c-0.1-0.2-0.1-0.4,0-0.5l3-4.3
			c0.1-0.1,0.2-0.2,0.4-0.2h7c0.2,0,0.3,0.1,0.4,0.2l3,4.3c0.1,0.2,0.1,0.4,0,0.5C18.7,11.3,18.6,11.4,18.4,11.4z M6.3,10.4h11.1
			l-2.3-3.3H8.6L6.3,10.4z"/>
	</g>
</g>
</svg>
