<?xml version="1.0" encoding="utf-8"?>
<!-- Generator: Adobe Illustrator 16.0.0, SVG Export Plug-In . SVG Version: 6.00 Build 0)  -->
<!DOCTYPE svg PUBLIC "-//W3C//DTD SVG 1.1//EN" "http://www.w3.org/Graphics/SVG/1.1/DTD/svg11.dtd">
<svg version="1.1" id="图层_1" xmlns="http://www.w3.org/2000/svg" xmlns:xlink="http://www.w3.org/1999/xlink" x="0px" y="0px"
	 width="18.288px" height="17.008px" viewBox="90.856 91.496 18.288 17.008" enable-background="new 90.856 91.496 18.288 17.008"
	 xml:space="preserve">
<g>
	<g>
		<g transform="scale(0.1953125, 0.1953125)">
			<path fill="#BBBBBB" d="M552.574,555.539h-81.15c-3.432,0-6.24-2.81-6.24-6.24v-62.425c0-3.432,2.807-6.242,6.24-6.242h15.607
				v6.242h-15.607v62.425h81.15v-62.425h-15.605v-6.242h15.605c3.435,0,6.245,2.81,6.245,6.242v62.425
				C558.819,552.729,556.009,555.539,552.574,555.539z M499.516,480.631h24.967v6.242h-24.967V480.631z M493.274,468.459
				c-1.872,0-3.122,1.25-3.122,3.122v18.415c0,1.872,1.25,3.12,3.122,3.12c1.872,0,3.12-1.247,3.12-3.12v-18.415
				C496.394,469.709,495.146,468.459,493.274,468.459L493.274,468.459z M530.729,468.459c-1.875,0-3.125,1.25-3.125,3.122v18.415
				c0,1.872,1.25,3.12,3.125,3.12c1.87,0,3.12-1.247,3.12-3.12v-18.415C533.849,469.709,532.599,468.459,530.729,468.459
				L530.729,468.459z M465.184,502.481h93.635v6.242h-93.635V502.481z M480.789,518.084h6.242v6.245h-6.242V518.084z
				 M499.516,518.084h6.242v6.245h-6.242V518.084z M518.244,518.084h6.24v6.245h-6.24V518.084z M536.969,518.084h6.24v6.245h-6.24
				V518.084z M480.789,533.694h6.242v6.24h-6.242V533.694z M499.516,533.694h6.242v6.24h-6.242V533.694z M518.244,533.694h6.24v6.24
				h-6.24V533.694z M536.969,533.694h6.24v6.24h-6.24V533.694z"/>
		</g>
	</g>
</g>
</svg>
