<?xml version="1.0" encoding="utf-8"?>
<!-- Generator: Adobe Illustrator 19.0.0, SVG Export Plug-In . SVG Version: 6.00 Build 0)  -->
<svg version="1.1" id="图层_1" xmlns="http://www.w3.org/2000/svg" xmlns:xlink="http://www.w3.org/1999/xlink" x="0px" y="0px"
	 viewBox="0 0 30 30" style="enable-background:new 0 0 30 30;" xml:space="preserve">
<style type="text/css">
	.st0{display:none;}
	.st1{display:inline;}
	.st2{fill:#272728;}
	.st3{fill:none;stroke:#272728;stroke-width:2;stroke-linecap:round;stroke-linejoin:round;stroke-miterlimit:10;}
	.st4{fill:#F1BE1C;}
	.st5{display:inline;fill:#F1BE1C;}
	.st6{fill:#FFFFFF;}
	.st7{fill:#282828;}
	.st8{fill:#272636;}
</style>
<g id="XMLID_137_" class="st0">
	<g id="XMLID_149_" class="st1">
		<g id="XMLID_366_">
			<path id="XMLID_6_" class="st2" d="M9,36.4H-1.4c-1.5,0-2.8-1.3-2.8-2.8V22.4c0-0.6,0.4-1,1-1s1,0.4,1,1v11.1
				c0,0.4,0.4,0.8,0.8,0.8H9c0.6,0,1,0.4,1,1S9.5,36.4,9,36.4z"/>
		</g>
		<g id="XMLID_150_">
			<path id="XMLID_5_" class="st2" d="M-3.2,11.4c-0.6,0-1-0.4-1-1V0c0-1.5,1.3-2.8,2.8-2.8H8.9c0.6,0,1,0.4,1,1s-0.4,1-1,1H-1.4
				c-0.4,0-0.8,0.4-0.8,0.8v10.5C-2.2,11-2.6,11.4-3.2,11.4z"/>
		</g>
	</g>
	<g id="XMLID_143_" class="st1">
		<g id="XMLID_145_">
			<path id="XMLID_4_" class="st2" d="M32.2,36.4H21.8c-0.6,0-1-0.4-1-1s0.4-1,1-1h10.4c0.4,0,0.8-0.4,0.8-0.8V22.4c0-0.6,0.4-1,1-1
				s1,0.4,1,1v11.1C34.9,35.1,33.7,36.4,32.2,36.4z"/>
		</g>
		<g id="XMLID_144_">
			<path id="XMLID_7_" class="st2" d="M33.9,11.4c-0.6,0-1-0.4-1-1V0c0-0.4-0.4-0.8-0.8-0.8H21.8c-0.6,0-1-0.4-1-1s0.4-1,1-1h10.3
				c1.5,0,2.8,1.3,2.8,2.8v10.5C34.9,11,34.5,11.4,33.9,11.4z"/>
		</g>
	</g>
	<g id="XMLID_141_" class="st1">
		<path id="XMLID_3_" class="st2" d="M36,17H-4c-0.6,0-1-0.4-1-1s0.4-1,1-1h40c0.6,0,1,0.4,1,1S36.6,17,36,17z"/>
	</g>
</g>
<g id="XMLID_385_" class="st0">
	<g id="XMLID_407_" class="st1">
		<path id="XMLID_16_" class="st2" d="M1.7,34.1l2.6-4.3c-5.7-2.9-9.1-7.9-9.1-13.3c0-8.8,9.1-15.9,20.3-15.9
			c11.2,0,20.3,7.1,20.3,15.9s-9.1,15.9-20.3,15.9c-0.7,0-1.5,0-2.4-0.1L1.7,34.1z M15.5,2.6C5.4,2.6-2.8,8.8-2.8,16.5
			c0,4.9,3.4,9.4,9,11.9l1,0.5l-1.5,2.5l7.4-1.2l0.1,0c0.9,0.1,1.7,0.1,2.4,0.1c10.1,0,18.3-6.2,18.3-13.9
			C33.9,8.8,25.7,2.6,15.5,2.6z"/>
	</g>
	<g id="XMLID_395_" class="st1">
		<path id="XMLID_13_" class="st2" d="M4,19.2c-1.6,0-2.8-1.3-2.8-2.8s1.3-2.8,2.8-2.8s2.8,1.3,2.8,2.8S5.6,19.2,4,19.2z M4,15.6
			c-0.4,0-0.8,0.4-0.8,0.8c0,0.4,0.4,0.8,0.8,0.8s0.8-0.4,0.8-0.8C4.8,16,4.5,15.6,4,15.6z"/>
	</g>
	<g id="XMLID_394_" class="st1">
		<path id="XMLID_10_" class="st2" d="M16,19.2c-1.6,0-2.8-1.3-2.8-2.8s1.3-2.8,2.8-2.8c1.6,0,2.8,1.3,2.8,2.8S17.6,19.2,16,19.2z
			 M16,15.6c-0.4,0-0.8,0.4-0.8,0.8c0,0.4,0.4,0.8,0.8,0.8c0.4,0,0.8-0.4,0.8-0.8C16.8,16,16.5,15.6,16,15.6z"/>
	</g>
	<g id="XMLID_386_" class="st1">
		<path id="XMLID_8_" class="st2" d="M28,19.2c-1.6,0-2.8-1.3-2.8-2.8s1.3-2.8,2.8-2.8s2.8,1.3,2.8,2.8S29.6,19.2,28,19.2z M28,15.6
			c-0.4,0-0.8,0.4-0.8,0.8c0,0.4,0.4,0.8,0.8,0.8s0.8-0.4,0.8-0.8C28.8,16,28.5,15.6,28,15.6z"/>
	</g>
</g>
<g id="XMLID_455_" class="st0">
	<g id="XMLID_458_" class="st1">
		<path id="XMLID_49_" class="st2" d="M33.5,18.2c-0.3,0-0.5-0.1-0.7-0.3L16.4,1.3L-0.1,17.9c-0.4,0.4-1,0.4-1.4,0
			c-0.4-0.4-0.4-1,0-1.4L15.7-0.8C15.9-1,16.2-1,16.4-1c0,0,0,0,0,0c0.3,0,0.5,0,0.7,0.2l17.1,17.2c0.4,0.4,0.4,1,0,1.4
			C34,18.1,33.7,18.2,33.5,18.2z"/>
	</g>
	<g id="XMLID_457_" class="st1">
		<path id="XMLID_48_" class="st2" d="M26,31.8H6.7c-1.7,0-3-1.3-3-3V16.2c0-0.6,0.4-1,1-1s1,0.4,1,1v12.7c0,0.6,0.4,1,1,1H26
			c0.6,0,1-0.4,1-1V16.2c0-0.6,0.4-1,1-1s1,0.4,1,1v12.7C29,30.5,27.7,31.8,26,31.8z"/>
	</g>
	<g id="XMLID_456_" class="st1">
		<path id="XMLID_45_" class="st2" d="M19,31.1h-5.4c-0.4,0-0.8-0.3-0.8-0.8v-6.5c0-0.4,0.3-0.8,0.8-0.8H19c0.4,0,0.8,0.3,0.8,0.8
			v6.5C19.8,30.7,19.4,31.1,19,31.1z M14.4,29.6h3.9v-5h-3.9V29.6z"/>
	</g>
</g>
<g id="XMLID_554_" class="st0">
	<g id="XMLID_467_" class="st1">
		<g id="XMLID_468_">
			<path id="XMLID_57_" class="st2" d="M19.8,31.4c-5.2,0-9.3-4.2-9.3-9.3s4.2-9.3,9.3-9.3s9.3,4.2,9.3,9.3S25,31.4,19.8,31.4z
				 M19.8,14.7c-4,0-7.3,3.3-7.3,7.3s3.3,7.3,7.3,7.3c4,0,7.3-3.3,7.3-7.3S23.9,14.7,19.8,14.7z"/>
		</g>
	</g>
	<g id="XMLID_465_" class="st1">
		<g id="XMLID_466_">
			<path id="XMLID_52_" class="st2" d="M12,33.3H2.9c-1.8,0-3.3-1.5-3.3-3.3V8.5c0-0.6,0.4-1,1-1h29.8c0.6,0,1,0.4,1,1v6.7
				c0,0.6-0.4,1-1,1s-1-0.4-1-1V9.5H1.6V30c0,0.7,0.6,1.3,1.3,1.3H12c0.6,0,1,0.4,1,1S12.5,33.3,12,33.3z"/>
		</g>
	</g>
	<g id="XMLID_462_" class="st1">
		<g id="XMLID_463_">
			<path id="XMLID_53_" class="st2" d="M30.5,9.6H0.6C0.2,9.6-0.1,9.3-0.3,9c-0.2-0.4-0.1-0.8,0.2-1.1l6.4-7.1
				C6.4,0.6,6.7,0.5,7,0.5h17.1c0.3,0,0.6,0.1,0.7,0.3l6.4,7.1c0.3,0.3,0.3,0.7,0.2,1.1C31.2,9.3,30.9,9.6,30.5,9.6z M2.9,7.6h25.4
				l-4.6-5.1H7.4L2.9,7.6z"/>
		</g>
	</g>
	<g id="XMLID_459_" class="st1">
		<g id="XMLID_460_">
			<path id="XMLID_51_" class="st2" d="M4,17.4c-0.1,0-0.3,0-0.4-0.1C3.2,17.1,3,16.8,3,16.4V9c0-0.6,0.4-1,1-1s1,0.4,1,1v5.2
				L6.4,13c0.4-0.3,0.9-0.3,1.3,0L9,14.2V9c0-0.6,0.4-1,1-1s1,0.4,1,1v7.3c0,0.4-0.2,0.7-0.6,0.9c-0.4,0.2-0.8,0.1-1.1-0.1l-2.3-2
				l-2.4,2C4.5,17.3,4.2,17.4,4,17.4z"/>
		</g>
	</g>
	<g id="XMLID_521_" class="st1">
		<g id="XMLID_524_">
			<path id="XMLID_185_" class="st3" d="M29.7,33"/>
		</g>
		<g id="XMLID_523_">
			<path id="XMLID_50_" class="st2" d="M29.7,33.2c-0.2,0-0.5-0.1-0.7-0.3l-3.8-3.5c-0.4-0.4-0.4-1-0.1-1.4c0.4-0.4,1-0.4,1.4-0.1
				l3.8,3.5c0.4,0.4,0.4,1,0.1,1.4C30.2,33.1,30,33.2,29.7,33.2z"/>
		</g>
		<g id="XMLID_522_">
			<path id="XMLID_181_" class="st3" d="M25.1,28.7"/>
		</g>
	</g>
</g>
<g id="XMLID_555_" class="st0">
	<g id="XMLID_518_" class="st1">
		<path id="XMLID_65_" class="st2" d="M27,17H6c-0.6,0-1-0.4-1-1s0.4-1,1-1h21c0.6,0,1,0.4,1,1S27.6,17,27,17z"/>
	</g>
	<g id="XMLID_517_" class="st1">
		<path id="XMLID_64_" class="st2" d="M27,23H6c-0.6,0-1-0.4-1-1s0.4-1,1-1h21c0.6,0,1,0.4,1,1S27.6,23,27,23z"/>
	</g>
	<g id="XMLID_516_" class="st1">
		<path id="XMLID_63_" class="st2" d="M27,29H6c-0.6,0-1-0.4-1-1s0.4-1,1-1h21c0.6,0,1,0.4,1,1S27.6,29,27,29z"/>
	</g>
	<g id="XMLID_515_" class="st1">
		<path id="XMLID_62_" class="st2" d="M30.8,9.6c-0.2,0-0.5-0.1-0.6-0.3L26.8,4c-0.2-0.3-0.1-0.8,0.2-1c0.4-0.2,0.8-0.1,1,0.2
			l3.3,5.3c0.2,0.3,0.1,0.8-0.2,1C31,9.6,30.9,9.6,30.8,9.6z"/>
	</g>
	<g id="XMLID_500_" class="st1">
		<path id="XMLID_56_" class="st2" d="M29.9,34H2.8C1.2,34,0,32.7,0,31V4c0-1.7,1.2-3,2.8-3H25c0.6,0,1,0.4,1,1v9h6c0.6,0,1,0.4,1,1
			v19C33,32.7,31.6,34,29.9,34z M2.8,3C2.1,3,2,3.7,2,4v27c0,0.3,0.1,1,0.8,1h27.2c0.6,0,1.1-0.4,1.1-1V13h-6c-0.6,0-1-0.4-1-1V3
			H2.8z"/>
	</g>
</g>
<g id="XMLID_501_" class="st0">
	<g id="XMLID_503_" class="st1">
		<g id="XMLID_513_">
			<path id="XMLID_71_" class="st2" d="M19.4,19.6c-5,0-9.1-4.1-9.1-9.2s4.1-9.2,9.1-9.2c5,0,9.1,4.1,9.1,9.2S24.4,19.6,19.4,19.6z
				 M19.4,3.2c-3.9,0-7.1,3.2-7.1,7.2s3.2,7.2,7.1,7.2c3.9,0,7.1-3.2,7.1-7.2S23.3,3.2,19.4,3.2z"/>
		</g>
		<g id="XMLID_512_">
			<path id="XMLID_69_" class="st2" d="M7,32.6c-0.6,0-1-0.4-1-1c0-7.7,6.2-14.1,13.9-14.1c0.6,0,1,0.4,1,1s-0.4,1-1,1
				C13.4,19.6,8,25,8,31.6C8,32.2,7.6,32.6,7,32.6z"/>
		</g>
		<g id="XMLID_511_">
			<path id="XMLID_68_" class="st2" d="M32.8,32.6c-0.6,0-1-0.4-1-1c0-4.2-2.3-8.1-5.9-10.2c-0.5-0.3-0.6-0.9-0.4-1.4
				c0.3-0.5,0.9-0.6,1.4-0.4c4.2,2.5,6.9,7.1,6.9,12C33.8,32.2,33.3,32.6,32.8,32.6z"/>
		</g>
		<g id="XMLID_505_">
			<g id="XMLID_507_">
				<path id="XMLID_67_" class="st2" d="M10.5,19.4c-0.1,0-0.1,0-0.2,0c-4.3-0.8-7.4-4.6-7.4-9C2.9,5.3,7,1.2,12,1.2
					c0.6,0,1,0.4,1,1s-0.4,1-1,1c-3.9,0-7.1,3.2-7.1,7.2c0,3.5,2.4,6.4,5.8,7.1c0.5,0.1,0.9,0.6,0.8,1.2
					C11.4,19.1,11,19.4,10.5,19.4z"/>
			</g>
			<g id="XMLID_506_">
				<path id="XMLID_66_" class="st2" d="M-0.4,32.6c-0.6,0-1-0.4-1-1c0-6.9,5.1-13.1,11.6-14.2c0.5-0.1,1.1,0.3,1.1,0.8
					c0.1,0.5-0.3,1.1-0.8,1.1c-5.6,0.9-9.9,6.3-9.9,12.2C0.6,32.2,0.1,32.6-0.4,32.6z"/>
			</g>
		</g>
	</g>
	<g id="XMLID_502_" class="st1">
		<path id="XMLID_148_" class="st3" d="M10.5,18.9"/>
	</g>
</g>
<g id="XMLID_99_" class="st0">
	<g id="XMLID_960_" class="st1">
		<polygon id="XMLID_1015_" class="st4" points="15.4,2 30.4,17 32.5,17 15.4,-0.3 -1.8,17 0.5,17 		"/>
		<polygon id="XMLID_1016_" class="st4" points="29,17.2 15.4,3.6 1.9,17.2 		"/>
	</g>
	<path id="XMLID_98_" class="st5" d="M4,16v12.8C4,29.9,4.6,31,5.7,31H13v-7h5v7h7c1.1,0,2-1.1,2-2.2V16H4z"/>
</g>
<g id="XMLID_100_" class="st0">
	<g id="XMLID_982_" class="st1">
		<path id="XMLID_983_" class="st4" d="M12,31.3H2.9c-1.3,0-2.3-1-2.3-2.3V8.5h29.8v20.8c0,1.1-0.9,2-2,2H12z"/>
	</g>
	<g id="XMLID_979_" class="st1">
		<path id="XMLID_980_" class="st4" d="M30.5,7.6H0.6L7,0.5h17.1L30.5,7.6z"/>
	</g>
	<g id="XMLID_977_" class="st1">
		<polyline id="XMLID_978_" class="st6" points="10,8 10,15.3 7,12.8 4,15.4 4,8 		"/>
	</g>
	<g id="XMLID_988_" class="st1">
		<path id="XMLID_989_" class="st6" d="M19.8,29.4c-4.6,0-8.3-3.7-8.3-8.3s3.7-8.3,8.3-8.3s8.3,3.7,8.3,8.3S24.4,29.4,19.8,29.4z"/>
	</g>
	<g id="XMLID_984_" class="st1">
		<g id="XMLID_987_">
			<path id="XMLID_381_" class="st6" d="M29.5,31.1"/>
		</g>
		<g id="XMLID_986_">
			<path id="XMLID_374_" class="st6" d="M29.4,31.3c-0.2,0-0.5-0.1-0.7-0.3L25,27.5c-0.4-0.4-0.4-1-0.1-1.4c0.4-0.4,1-0.4,1.4-0.1
				l3.8,3.5c0.4,0.4,0.4,1,0.1,1.4C30,31.2,29.7,31.3,29.4,31.3z"/>
		</g>
		<g id="XMLID_985_">
			<path id="XMLID_377_" class="st6" d="M24.9,26.8"/>
		</g>
	</g>
</g>
<g id="XMLID_101_" class="st0">
	<path id="XMLID_954_" class="st5" d="M25,12V2H2.8C1.7,2,1,2.9,1,4v27c0,1.1,0.7,2,1.8,2h27.2c1.1,0,2.1-0.9,2.1-2V12H25z"/>
	<g id="XMLID_958_" class="st1">
		<path id="XMLID_382_" class="st6" d="M26.7,17h-21c-0.6,0-1-0.4-1-1s0.4-1,1-1h21c0.6,0,1,0.4,1,1S27.3,17,26.7,17z"/>
	</g>
	<g id="XMLID_957_" class="st1">
		<path id="XMLID_379_" class="st6" d="M26.7,23h-21c-0.6,0-1-0.4-1-1s0.4-1,1-1h21c0.6,0,1,0.4,1,1S27.3,23,26.7,23z"/>
	</g>
	<g id="XMLID_956_" class="st1">
		<path id="XMLID_378_" class="st6" d="M26.7,29h-21c-0.6,0-1-0.4-1-1s0.4-1,1-1h21c0.6,0,1,0.4,1,1S27.3,29,26.7,29z"/>
	</g>
	<g id="XMLID_955_" class="st1">
		<path id="XMLID_383_" class="st4" d="M30.8,9.6c-0.2,0-0.5-0.1-0.6-0.3L26.8,4c-0.2-0.3-0.1-0.8,0.2-1c0.3-0.2,0.8-0.1,1,0.2
			l3.3,5.3c0.2,0.3,0.1,0.8-0.2,1C31,9.6,30.9,9.6,30.8,9.6z"/>
	</g>
</g>
<g id="XMLID_31_" class="st0">
	<g id="XMLID_576_" class="st1">
		<path id="XMLID_37_" class="st7" d="M28,28H5.6c-0.5,0-0.9-0.4-1-0.8L0.5,0H-6c-0.6,0-1-0.4-1-1s0.4-1,1-1h7.4
			c0.5,0,0.9,0.4,1,0.9L6.5,26H28c0.6,0,1,0.4,1,1S28.6,28,28,28z"/>
	</g>
	<g id="XMLID_34_" class="st1">
		<path id="XMLID_36_" class="st7" d="M28,24H6c-0.6,0-1-0.4-1-1s0.4-1,1-1h21.2l4.1-16.2L8.4,6c0,0,0,0,0,0c-0.6,0-1-0.6-1-1.2
			c0-0.6,0.4-0.9,1-0.9L32.6,4c0,0,0,0,0,0c0.3,0,0.6-0.1,0.8,0.2c0.2,0.2,0.3,0.5,0.2,0.8L29,23.3C28.9,23.7,28.5,24,28,24z"/>
	</g>
	<g id="XMLID_33_" class="st1">
		<circle class="st7" cx="8.4" cy="33.5" r="2.2"/>
	</g>
	<g id="XMLID_32_" class="st1">
		<circle class="st7" cx="24.4" cy="33.5" r="2.2"/>
	</g>
</g>
<g id="XMLID_578_">
	<path id="XMLID_91_" class="st8" d="M26.7,19.1c0.1,0.1,0.3,0.2,0.4,0.3c0.9,0.7,1.2,1.1,1.2,1.1h0l0,0l0,0c0,0,0.1,0.1,0.1,0.2
		c0,0,0.1,0.1,0.1,0.1c0,0,0,0,0,0.1c0,0,0,0.1,0.1,0.1l0.2,0.3v0c0.4,0.7,0.1,1.7-0.1,2.1c-0.4,0.8-1.1,1.7-1.7,2.2
		c-1.1,1-2.7,2.2-4.6,2.2c-0.2,0-0.4,0-0.6,0c-1.4-0.2-3.6-1-5.9-2.3c-2.6-1.4-5-3.2-6.9-5c-1.9-1.8-3.8-4.2-5.3-6.6
		c-1.4-2.2-2.3-4.3-2.5-5.7C1.1,7.4,1.3,6.4,1.9,5.4c0.5-0.9,1.2-1.7,2.1-2.4C4,2.9,4,2.9,4.1,2.8c0.7-0.6,1.3-1,2.2-1.4
		c0.3-0.1,0.7-0.2,1-0.2c0.3,0,0.6,0.1,0.9,0.2l0,0c0.1,0.1,0.3,0.2,0.4,0.2c0.2,0.1,1.1,0.6,2.1,1.9c0.3,0.4,0.8,1.2,1.2,1.8
		c0.6,1.1,1,2,1,2l0,0L13,7.5c0.3,0.7,0.1,1.4-0.4,1.8c0,0-0.1,0.1-0.1,0.1l0,0l0,0c0,0-0.1,0.1-0.1,0.1c-0.1,0.1-0.1,0.1-0.1,0.1
		l0,0c-0.3,0.2-0.5,0.3-0.6,0.4c-0.1,0-0.2,0.1-0.4,0.2l0,0c-0.3,0.2-0.6,0.3-1,0.5C10,10.9,9.7,11,9.4,11.1c-0.5,0.3-0.5,1-0.4,1.2
		c0.6,1.4,1.8,2.8,3.6,4.6c1.7,1.6,3.3,2.6,4.7,3.4c0.2,0.1,0.3,0.1,0.5,0.1c0.5,0,1-0.4,1.2-0.8c0.2-0.3,0.3-0.6,0.4-0.9
		c0.1-0.2,0.2-0.4,0.3-0.6l0,0c0.2-0.4,0.4-0.7,0.5-0.9c0.1-0.1,0.2-0.2,0.2-0.3c0.2-0.3,0.5-0.5,0.9-0.7c0.2-0.1,0.4-0.1,0.7-0.1
		c0.3,0,0.6,0.1,0.8,0.2l0.6,0.3l0,0c0,0,0.1,0.1,0.1,0.1c0.1,0,0.2,0.1,0.3,0.2c0.2,0.1,0.6,0.4,1,0.6c0.1,0,0.1,0.1,0.2,0.1
		 M21.4,17.9c0,0.1-0.3,0.3-0.6,0.9c-0.1,0.2-0.2,0.4-0.3,0.6c-0.1,0.3-0.3,0.6-0.5,0.9c-0.4,0.7-1.2,1.4-2.2,1.4
		c-0.4,0-0.8-0.1-1.1-0.3c-1.4-0.8-3.2-1.9-4.9-3.6c-2-1.9-3.2-3.5-3.9-5c-0.2-0.4-0.2-0.9-0.1-1.4c0.2-0.6,0.5-1.1,1.1-1.4
		c0.4-0.2,0.7-0.3,1-0.4c0.3-0.1,0.5-0.2,0.8-0.4C10.8,9.1,10.9,9.1,11,9c0.1-0.1,0.2-0.1,0.5-0.3c0,0,0,0,0.1,0
		c0.1,0,0.1-0.1,0.1-0.1c0,0,0,0,0.1-0.1l0,0c0.2-0.2,0.2-0.3,0.1-0.5l0,0l-0.1-0.2c-0.1-0.1-0.4-1-1-1.9c-0.3-0.5-0.7-1.1-1.1-1.7
		C8.8,3.1,8.1,2.7,8,2.7l0,0c-0.1,0-0.3-0.1-0.3-0.2C7.6,2.5,7.4,2.4,7.3,2.4c-0.2,0-0.3,0-0.5,0.1l0,0C6,2.8,5.5,3.2,4.9,3.8
		c-0.1,0-0.1,0.1-0.2,0.1C3.2,5.2,2.3,6.8,2.4,8.1c0.2,1.2,1,3.1,2.3,5.2c1.4,2.3,3.2,4.6,5.1,6.3c1.8,1.8,4.2,3.5,6.7,4.8
		c2.2,1.2,4.2,2,5.5,2.2c0.2,0,0.3,0,0.5,0c1.2,0,2.4-0.6,3.8-1.9c0.5-0.4,1.1-1.2,1.4-1.8c0.2-0.4,0.2-0.9,0.1-1.1l-0.1-0.2v0l0,0
		c0-0.1-0.1-0.2-0.2-0.3c0,0-0.3-0.4-1.1-1c-0.7-0.6-1.6-1.2-2.2-1.6c-0.7-0.5-1.2-0.8-1.3-0.8l-0.6-0.3c0,0-0.1,0-0.3,0
		c-0.1,0-0.2,0-0.3,0c-0.1,0-0.3,0.2-0.3,0.2L21.4,17.9L21.4,17.9z M21.4,17.9"/>
</g>
</svg>
