<?xml version="1.0" encoding="utf-8"?>
<!-- Generator: Adobe Illustrator 19.0.0, SVG Export Plug-In . SVG Version: 6.00 Build 0)  -->
<svg version="1.1" id="图层_1" xmlns="http://www.w3.org/2000/svg" xmlns:xlink="http://www.w3.org/1999/xlink" x="0px" y="0px"
	 viewBox="0 0 22 22" style="enable-background:new 0 0 22 22;" xml:space="preserve">
<style type="text/css">
	.st0{display:none;}
	.st1{display:inline;}
	.st2{fill:#282828;}
	.st3{fill:#272828;}
</style>
<g id="XMLID_770_" class="st0">
	<g id="XMLID_771_" class="st1">
		<path id="XMLID_5_" class="st2" d="M10.7,17.6c-5.6,0-10.1-4.4-10.1-5.8c0-1.4,4.7-5.7,10.1-5.7c5.4,0,10.1,4.6,10.1,5.7
			C20.8,13.2,16.2,17.6,10.7,17.6z M10.7,6.8c-5.3,0-9.4,4.2-9.4,5c0,1,4.2,5.1,9.4,5.1c5.3,0,9.4-4.3,9.4-5.1
			C20,11.1,15.9,6.8,10.7,6.8z"/>
	</g>
	<g id="XMLID_772_" class="st1">
		<path id="XMLID_2_" class="st2" d="M10.9,15.4c-2,0-3.6-1.6-3.6-3.6s1.6-3.6,3.6-3.6c2,0,3.6,1.6,3.6,3.6S12.9,15.4,10.9,15.4z
			 M10.9,8.8c-1.6,0-2.9,1.3-2.9,2.9c0,1.6,1.3,2.9,2.9,2.9s2.9-1.3,2.9-2.9C13.8,10.1,12.5,8.8,10.9,8.8z"/>
	</g>
</g>
<g id="XMLID_1_">
	<g id="XMLID_2906_">
		<path id="XMLID_12_" class="st3" d="M11.3,12c-0.8,0-1.4-0.4-1.9-0.9c-0.5,0.5-1.2,0.8-2,0.8c-0.8,0-1.6-0.3-2-0.8
			c-0.5,0.5-1.2,0.8-2,0.8c-1.4,0-2.5-1-2.5-2.1c0-0.2,0-0.6,3.1-5.8C4.3,3,5,3,5.8,3h5.5h5.6c0,0,0,0,0,0c0.6,0,1.5,0,2,1
			c2.9,5.2,2.9,5.6,2.9,5.8c0,1.2-1.1,2.1-2.5,2.1c-0.8,0-1.6-0.3-2-0.8c-0.5,0.5-1.2,0.9-2,0.9c-0.8,0-1.5-0.3-2-0.8
			C12.7,11.6,12.1,12,11.3,12z M9.4,9.5c0.2,0,0.5,0.2,0.5,0.4c0.1,0.5,0.6,1.1,1.3,1.1c0.8,0,1.3-0.5,1.4-1.1
			c0-0.2,0.2-0.4,0.5-0.4l0,0c0.2,0,0.5,0.2,0.5,0.4c0.1,0.6,0.8,1,1.5,1c0.8,0,1.4-0.4,1.5-1c0-0.2,0.2-0.4,0.5-0.4l0,0
			c0.2,0,0.5,0.2,0.5,0.4c0.1,0.6,0.8,1,1.5,1c0.8,0,1.5-0.5,1.5-1.1c-0.1-0.3-1.5-3-2.8-5.3c0,0,0,0,0,0c-0.2-0.3-0.4-0.4-1.1-0.4
			L11.3,4H5.8C5.1,4,5,4,4.8,4.4c-1.4,2.4-2.9,5-3,5.4c0,0.5,0.7,1.1,1.6,1.1c0.8,0,1.4-0.4,1.5-1c0-0.2,0.2-0.4,0.5-0.4l0,0
			c0.2,0,0.5,0.2,0.5,0.4c0.1,0.6,0.8,1,1.5,1c0.8,0,1.4-0.4,1.5-0.9C9,9.7,9.2,9.5,9.4,9.5z"/>
	</g>
	<g id="XMLID_2905_">
		<path id="XMLID_11_" class="st3" d="M14.5,20.5c-0.3,0-0.5-0.2-0.5-0.5v-6.1c-0.1,0-0.2,0-0.3,0c-0.2,0-4.6,0-4.7,0V20
			c0,0.3-0.2,0.5-0.5,0.5S8,20.3,8,20v-6.5c0-0.2,0.1-0.4,0.2-0.5c0.3-0.2,0.6-0.1,0.9,0c0.1,0,4.3,0,4.4,0c0.6-0.1,1-0.2,1.3,0.1
			c0.1,0.1,0.2,0.3,0.2,0.4V20C15,20.3,14.8,20.5,14.5,20.5z"/>
	</g>
	<g id="XMLID_2902_">
		<path id="XMLID_10_" class="st3" d="M17.5,21H4.7c-1,0-1.7-0.6-1.7-1.6V13c0-0.3,0.2-0.5,0.5-0.5S4,12.7,4,13v6.4
			C4,19.6,4,20,4.7,20h12.7c0.8,0,1.5-0.4,1.5-0.6V13c0-0.3,0.2-0.5,0.5-0.5S20,12.7,20,13v6.4C20,20.6,18.3,21,17.5,21z"/>
	</g>
	<g id="XMLID_2901_">
		<path id="XMLID_9_" class="st3" d="M16,2H6C5.7,2,5.5,1.8,5.5,1.5S5.7,1,6,1h10c0.3,0,0.5,0.2,0.5,0.5S16.3,2,16,2z"/>
	</g>
</g>
</svg>
