<?xml version="1.0" encoding="utf-8"?>
<!-- Generator: Adobe Illustrator 19.0.0, SVG Export Plug-In . SVG Version: 6.00 Build 0)  -->
<svg version="1.1" id="图层_1" xmlns="http://www.w3.org/2000/svg" xmlns:xlink="http://www.w3.org/1999/xlink" x="0px" y="0px"
	 viewBox="0 0 28 28" style="enable-background:new 0 0 28 28;" xml:space="preserve">
<style type="text/css">
	.st0{fill:#62727B;}
</style>
<g id="XMLID_2514_">
	<g id="XMLID_2523_">
		<path id="XMLID_2524_" class="st0" d="M27.5,26.7H0.4c-0.2,0-0.4-0.2-0.4-0.4v-9.1c0-0.2,0.2-0.4,0.4-0.4s0.4,0.2,0.4,0.4v8.7
			h26.3v-6.4c0-0.2,0.2-0.4,0.4-0.4c0.2,0,0.4,0.2,0.4,0.4v6.9C28,26.5,27.8,26.7,27.5,26.7z"/>
	</g>
	<g id="XMLID_2521_">
		<path id="XMLID_2522_" class="st0" d="M27.5,20.8c-0.2,0-0.4-0.2-0.4-0.4V8.2H0.8v9.3c0,0.2-0.2,0.4-0.4,0.4S0,17.8,0,17.5V7.8
			c0-0.2,0.2-0.4,0.4-0.4h27.1c0.2,0,0.4,0.2,0.4,0.4v12.6C28,20.6,27.8,20.8,27.5,20.8z"/>
	</g>
	<g id="XMLID_2519_">
		<circle id="XMLID_2520_" class="st0" cx="14.2" cy="1.7" r="1.5"/>
	</g>
	<g id="XMLID_2517_">
		<path id="XMLID_2518_" class="st0" d="M7.6,7.6c-0.1,0-0.2,0-0.3-0.1C7.2,7.4,7.2,7.1,7.3,7l5.2-5.6c0.2-0.2,0.4-0.2,0.6,0
			c0.2,0.2,0.2,0.4,0,0.6L7.9,7.5C7.8,7.6,7.7,7.6,7.6,7.6z"/>
	</g>
	<g id="XMLID_2515_">
		<path id="XMLID_2516_" class="st0" d="M20.8,7.6c-0.1,0-0.2,0-0.3-0.1l-5.1-5.6c-0.2-0.2-0.1-0.4,0-0.6c0.2-0.2,0.4-0.1,0.6,0
			L21.1,7c0.2,0.2,0.1,0.4,0,0.6C21,7.6,20.9,7.6,20.8,7.6z"/>
	</g>
</g>
<g id="XMLID_2507_">
	<g id="XMLID_2512_">
		<circle id="XMLID_2513_" class="st0" cx="6.5" cy="17.2" r="1.4"/>
	</g>
	<g id="XMLID_2510_">
		<circle id="XMLID_2511_" class="st0" cx="13.9" cy="17.2" r="1.4"/>
	</g>
	<g id="XMLID_2508_">
		<circle id="XMLID_2509_" class="st0" cx="21.3" cy="17.2" r="1.4"/>
	</g>
</g>
</svg>
