<?xml version="1.0" encoding="utf-8"?>
<!-- Generator: Adobe Illustrator 19.0.0, SVG Export Plug-In . SVG Version: 6.00 Build 0)  -->
<svg version="1.1" id="图层_1" xmlns="http://www.w3.org/2000/svg" xmlns:xlink="http://www.w3.org/1999/xlink" x="0px" y="0px"
	 viewBox="0 0 34 34" style="enable-background:new 0 0 34 34;" xml:space="preserve">
<style type="text/css">
	.st0{fill:none;stroke:#282828;stroke-width:2;stroke-linecap:round;stroke-linejoin:round;stroke-miterlimit:10;}
	.st1{fill:#5EA2D9;}
</style>
<g id="XMLID_1_">
	
		<rect id="XMLID_17_" x="449.1" y="598.8" transform="matrix(0.7071 -0.7071 0.7071 0.7071 -294.0082 498.0201)" class="st0" width="10.2" height="10.2"/>
	<rect id="XMLID_16_" x="465" y="599" class="st0" width="11" height="10"/>
	<rect id="XMLID_15_" x="449" y="615" class="st0" width="10" height="10"/>
	<rect id="XMLID_14_" x="465" y="615" class="st0" width="11" height="10"/>
</g>
<g id="XMLID_523_">
	<g id="XMLID_524_">
		<path id="XMLID_4_" class="st1" d="M16.9,33.3C7.9,33.3,0.6,26,0.6,17c0-9,7.3-16.3,16.3-16.3S33.3,8,33.3,17
			C33.3,26,25.9,33.3,16.9,33.3z M16.9,1.6C8.4,1.6,1.6,8.5,1.6,17s6.9,15.3,15.3,15.3c8.5,0,15.3-6.9,15.3-15.3S25.4,1.6,16.9,1.6z
			"/>
	</g>
	<g id="XMLID_525_">
		<polygon id="XMLID_3_" class="st1" points="16.3,25.3 6.6,17.8 7.2,17 16.2,24 30.2,8.8 30.9,9.4 		"/>
	</g>
</g>
</svg>
