<?xml version="1.0" encoding="utf-8"?>
<!-- Generator: Adobe Illustrator 19.0.0, SVG Export Plug-In . SVG Version: 6.00 Build 0)  -->
<svg version="1.1" id="图层_1" xmlns="http://www.w3.org/2000/svg" xmlns:xlink="http://www.w3.org/1999/xlink" x="0px" y="0px"
	 viewBox="0 0 48 48" style="enable-background:new 0 0 48 48;" xml:space="preserve">
<style type="text/css">
	.st0{display:none;}
	.st1{display:inline;}
	.st2{fill:#272728;}
	.st3{fill:none;stroke:#272728;stroke-width:2;stroke-linecap:round;stroke-linejoin:round;stroke-miterlimit:10;}
	.st4{fill:#F1BE1C;}
	.st5{display:inline;fill:#F1BE1C;}
	.st6{fill:#FFFFFF;}
	.st7{fill:#282828;}
</style>
<g id="XMLID_137_" class="st0">
	<g id="XMLID_149_" class="st1">
		<g id="XMLID_366_">
			<path id="XMLID_6_" class="st2" d="M18,45.4H7.6c-1.5,0-2.8-1.3-2.8-2.8V31.4c0-0.6,0.4-1,1-1s1,0.4,1,1v11.1
				c0,0.4,0.4,0.8,0.8,0.8H18c0.6,0,1,0.4,1,1S18.5,45.4,18,45.4z"/>
		</g>
		<g id="XMLID_150_">
			<path id="XMLID_5_" class="st2" d="M5.8,20.4c-0.6,0-1-0.4-1-1V9c0-1.5,1.3-2.8,2.8-2.8h10.3c0.6,0,1,0.4,1,1s-0.4,1-1,1H7.6
				C7.2,8.2,6.8,8.5,6.8,9v10.5C6.8,20,6.4,20.4,5.8,20.4z"/>
		</g>
	</g>
	<g id="XMLID_143_" class="st1">
		<g id="XMLID_145_">
			<path id="XMLID_4_" class="st2" d="M41.2,45.4H30.8c-0.6,0-1-0.4-1-1s0.4-1,1-1h10.4c0.4,0,0.8-0.4,0.8-0.8V31.4c0-0.6,0.4-1,1-1
				s1,0.4,1,1v11.1C43.9,44.1,42.7,45.4,41.2,45.4z"/>
		</g>
		<g id="XMLID_144_">
			<path id="XMLID_7_" class="st2" d="M42.9,20.4c-0.6,0-1-0.4-1-1V9c0-0.4-0.4-0.8-0.8-0.8H30.8c-0.6,0-1-0.4-1-1s0.4-1,1-1h10.3
				c1.5,0,2.8,1.3,2.8,2.8v10.5C43.9,20,43.5,20.4,42.9,20.4z"/>
		</g>
	</g>
	<g id="XMLID_141_" class="st1">
		<path id="XMLID_3_" class="st2" d="M45,26H5c-0.6,0-1-0.4-1-1s0.4-1,1-1h40c0.6,0,1,0.4,1,1S45.6,26,45,26z"/>
	</g>
</g>
<g id="XMLID_385_" class="st0">
	<g id="XMLID_407_" class="st1">
		<path id="XMLID_16_" class="st2" d="M10.7,43.1l2.6-4.3c-5.7-2.9-9.1-7.9-9.1-13.3c0-8.8,9.1-15.9,20.3-15.9
			c11.2,0,20.3,7.1,20.3,15.9s-9.1,15.9-20.3,15.9c-0.7,0-1.5,0-2.4-0.1L10.7,43.1z M24.5,11.6c-10.1,0-18.3,6.2-18.3,13.9
			c0,4.9,3.4,9.4,9,11.9l1,0.5l-1.5,2.5l7.4-1.2l0.1,0c0.9,0.1,1.7,0.1,2.4,0.1c10.1,0,18.3-6.2,18.3-13.9
			C42.9,17.8,34.7,11.6,24.5,11.6z"/>
	</g>
	<g id="XMLID_395_" class="st1">
		<path id="XMLID_13_" class="st2" d="M13,28.2c-1.6,0-2.8-1.3-2.8-2.8s1.3-2.8,2.8-2.8s2.8,1.3,2.8,2.8S14.6,28.2,13,28.2z
			 M13,24.6c-0.4,0-0.8,0.4-0.8,0.8c0,0.4,0.4,0.8,0.8,0.8s0.8-0.4,0.8-0.8C13.8,25,13.5,24.6,13,24.6z"/>
	</g>
	<g id="XMLID_394_" class="st1">
		<path id="XMLID_10_" class="st2" d="M25,28.2c-1.6,0-2.8-1.3-2.8-2.8s1.3-2.8,2.8-2.8c1.6,0,2.8,1.3,2.8,2.8S26.6,28.2,25,28.2z
			 M25,24.6c-0.4,0-0.8,0.4-0.8,0.8c0,0.4,0.4,0.8,0.8,0.8c0.4,0,0.8-0.4,0.8-0.8C25.8,25,25.5,24.6,25,24.6z"/>
	</g>
	<g id="XMLID_386_" class="st1">
		<path id="XMLID_8_" class="st2" d="M37,28.2c-1.6,0-2.8-1.3-2.8-2.8s1.3-2.8,2.8-2.8s2.8,1.3,2.8,2.8S38.6,28.2,37,28.2z M37,24.6
			c-0.4,0-0.8,0.4-0.8,0.8c0,0.4,0.4,0.8,0.8,0.8s0.8-0.4,0.8-0.8C37.8,25,37.5,24.6,37,24.6z"/>
	</g>
</g>
<g id="XMLID_455_" class="st0">
	<g id="XMLID_458_" class="st1">
		<path id="XMLID_49_" class="st2" d="M42.5,27.2c-0.3,0-0.5-0.1-0.7-0.3L25.4,10.3L8.9,26.9c-0.4,0.4-1,0.4-1.4,0
			c-0.4-0.4-0.4-1,0-1.4L24.7,8.2C24.9,8,25.2,8,25.4,8c0,0,0,0,0,0c0.3,0,0.5,0,0.7,0.2l17.1,17.2c0.4,0.4,0.4,1,0,1.4
			C43,27.1,42.7,27.2,42.5,27.2z"/>
	</g>
	<g id="XMLID_457_" class="st1">
		<path id="XMLID_48_" class="st2" d="M35,40.8H15.7c-1.7,0-3-1.3-3-3V25.2c0-0.6,0.4-1,1-1s1,0.4,1,1v12.7c0,0.6,0.4,1,1,1H35
			c0.6,0,1-0.4,1-1V25.2c0-0.6,0.4-1,1-1s1,0.4,1,1v12.7C38,39.5,36.7,40.8,35,40.8z"/>
	</g>
	<g id="XMLID_456_" class="st1">
		<path id="XMLID_45_" class="st2" d="M28,40.1h-5.4c-0.4,0-0.8-0.3-0.8-0.8v-6.5c0-0.4,0.3-0.8,0.8-0.8H28c0.4,0,0.8,0.3,0.8,0.8
			v6.5C28.8,39.7,28.4,40.1,28,40.1z M23.4,38.6h3.9v-5h-3.9V38.6z"/>
	</g>
</g>
<g id="XMLID_554_" class="st0">
	<g id="XMLID_467_" class="st1">
		<g id="XMLID_468_">
			<path id="XMLID_57_" class="st2" d="M28.8,40.4c-5.2,0-9.3-4.2-9.3-9.3s4.2-9.3,9.3-9.3s9.3,4.2,9.3,9.3S34,40.4,28.8,40.4z
				 M28.8,23.7c-4,0-7.3,3.3-7.3,7.3s3.3,7.3,7.3,7.3c4,0,7.3-3.3,7.3-7.3S32.9,23.7,28.8,23.7z"/>
		</g>
	</g>
	<g id="XMLID_465_" class="st1">
		<g id="XMLID_466_">
			<path id="XMLID_52_" class="st2" d="M21,42.3h-9.1c-1.8,0-3.3-1.5-3.3-3.3V17.5c0-0.6,0.4-1,1-1h29.8c0.6,0,1,0.4,1,1v6.7
				c0,0.6-0.4,1-1,1s-1-0.4-1-1v-5.7H10.6V39c0,0.7,0.6,1.3,1.3,1.3H21c0.6,0,1,0.4,1,1S21.5,42.3,21,42.3z"/>
		</g>
	</g>
	<g id="XMLID_462_" class="st1">
		<g id="XMLID_463_">
			<path id="XMLID_53_" class="st2" d="M39.5,18.6H9.6c-0.4,0-0.8-0.2-0.9-0.6c-0.2-0.4-0.1-0.8,0.2-1.1l6.4-7.1
				c0.2-0.2,0.5-0.3,0.7-0.3h17.1c0.3,0,0.6,0.1,0.7,0.3l6.4,7.1c0.3,0.3,0.3,0.7,0.2,1.1C40.2,18.3,39.9,18.6,39.5,18.6z
				 M11.9,16.6h25.4l-4.6-5.1H16.4L11.9,16.6z"/>
		</g>
	</g>
	<g id="XMLID_459_" class="st1">
		<g id="XMLID_460_">
			<path id="XMLID_51_" class="st2" d="M13,26.4c-0.1,0-0.3,0-0.4-0.1c-0.4-0.2-0.6-0.5-0.6-0.9V18c0-0.6,0.4-1,1-1s1,0.4,1,1v5.2
				l1.4-1.2c0.4-0.3,0.9-0.3,1.3,0l1.3,1.1V18c0-0.6,0.4-1,1-1s1,0.4,1,1v7.3c0,0.4-0.2,0.7-0.6,0.9c-0.4,0.2-0.8,0.1-1.1-0.1
				l-2.3-2l-2.4,2C13.5,26.3,13.2,26.4,13,26.4z"/>
		</g>
	</g>
	<g id="XMLID_521_" class="st1">
		<g id="XMLID_524_">
			<path id="XMLID_185_" class="st3" d="M38.7,42"/>
		</g>
		<g id="XMLID_523_">
			<path id="XMLID_50_" class="st2" d="M38.7,42.2c-0.2,0-0.5-0.1-0.7-0.3l-3.8-3.5c-0.4-0.4-0.4-1-0.1-1.4c0.4-0.4,1-0.4,1.4-0.1
				l3.8,3.5c0.4,0.4,0.4,1,0.1,1.4C39.2,42.1,39,42.2,38.7,42.2z"/>
		</g>
		<g id="XMLID_522_">
			<path id="XMLID_181_" class="st3" d="M34.1,37.7"/>
		</g>
	</g>
</g>
<g id="XMLID_555_" class="st0">
	<g id="XMLID_518_" class="st1">
		<path id="XMLID_65_" class="st2" d="M36,26H15c-0.6,0-1-0.4-1-1s0.4-1,1-1h21c0.6,0,1,0.4,1,1S36.6,26,36,26z"/>
	</g>
	<g id="XMLID_517_" class="st1">
		<path id="XMLID_64_" class="st2" d="M36,32H15c-0.6,0-1-0.4-1-1s0.4-1,1-1h21c0.6,0,1,0.4,1,1S36.6,32,36,32z"/>
	</g>
	<g id="XMLID_516_" class="st1">
		<path id="XMLID_63_" class="st2" d="M36,38H15c-0.6,0-1-0.4-1-1s0.4-1,1-1h21c0.6,0,1,0.4,1,1S36.6,38,36,38z"/>
	</g>
	<g id="XMLID_515_" class="st1">
		<path id="XMLID_62_" class="st2" d="M39.8,18.6c-0.2,0-0.5-0.1-0.6-0.3L35.8,13c-0.2-0.3-0.1-0.8,0.2-1c0.4-0.2,0.8-0.1,1,0.2
			l3.3,5.3c0.2,0.3,0.1,0.8-0.2,1C40,18.6,39.9,18.6,39.8,18.6z"/>
	</g>
	<g id="XMLID_500_" class="st1">
		<path id="XMLID_56_" class="st2" d="M38.9,43H11.8C10.2,43,9,41.7,9,40V13c0-1.7,1.2-3,2.8-3H34c0.6,0,1,0.4,1,1v9h6
			c0.6,0,1,0.4,1,1v19C42,41.7,40.6,43,38.9,43z M11.8,12c-0.7,0-0.8,0.7-0.8,1v27c0,0.3,0.1,1,0.8,1h27.2c0.6,0,1.1-0.4,1.1-1V22
			h-6c-0.6,0-1-0.4-1-1v-9H11.8z"/>
	</g>
</g>
<g id="XMLID_501_" class="st0">
	<g id="XMLID_503_" class="st1">
		<g id="XMLID_513_">
			<path id="XMLID_71_" class="st2" d="M28.4,28.6c-5,0-9.1-4.1-9.1-9.2s4.1-9.2,9.1-9.2c5,0,9.1,4.1,9.1,9.2S33.4,28.6,28.4,28.6z
				 M28.4,12.2c-3.9,0-7.1,3.2-7.1,7.2s3.2,7.2,7.1,7.2c3.9,0,7.1-3.2,7.1-7.2S32.3,12.2,28.4,12.2z"/>
		</g>
		<g id="XMLID_512_">
			<path id="XMLID_69_" class="st2" d="M16,41.6c-0.6,0-1-0.4-1-1c0-7.7,6.2-14.1,13.9-14.1c0.6,0,1,0.4,1,1s-0.4,1-1,1
				C22.4,28.6,17,34,17,40.6C17,41.2,16.6,41.6,16,41.6z"/>
		</g>
		<g id="XMLID_511_">
			<path id="XMLID_68_" class="st2" d="M41.8,41.6c-0.6,0-1-0.4-1-1c0-4.2-2.3-8.1-5.9-10.2c-0.5-0.3-0.6-0.9-0.4-1.4
				c0.3-0.5,0.9-0.6,1.4-0.4c4.2,2.5,6.9,7.1,6.9,12C42.8,41.2,42.3,41.6,41.8,41.6z"/>
		</g>
		<g id="XMLID_505_">
			<g id="XMLID_507_">
				<path id="XMLID_67_" class="st2" d="M19.5,28.4c-0.1,0-0.1,0-0.2,0c-4.3-0.8-7.4-4.6-7.4-9c0-5.1,4.1-9.2,9.1-9.2
					c0.6,0,1,0.4,1,1s-0.4,1-1,1c-3.9,0-7.1,3.2-7.1,7.2c0,3.5,2.4,6.4,5.8,7.1c0.5,0.1,0.9,0.6,0.8,1.2
					C20.4,28.1,20,28.4,19.5,28.4z"/>
			</g>
			<g id="XMLID_506_">
				<path id="XMLID_66_" class="st2" d="M8.6,41.6c-0.6,0-1-0.4-1-1c0-6.9,5.1-13.1,11.6-14.2c0.5-0.1,1.1,0.3,1.1,0.8
					c0.1,0.5-0.3,1.1-0.8,1.1c-5.6,0.9-9.9,6.3-9.9,12.2C9.6,41.2,9.1,41.6,8.6,41.6z"/>
			</g>
		</g>
	</g>
	<g id="XMLID_502_" class="st1">
		<path id="XMLID_148_" class="st3" d="M19.5,27.9"/>
	</g>
</g>
<g id="XMLID_99_" class="st0">
	<g id="XMLID_960_" class="st1">
		<polygon id="XMLID_1015_" class="st4" points="24.4,11 39.4,26 41.5,26 24.4,8.7 7.2,26 9.5,26 		"/>
		<polygon id="XMLID_1016_" class="st4" points="38,26.2 24.4,12.6 10.9,26.2 		"/>
	</g>
	<path id="XMLID_98_" class="st5" d="M13,25v12.8c0,1.1,0.6,2.2,1.7,2.2H22v-7h5v7h7c1.1,0,2-1.1,2-2.2V25H13z"/>
</g>
<g id="XMLID_100_" class="st0">
	<g id="XMLID_982_" class="st1">
		<path id="XMLID_983_" class="st4" d="M21,40.3h-9.1c-1.3,0-2.3-1-2.3-2.3V17.5h29.8v20.8c0,1.1-0.9,2-2,2H21z"/>
	</g>
	<g id="XMLID_979_" class="st1">
		<path id="XMLID_980_" class="st4" d="M39.5,16.6H9.6L16,9.5h17.1L39.5,16.6z"/>
	</g>
	<g id="XMLID_977_" class="st1">
		<polyline id="XMLID_978_" class="st6" points="19,17 19,24.3 16,21.8 13,24.4 13,17 		"/>
	</g>
	<g id="XMLID_988_" class="st1">
		<path id="XMLID_989_" class="st6" d="M28.8,38.4c-4.6,0-8.3-3.7-8.3-8.3s3.7-8.3,8.3-8.3s8.3,3.7,8.3,8.3S33.4,38.4,28.8,38.4z"/>
	</g>
	<g id="XMLID_984_" class="st1">
		<g id="XMLID_987_">
			<path id="XMLID_381_" class="st6" d="M38.5,40.1"/>
		</g>
		<g id="XMLID_986_">
			<path id="XMLID_374_" class="st6" d="M38.4,40.3c-0.2,0-0.5-0.1-0.7-0.3L34,36.5c-0.4-0.4-0.4-1-0.1-1.4c0.4-0.4,1-0.4,1.4-0.1
				l3.8,3.5c0.4,0.4,0.4,1,0.1,1.4C39,40.2,38.7,40.3,38.4,40.3z"/>
		</g>
		<g id="XMLID_985_">
			<path id="XMLID_377_" class="st6" d="M33.9,35.8"/>
		</g>
	</g>
</g>
<g id="XMLID_101_" class="st0">
	<path id="XMLID_954_" class="st5" d="M34,21V11H11.8c-1.1,0-1.8,0.9-1.8,2v27c0,1.1,0.7,2,1.8,2h27.2c1.1,0,2.1-0.9,2.1-2V21H34z"
		/>
	<g id="XMLID_958_" class="st1">
		<path id="XMLID_382_" class="st6" d="M35.7,26h-21c-0.6,0-1-0.4-1-1s0.4-1,1-1h21c0.6,0,1,0.4,1,1S36.3,26,35.7,26z"/>
	</g>
	<g id="XMLID_957_" class="st1">
		<path id="XMLID_379_" class="st6" d="M35.7,32h-21c-0.6,0-1-0.4-1-1s0.4-1,1-1h21c0.6,0,1,0.4,1,1S36.3,32,35.7,32z"/>
	</g>
	<g id="XMLID_956_" class="st1">
		<path id="XMLID_378_" class="st6" d="M35.7,38h-21c-0.6,0-1-0.4-1-1s0.4-1,1-1h21c0.6,0,1,0.4,1,1S36.3,38,35.7,38z"/>
	</g>
	<g id="XMLID_955_" class="st1">
		<path id="XMLID_383_" class="st4" d="M39.8,18.6c-0.2,0-0.5-0.1-0.6-0.3L35.8,13c-0.2-0.3-0.1-0.8,0.2-1c0.3-0.2,0.8-0.1,1,0.2
			l3.3,5.3c0.2,0.3,0.1,0.8-0.2,1C40,18.6,39.9,18.6,39.8,18.6z"/>
	</g>
</g>
<g id="XMLID_31_">
	<g id="XMLID_576_">
		<path id="XMLID_37_" class="st7" d="M37,37H14.6c-0.5,0-0.9-0.4-1-0.8L9.5,9H3C2.4,9,2,8.6,2,8s0.4-1,1-1h7.4c0.5,0,0.9,0.4,1,0.9
			L15.5,35H37c0.6,0,1,0.4,1,1S37.6,37,37,37z"/>
	</g>
	<g id="XMLID_34_">
		<path id="XMLID_36_" class="st7" d="M37,33H15c-0.6,0-1-0.4-1-1s0.4-1,1-1h21.2l4.1-16.2L17.4,15c0,0,0,0,0,0c-0.6,0-1-0.6-1-1.2
			c0-0.6,0.4-0.9,1-0.9L41.6,13c0,0,0,0,0,0c0.3,0,0.6-0.1,0.8,0.2c0.2,0.2,0.3,0.5,0.2,0.8L38,32.3C37.9,32.7,37.5,33,37,33z"/>
	</g>
	<g id="XMLID_33_">
		<circle class="st7" cx="17.4" cy="42.5" r="2.2"/>
	</g>
	<g id="XMLID_32_">
		<circle class="st7" cx="33.4" cy="42.5" r="2.2"/>
	</g>
</g>
</svg>
