<?xml version="1.0" encoding="utf-8"?>
<!-- Generator: Adobe Illustrator 19.0.0, SVG Export Plug-In . SVG Version: 6.00 Build 0)  -->
<svg version="1.1" id="图层_1" xmlns="http://www.w3.org/2000/svg" xmlns:xlink="http://www.w3.org/1999/xlink" x="0px" y="0px"
	 viewBox="0 0 30 30" style="enable-background:new 0 0 30 30;" xml:space="preserve">
<style type="text/css">
	.st0{fill:#62727B;}
</style>
<g id="XMLID_1702_">
	<g id="XMLID_2756_">
		<path id="XMLID_2771_" class="st0" d="M24.9,4.5c-0.4-1-1.2-1.3-2.2-1.3l-8-0.2H6.8c-1,0-1.7,0.2-2.2,1.3c0,0-4.4,7.5-4.4,8.1
			c0,1.3,1.3,2.4,3,2.4c1.5,0,2.7-0.9,2.9-2c0.2,1.2,1.4,2.1,2.9,2.1s2.7-0.8,2.9-2c0.2,1.1,1.3,2.1,2.6,2.1h0.1
			c1.3,0,2.4-1,2.6-2.1c0.2,1.2,1.4,2,2.9,2s2.7-0.9,2.9-2.1c0.2,1.2,1.4,2,2.9,2c1.6,0,3-1.1,3-2.4C29,11.9,24.9,4.5,24.9,4.5z"/>
	</g>
	<g id="XMLID_2755_">
		<path id="XMLID_2740_" class="st0" d="M18.5,28.5c-0.3,0-0.5-0.2-0.5-0.5v-9.9c0,0-0.2-0.1-0.5-0.1h-5.6c-0.3,0-0.9,0-0.9,0.1V28
			c0,0.3-0.2,0.5-0.5,0.5S10,28.3,10,28V17.9c0-0.6,0.9-0.9,1.9-0.9h5.6c0.5,0,1.5,0.1,1.5,0.9V28C19,28.3,18.8,28.5,18.5,28.5z"/>
	</g>
	<g id="XMLID_2754_">
		<path id="XMLID_2495_" class="st0" d="M23.6,29H5.2C4,29,3,28,3,26.5V17c0-0.3,0.2-0.5,0.5-0.5S4,16.7,4,17v9.5
			C4,26.8,4.3,28,5.2,28h18.4c0.8,0,1.4-0.8,1.4-1.5V17c0-0.3,0.2-0.5,0.5-0.5S26,16.7,26,17v9.5C26,27.8,25,29,23.6,29z"/>
	</g>
	<g id="XMLID_2753_">
		<path id="XMLID_1722_" class="st0" d="M22.3,2h-16C6,2,5.8,1.8,5.8,1.5S6,1,6.3,1h16c0.3,0,0.5,0.2,0.5,0.5S22.5,2,22.3,2z"/>
	</g>
</g>
</svg>
