<?xml version="1.0" encoding="utf-8"?>
<!-- Generator: Adobe Illustrator 19.0.0, SVG Export Plug-In . SVG Version: 6.00 Build 0)  -->
<svg version="1.1" id="图层_1" xmlns="http://www.w3.org/2000/svg" xmlns:xlink="http://www.w3.org/1999/xlink" x="0px" y="0px"
	 viewBox="0 0 24 24" style="enable-background:new 0 0 24 24;" xml:space="preserve">
<style type="text/css">
	.st0{fill:#62727B;}
</style>
<g id="XMLID_2560_">
	<g id="XMLID_2566_">
		<path id="XMLID_2571_" class="st0" d="M21.3,11h-19c-0.2,0-0.4-0.1-0.5-0.3c-0.1-0.2-0.1-0.4,0.1-0.5l4.3-5.3
			c0.2-0.2,0.5-0.2,0.7-0.1C7.1,5,7.1,5.3,7,5.5L3.3,10h17.9c0.3,0,0.5,0.2,0.5,0.5S21.5,11,21.3,11z"/>
	</g>
	<g id="XMLID_2565_">
		<path id="XMLID_2570_" class="st0" d="M16.8,20.3c-0.1,0-0.2,0-0.3-0.1c-0.2-0.2-0.3-0.5-0.1-0.7L20,15H2.3
			c-0.3,0-0.5-0.2-0.5-0.5S2,14,2.3,14H21c0.2,0,0.4,0.1,0.5,0.3c0.1,0.2,0.1,0.4-0.1,0.5l-4.2,5.3C17.1,20.2,16.9,20.3,16.8,20.3z"
			/>
	</g>
</g>
</svg>
