<?xml version="1.0" encoding="utf-8"?>
<!-- Generator: Adobe Illustrator 16.0.0, SVG Export Plug-In . SVG Version: 6.00 Build 0)  -->
<!DOCTYPE svg PUBLIC "-//W3C//DTD SVG 1.1//EN" "http://www.w3.org/Graphics/SVG/1.1/DTD/svg11.dtd">
<svg version="1.1" id="图层_1" xmlns="http://www.w3.org/2000/svg" xmlns:xlink="http://www.w3.org/1999/xlink" x="0px" y="0px"
	 width="595.28px" height="841.89px" viewBox="0 0 595.28 841.89" enable-background="new 0 0 595.28 841.89" xml:space="preserve">
<g>
	<g>
		<path fill-rule="evenodd" clip-rule="evenodd" fill="#191919" d="M655.318,740.947H-60V223.628h715.318V740.947L655.318,740.947z
			 M-29.561,710.531h654.439V254.049H-29.561V710.531L-29.561,710.531z"/>
		<path fill-rule="evenodd" clip-rule="evenodd" fill="#191919" d="M415.818,482.273h-8.025c-39.752,0-72.084-32.316-72.084-72.071
			v-7.991c0-39.737,32.332-72.082,72.084-72.082h8.025c39.744,0,72.086,32.345,72.086,72.082v7.991
			C487.904,449.957,455.563,482.273,415.818,482.273L415.818,482.273z M407.793,360.561c-22.965,0-41.646,18.678-41.646,41.65v7.991
			c0,22.985,18.682,41.668,41.646,41.668h8.025c22.963,0,41.645-18.684,41.645-41.668v-7.991c0-22.972-18.682-41.65-41.645-41.65
			H407.793L407.793,360.561z"/>
		<polygon fill-rule="evenodd" clip-rule="evenodd" fill="#191919" points="-35.825,661.884 -57.539,640.576 163.007,416.048 
			184.725,437.367 -35.825,661.884 		"/>
		<polygon fill-rule="evenodd" clip-rule="evenodd" fill="#191919" points="373.756,634.447 159.436,420.187 180.956,398.67 
			395.281,612.941 373.756,634.447 		"/>
		<polygon fill-rule="evenodd" clip-rule="evenodd" fill="#191919" points="386.779,647.46 365.018,626.181 501.814,486.296 
			523.576,507.566 386.779,647.46 		"/>
		<polygon fill-rule="evenodd" clip-rule="evenodd" fill="#191919" points="631.539,628.904 496.121,492.298 517.734,470.859 
			653.146,607.494 631.539,628.904 		"/>
		<polygon fill-rule="evenodd" clip-rule="evenodd" fill="#191919" points="-29.561,193.196 -29.561,162.765 624.879,162.765 
			624.879,193.196 -29.561,193.196 		"/>
		<polygon fill-rule="evenodd" clip-rule="evenodd" fill="#191919" points="16.098,132.333 16.098,101.89 579.223,101.89 
			579.223,132.333 16.098,132.333 		"/>
	</g>
</g>
</svg>
