<?xml version="1.0" encoding="utf-8"?>
<!-- Generator: Adobe Illustrator 19.0.0, SVG Export Plug-In . SVG Version: 6.00 Build 0)  -->
<svg version="1.1" id="图层_1" xmlns="http://www.w3.org/2000/svg" xmlns:xlink="http://www.w3.org/1999/xlink" x="0px" y="0px"
	 viewBox="288.8 -243.3 380 380" style="enable-background:new 288.8 -243.3 380 380;" xml:space="preserve">
<style type="text/css">
	.st0{fill:#A9A9A9;}
	.st1{display:none;}
	.st2{display:inline;}
</style>
<g>
	<g>
		<path class="st0" d="M613.7-148.3H566l-24.9-39.5H416.5l-24.9,39.5h-47.8c-10.4,0-31.1,9.9-31.1,29.3V39.3
			c0,16.4,15.6,29.6,29,29.6h272.7c13.6,0,30.5-13.9,30.5-29.3v-158.3C644.9-128.5,634.5-148.3,613.7-148.3L613.7-148.3z
			 M624.1,39.6c0,3.9-6.6,9.3-9.7,9.6H341.7c-2.4-0.2-8.3-4.6-8.3-9.9V-119c0-6.3,8.8-9.4,10.4-9.6h47.8h11.8l6-9.6l18.9-29.9H530
			l18.5,29.9l5.7,9.6H566h47.7c7.3,0,10.3,9.1,10.4,9.9V39.6L624.1,39.6z"/>
		<path class="st0" d="M478.8-118.6c-40.1,0-72.7,30.9-72.7,69.1s32.5,69.1,72.7,69.1c40.1,0,72.7-30.9,72.7-69.1
			C551.5-87.7,518.9-118.6,478.8-118.6L478.8-118.6z M478.8-0.2c-28.6,0-51.9-22.1-51.9-49.4s23.3-49.4,51.9-49.4
			c28.6,0,51.9,22.1,51.9,49.4S507.4-0.2,478.8-0.2L478.8-0.2z"/>
	</g>
</g>
<g class="st1">
	<g class="st2">
		<path class="st0" d="M614.9,111.2H343.4c-15.4,0-28-12.6-28-28v-271.5c0-15.4,12.6-28,28-28h271.5c15.4,0,28,12.6,28,28V83.2
			C642.9,98.7,630.4,111.2,614.9,111.2z M343.4-197.6c-5.1,0-9.3,4.2-9.3,9.3V83.2c0,5.1,4.2,9.3,9.3,9.3h271.5
			c5.1,0,9.3-4.2,9.3-9.3v-271.5c0-5.1-4.2-9.3-9.3-9.3H343.4z"/>
	</g>
	<g class="st2">
		<path class="st0" d="M443.6,40c-0.1,0-0.2,0-0.4,0c-2.8-0.1-5.3-1.4-7-3.6l-78-100.5c-3.2-4.1-2.4-9.9,1.7-13.1
			c4.1-3.2,9.9-2.4,13.1,1.7l71.2,91.7L572-124.9c3.5-3.8,9.4-4.1,13.2-0.6c3.8,3.5,4.1,9.4,0.7,13.2L450.5,37
			C448.7,38.9,446.2,40,443.6,40z"/>
	</g>
</g>
</svg>
