<?xml version="1.0" encoding="utf-8"?>
<!-- Generator: Adobe Illustrator 19.0.0, SVG Export Plug-In . SVG Version: 6.00 Build 0)  -->
<svg version="1.1" id="图层_1" xmlns="http://www.w3.org/2000/svg" xmlns:xlink="http://www.w3.org/1999/xlink" x="0px" y="0px"
	 viewBox="0 0 48 48" style="enable-background:new 0 0 48 48;" xml:space="preserve">
<style type="text/css">
	.st0{fill:#282828;}
	.st1{display:none;}
	.st2{display:inline;}
</style>
<g id="XMLID_137_">
	<g id="XMLID_149_">
		<g id="XMLID_366_">
			<path id="XMLID_6_" class="st0" d="M17,43.4H6.6c-1.5,0-2.8-1.3-2.8-2.8V29.4c0-0.6,0.4-1,1-1s1,0.4,1,1v11.1
				c0,0.4,0.4,0.8,0.8,0.8H17c0.6,0,1,0.4,1,1S17.5,43.4,17,43.4z"/>
		</g>
		<g id="XMLID_150_">
			<path id="XMLID_5_" class="st0" d="M4.8,18.4c-0.6,0-1-0.4-1-1V7c0-1.5,1.3-2.8,2.8-2.8h10.3c0.6,0,1,0.4,1,1s-0.4,1-1,1H6.6
				C6.2,6.2,5.8,6.5,5.8,7v10.5C5.8,18,5.4,18.4,4.8,18.4z"/>
		</g>
	</g>
	<g id="XMLID_143_">
		<g id="XMLID_145_">
			<path id="XMLID_4_" class="st0" d="M40.2,43.4H29.8c-0.6,0-1-0.4-1-1s0.4-1,1-1h10.4c0.4,0,0.8-0.4,0.8-0.8V29.4c0-0.6,0.4-1,1-1
				s1,0.4,1,1v11.1C42.9,42.1,41.7,43.4,40.2,43.4z"/>
		</g>
		<g id="XMLID_144_">
			<path id="XMLID_3_" class="st0" d="M41.9,18.4c-0.6,0-1-0.4-1-1V7c0-0.4-0.4-0.8-0.8-0.8H29.8c-0.6,0-1-0.4-1-1s0.4-1,1-1h10.3
				c1.5,0,2.8,1.3,2.8,2.8v10.5C42.9,18,42.5,18.4,41.9,18.4z"/>
		</g>
	</g>
	<g id="XMLID_141_">
		<path id="XMLID_2_" class="st0" d="M44,24H4c-0.6,0-1-0.4-1-1s0.4-1,1-1h40c0.6,0,1,0.4,1,1S44.6,24,44,24z"/>
	</g>
</g>
<g id="XMLID_385_" class="st1">
	<g id="XMLID_407_" class="st2">
		<path id="XMLID_16_" class="st0" d="M9.7,41.1l2.6-4.3c-5.7-2.9-9.1-7.9-9.1-13.3c0-8.8,9.1-15.9,20.3-15.9
			c11.2,0,20.3,7.1,20.3,15.9s-9.1,15.9-20.3,15.9c-0.7,0-1.5,0-2.4-0.1L9.7,41.1z M23.5,9.6c-10.1,0-18.3,6.2-18.3,13.9
			c0,4.9,3.4,9.4,9,11.9l1,0.5l-1.5,2.5l7.4-1.2l0.1,0c0.9,0.1,1.7,0.1,2.4,0.1c10.1,0,18.3-6.2,18.3-13.9
			C41.9,15.8,33.7,9.6,23.5,9.6z"/>
	</g>
	<g id="XMLID_395_" class="st2">
		<path id="XMLID_13_" class="st0" d="M12,26.2c-1.6,0-2.8-1.3-2.8-2.8s1.3-2.8,2.8-2.8s2.8,1.3,2.8,2.8S13.6,26.2,12,26.2z
			 M12,22.6c-0.4,0-0.8,0.4-0.8,0.8c0,0.4,0.4,0.8,0.8,0.8s0.8-0.4,0.8-0.8C12.8,23,12.5,22.6,12,22.6z"/>
	</g>
	<g id="XMLID_394_" class="st2">
		<path id="XMLID_10_" class="st0" d="M24,26.2c-1.6,0-2.8-1.3-2.8-2.8s1.3-2.8,2.8-2.8c1.6,0,2.8,1.3,2.8,2.8S25.6,26.2,24,26.2z
			 M24,22.6c-0.4,0-0.8,0.4-0.8,0.8c0,0.4,0.4,0.8,0.8,0.8c0.4,0,0.8-0.4,0.8-0.8C24.8,23,24.5,22.6,24,22.6z"/>
	</g>
	<g id="XMLID_386_" class="st2">
		<path id="XMLID_7_" class="st0" d="M36,26.2c-1.6,0-2.8-1.3-2.8-2.8s1.3-2.8,2.8-2.8s2.8,1.3,2.8,2.8S37.6,26.2,36,26.2z M36,22.6
			c-0.4,0-0.8,0.4-0.8,0.8c0,0.4,0.4,0.8,0.8,0.8s0.8-0.4,0.8-0.8C36.8,23,36.5,22.6,36,22.6z"/>
	</g>
</g>
</svg>
