<?xml version="1.0" encoding="utf-8"?>
<!-- Generator: Adobe Illustrator 19.0.0, SVG Export Plug-In . SVG Version: 6.00 Build 0)  -->
<svg version="1.1" id="图层_1" xmlns="http://www.w3.org/2000/svg" xmlns:xlink="http://www.w3.org/1999/xlink" x="0px" y="0px"
	 viewBox="0 0 34 34" style="enable-background:new 0 0 34 34;" xml:space="preserve">
<style type="text/css">
	.st0{fill:#282828;}
	.st1{fill:none;stroke:#282828;stroke-width:0.508;stroke-linecap:round;stroke-linejoin:round;stroke-miterlimit:10;}
</style>
<g id="XMLID_1712_">
	<g id="XMLID_2874_">
		<path id="XMLID_9_" class="st0" d="M17,10H9c-0.6,0-1-0.4-1-1s0.4-1,1-1h8c0.6,0,1,0.4,1,1S17.6,10,17,10z"/>
	</g>
	<g id="XMLID_2904_">
		<path id="XMLID_8_" class="st0" d="M30.3,9c-0.3,0-0.7-0.2-0.8-0.5l-3.1-4.8c-0.3-0.5-0.2-1.1,0.3-1.4c0.5-0.3,1.1-0.2,1.4,0.3
			l3.1,4.8c0.3,0.5,0.2,1.1-0.3,1.4C30.7,9,30.5,9,30.3,9z"/>
	</g>
	<g id="XMLID_2903_">
		<path id="XMLID_5_" class="st0" d="M29.6,32H6.8C5.3,32,3,29.8,3,28.2V3.6c0-0.5,0.2-0.9,0.5-1.2C4.2,1.8,5.2,1.9,6.2,2
			c0.2,0,0.5,0,0.7,0H24c0.6,0,1,0.4,1,1v8h5c0.6,0,1,0.4,1,1v16.2c0,0.2,0,0.5,0.1,0.8c0.1,0.9,0.2,1.8-0.3,2.5
			C30.5,31.8,30,32,29.6,32z M5,3.9v24.3C5.1,28.7,6.3,30,6.8,30h22.3c0-0.2-0.1-0.5-0.1-0.7c0-0.4-0.1-0.7-0.1-1V13h-5
			c-0.6,0-1-0.4-1-1V4H6.8C6.6,4,6.3,4,6,4C5.7,3.9,5.3,3.9,5,3.9z"/>
	</g>
	<g id="XMLID_2900_">
		<path id="XMLID_4_" class="st0" d="M17.3,29c-4.6,0-8.4-3.8-8.4-8.5c0-4.7,3.8-8.5,8.4-8.5c4.3,0,7.9,3.3,8.4,7.6
			c0,0.3-0.2,0.6-0.6,0.7c-0.3,0-0.6-0.2-0.7-0.6c-0.4-3.7-3.5-6.5-7.2-6.5c-4,0-7.2,3.3-7.2,7.3c0,4,3.2,7.3,7.2,7.3
			c3.2,0,6.1-2.2,6.9-5.3c0.1-0.3,0.4-0.5,0.8-0.4c0.3,0.1,0.5,0.4,0.4,0.8C24.5,26.4,21.1,29,17.3,29z"/>
	</g>
	<g id="XMLID_2867_">
		<path id="XMLID_2_" class="st1" d="M17.5,21.2v0.5h3.2v0.2h-3.2v3.2h-0.2v-3.2h-3.2v-0.2h3.2v-0.5l-3.7-4.8l0.2-0.1l3.6,4.7
			l3.6-4.7l0.1,0.1L17.5,21.2z"/>
	</g>
</g>
</svg>
