<?xml version="1.0" encoding="utf-8"?>
<!-- Generator: Adobe Illustrator 16.0.0, SVG Export Plug-In . SVG Version: 6.00 Build 0)  -->
<!DOCTYPE svg PUBLIC "-//W3C//DTD SVG 1.1//EN" "http://www.w3.org/Graphics/SVG/1.1/DTD/svg11.dtd">
<svg version="1.1" id="图层_1" xmlns="http://www.w3.org/2000/svg" xmlns:xlink="http://www.w3.org/1999/xlink" x="0px" y="0px"
	 width="19.84px" height="22.68px" viewBox="0 0 19.84 22.68" enable-background="new 0 0 19.84 22.68" xml:space="preserve">
<g>
	<g>
		<path fill="#F1BE26" d="M18.893,2.91l-1.709,0c-0.029-0.003-0.057-0.009-0.088-0.009c-0.029,0-0.057,0.007-0.088,0.009
			l-5.882,0.002l0.002-1.052c0-0.522-0.436-0.945-0.958-0.945c-0.083,0-0.155,0.006-0.229,0.013C9.86,0.922,9.784,0.916,9.691,0.916
			c-0.521,0-0.945,0.423-0.945,0.945l0.005,1.054L3.014,2.918C2.946,2.9,2.876,2.887,2.796,2.887c-0.079,0-0.151,0.013-0.22,0.031
			l-1.69,0c-0.521,0-0.884,0.209-0.884,0.732c0,0.522,0.362,0.809,0.884,0.809l1.098,0L1.99,19.787
			c0.043,1.002,0.801,1.805,1.815,1.805h0.946V21.6l10.402-0.006v-0.002H16.1c1.043,0,1.787-0.844,1.789-1.887L17.881,4.451l1.012,0
			c0.521,0,0.945-0.286,0.945-0.809S19.414,2.91,18.893,2.91L18.893,2.91z M16.289,18.127c0.008,1.242-0.23,1.699-1.07,1.838
			L4.472,19.971c-0.525-0.111-0.78-0.381-0.885-0.959L3.579,4.458l12.71-0.006l0.008,15.513L16.289,18.127L16.289,18.127z
			 M7.559,6.079c-0.438,0-0.794,0.355-0.794,0.794v10.725c0,0.439,0.355,0.795,0.794,0.795s0.795-0.355,0.795-0.795V6.873
			C8.354,6.434,7.997,6.079,7.559,6.079L7.559,6.079z M12.325,6.079c-0.438,0-0.794,0.355-0.794,0.794v10.725
			c0,0.439,0.355,0.795,0.794,0.795c0.439,0,0.795-0.355,0.795-0.795V6.873C13.12,6.434,12.765,6.079,12.325,6.079L12.325,6.079z"/>
	</g>
</g>
</svg>
