<?xml version="1.0" encoding="utf-8"?>
<!-- Generator: Adobe Illustrator 19.0.0, SVG Export Plug-In . SVG Version: 6.00 Build 0)  -->
<svg version="1.1" id="图层_1" xmlns="http://www.w3.org/2000/svg" xmlns:xlink="http://www.w3.org/1999/xlink" x="0px" y="0px"
	 viewBox="0 0 22 22" style="enable-background:new 0 0 22 22;" xml:space="preserve">
<style type="text/css">
	.st0{display:none;}
	.st1{display:inline;}
	.st2{fill:#272828;}
	.st3{fill:#222222;}
	.st4{fill:#282828;}
</style>
<g id="XMLID_1_" class="st0">
	<g id="XMLID_2906_" class="st1">
		<path id="XMLID_12_" class="st2" d="M11.3,12c-0.8,0-1.4-0.4-1.9-0.9c-0.5,0.5-1.2,0.8-2,0.8c-0.8,0-1.6-0.3-2-0.8
			c-0.5,0.5-1.2,0.8-2,0.8c-1.4,0-2.5-1-2.5-2.1c0-0.2,0-0.6,3.1-5.8C4.3,3,5,3,5.8,3h5.5h5.6c0,0,0,0,0,0c0.6,0,1.5,0,2,1
			c2.9,5.2,2.9,5.6,2.9,5.8c0,1.2-1.1,2.1-2.5,2.1c-0.8,0-1.6-0.3-2-0.8c-0.5,0.5-1.2,0.9-2,0.9c-0.8,0-1.5-0.3-2-0.8
			C12.7,11.6,12.1,12,11.3,12z M9.4,9.5c0.2,0,0.5,0.2,0.5,0.4c0.1,0.5,0.6,1.1,1.3,1.1c0.8,0,1.3-0.5,1.4-1.1
			c0-0.2,0.2-0.4,0.5-0.4l0,0c0.2,0,0.5,0.2,0.5,0.4c0.1,0.6,0.8,1,1.5,1c0.8,0,1.4-0.4,1.5-1c0-0.2,0.2-0.4,0.5-0.4l0,0
			c0.2,0,0.5,0.2,0.5,0.4c0.1,0.6,0.8,1,1.5,1c0.8,0,1.5-0.5,1.5-1.1c-0.1-0.3-1.5-3-2.8-5.3c0,0,0,0,0,0c-0.2-0.3-0.4-0.4-1.1-0.4
			L11.3,4H5.8C5.1,4,5,4,4.8,4.4c-1.4,2.4-2.9,5-3,5.4c0,0.5,0.7,1.1,1.6,1.1c0.8,0,1.4-0.4,1.5-1c0-0.2,0.2-0.4,0.5-0.4l0,0
			c0.2,0,0.5,0.2,0.5,0.4c0.1,0.6,0.8,1,1.5,1c0.8,0,1.4-0.4,1.5-0.9C9,9.7,9.2,9.5,9.4,9.5z"/>
	</g>
	<g id="XMLID_2905_" class="st1">
		<path id="XMLID_11_" class="st2" d="M14.5,20.5c-0.3,0-0.5-0.2-0.5-0.5v-6.1c-0.1,0-0.2,0-0.3,0c-0.2,0-4.6,0-4.7,0V20
			c0,0.3-0.2,0.5-0.5,0.5S8,20.3,8,20v-6.5c0-0.2,0.1-0.4,0.2-0.5c0.3-0.2,0.6-0.1,0.9,0c0.1,0,4.3,0,4.4,0c0.6-0.1,1-0.2,1.3,0.1
			c0.1,0.1,0.2,0.3,0.2,0.4V20C15,20.3,14.8,20.5,14.5,20.5z"/>
	</g>
	<g id="XMLID_2902_" class="st1">
		<path id="XMLID_10_" class="st2" d="M17.5,21H4.7c-1,0-1.7-0.6-1.7-1.6V13c0-0.3,0.2-0.5,0.5-0.5S4,12.7,4,13v6.4
			C4,19.6,4,20,4.7,20h12.7c0.8,0,1.5-0.4,1.5-0.6V13c0-0.3,0.2-0.5,0.5-0.5S20,12.7,20,13v6.4C20,20.6,18.3,21,17.5,21z"/>
	</g>
	<g id="XMLID_2901_" class="st1">
		<path id="XMLID_9_" class="st2" d="M16,2H6C5.7,2,5.5,1.8,5.5,1.5S5.7,1,6,1h10c0.3,0,0.5,0.2,0.5,0.5S16.3,2,16,2z"/>
	</g>
</g>
<g id="XMLID_2_" class="st0">
	<g id="XMLID_2866_" class="st1">
		<g id="XMLID_2899_">
			<path id="XMLID_5_" class="st3" d="M10.9,21.4c-0.8,0-1.5-0.6-2.2-1.2c-2.1-1.9-5-5.3-5.1-5.4l-2.1-2.2c-1.1-1.4-1.3-2.9-1.3-4.3
				c0-3.1,3.1-5.4,5.9-5.4c2.1,0,3.9,1.2,4.7,3c0.8-1.8,2.6-3,4.7-3c2.8,0,5.9,2.3,5.9,5.4c0,1.3-0.2,2.9-1.3,4.3L18,14.9
				c0,0-2.9,2.9-5,5.3C12.2,21,11.6,21.4,10.9,21.4C10.9,21.4,10.9,21.4,10.9,21.4z M6,3.8c-2.3,0-4.9,1.9-4.9,4.4
				c0,1.2,0.1,2.5,1.1,3.7l2.1,2.2c0,0.1,3,3.5,5,5.3c0.7,0.6,1.2,1,1.6,1c0.4,0,0.8-0.3,1.3-0.9c2.2-2.4,5-5.3,5.1-5.3l2.1-2.3
				c0.9-1.1,1-2.4,1-3.7c0-2.5-2.6-4.4-4.9-4.4c-2.3,0-4.1,1.6-4.2,4C11.3,8,11.1,8,10.8,8c0,0,0,0,0,0c-0.3,0-0.5,0-0.5-0.2
				C10.2,5.4,8.4,3.8,6,3.8z"/>
		</g>
	</g>
	<g id="XMLID_2865_" class="st1">
		<path id="XMLID_4_" class="st3" d="M2.9,7.9c-0.1,0-0.1,0-0.2,0C2.4,7.8,2.3,7.5,2.4,7.2C2.8,6.1,4.2,4.1,7,4.7
			C7.2,4.7,7.4,5,7.4,5.2C7.3,5.5,7.1,5.7,6.8,5.6C4.2,5.2,3.4,7.5,3.3,7.5C3.3,7.8,3.1,7.9,2.9,7.9z"/>
	</g>
</g>
<g id="XMLID_770_">
	<g id="XMLID_771_">
		<path id="XMLID_17_" class="st4" d="M11.1,16.1c-5.5,0-10.5-4.4-10.5-6.1c0-1.5,4.7-6,10.5-6c5.8,0,10.5,4.8,10.5,6
			C21.6,11.4,16.8,16.1,11.1,16.1z M11.1,4.9c-5.3,0-9.4,4.2-9.5,5c0,0.8,4.1,5.1,9.5,5.1c5.2,0,9.3-4.2,9.5-5.1
			C20.4,9.1,16.2,4.9,11.1,4.9z"/>
	</g>
	<g id="XMLID_772_">
		<path id="XMLID_8_" class="st4" d="M11.3,13.8c-2.1,0-3.9-1.7-3.9-3.9S9.1,6,11.3,6s3.9,1.7,3.9,3.9S13.4,13.8,11.3,13.8z M11.3,7
			C9.7,7,8.4,8.3,8.4,9.9s1.3,2.9,2.9,2.9c1.6,0,2.9-1.3,2.9-2.9S12.9,7,11.3,7z"/>
	</g>
</g>
</svg>
