<?xml version="1.0" encoding="utf-8"?>
<!-- Generator: Adobe Illustrator 19.0.0, SVG Export Plug-In . SVG Version: 6.00 Build 0)  -->
<svg version="1.1" id="图层_1" xmlns="http://www.w3.org/2000/svg" xmlns:xlink="http://www.w3.org/1999/xlink" x="0px" y="0px"
	 viewBox="0 0 24 24" style="enable-background:new 0 0 24 24;" xml:space="preserve">
<style type="text/css">
	.st0{fill:#62727B;}
</style>
<g id="XMLID_40_">
	<g id="XMLID_2603_">
		<g id="XMLID_2608_">
			<path id="XMLID_2611_" class="st0" d="M12.5,5C12.2,5,12,4.8,12,4.5v-2C12,2.2,12.2,2,12.5,2S13,2.2,13,2.5v2
				C13,4.8,12.8,5,12.5,5z"/>
		</g>
		<g id="XMLID_2604_">
			<path id="XMLID_2610_" class="st0" d="M12.5,23c-0.3,0-0.5-0.2-0.5-0.5v-2c0-0.3,0.2-0.5,0.5-0.5s0.5,0.2,0.5,0.5v2
				C13,22.8,12.8,23,12.5,23z"/>
		</g>
	</g>
	<g id="XMLID_2665_">
		<g id="XMLID_2602_">
			<g id="XMLID_2594_">
				<path id="XMLID_2679_" class="st0" d="M12.1,23.5c-6.1,0-11-4.9-11-11s4.9-11,11-11s11,4.9,11,11S18.1,23.5,12.1,23.5z
					 M12.1,2.5c-5.5,0-10,4.5-10,10s4.5,10,10,10s10-4.5,10-10S17.6,2.5,12.1,2.5z"/>
			</g>
			<g id="XMLID_2598_">
				<g id="XMLID_2599_">
					<path id="XMLID_2678_" class="st0" d="M3.6,13h-2c-0.3,0-0.5-0.2-0.5-0.5S1.3,12,1.6,12h2c0.3,0,0.5,0.2,0.5,0.5S3.8,13,3.6,13
						z"/>
				</g>
				<g id="XMLID_2600_">
					<path id="XMLID_2677_" class="st0" d="M22.6,13h-2c-0.3,0-0.5-0.2-0.5-0.5s0.2-0.5,0.5-0.5h2c0.3,0,0.5,0.2,0.5,0.5
						S22.8,13,22.6,13z"/>
				</g>
			</g>
		</g>
		<g id="XMLID_2609_">
			<path id="XMLID_2674_" class="st0" d="M6.3,18.9c-0.1,0-0.2,0-0.3-0.1c-0.2-0.1-0.2-0.4-0.1-0.6l3.5-7.6c0-0.1,0.1-0.2,0.2-0.2
				l7.2-4.2c0.2-0.1,0.4-0.1,0.6,0.1c0.2,0.1,0.2,0.4,0.1,0.6l-3.2,7.8c0,0.1-0.1,0.2-0.2,0.3l-7.5,4C6.4,18.9,6.4,18.9,6.3,18.9z
				 M10.2,11.1l-2.8,6.1l6.1-3.2L16,7.8L10.2,11.1z"/>
		</g>
	</g>
</g>
</svg>
