<?xml version="1.0" encoding="utf-8"?>
<!-- Generator: Adobe Illustrator 19.0.0, SVG Export Plug-In . SVG Version: 6.00 Build 0)  -->
<svg version="1.1" id="图层_1" xmlns="http://www.w3.org/2000/svg" xmlns:xlink="http://www.w3.org/1999/xlink" x="0px" y="0px"
	 viewBox="0 0 28 28" style="enable-background:new 0 0 28 28;" xml:space="preserve">
<style type="text/css">
	.st0{fill:#BCBCBC;}
</style>
<g id="XMLID_53_">
	<g id="XMLID_2787_">
		<path id="XMLID_59_" class="st0" d="M19.4,9h-4.6c-0.3,0-0.6-0.2-0.6-0.5S14.5,8,14.8,8h4.6c0.3,0,0.6,0.2,0.6,0.5S19.7,9,19.4,9z
			"/>
	</g>
	<g id="XMLID_2786_">
		<path id="XMLID_58_" class="st0" d="M19.4,4h-4.6c-0.3,0-0.6-0.2-0.6-0.5S14.5,3,14.8,3h4.6c0.3,0,0.6,0.2,0.6,0.5S19.7,4,19.4,4z
			"/>
	</g>
	<g id="XMLID_2779_">
		<path id="XMLID_57_" class="st0" d="M14.4,16C14.4,16,14.4,16,14.4,16c-0.3,0-0.6-0.2-0.6-0.5l0.1-13.9c0-0.3,0.3-0.5,0.6-0.5
			c0,0,0,0,0,0C14.8,1,15,1.3,15,1.6l-0.1,13.9C14.9,15.8,14.7,16,14.4,16z"/>
	</g>
	<g id="XMLID_2751_">
		<path id="XMLID_54_" class="st0" d="M14.5,27.4c-3.4,0-6.2-2.8-6.2-6.2S11,15,14.5,15s6.2,2.8,6.2,6.2S17.9,27.4,14.5,27.4z
			 M14.5,16.1c-2.8,0-5.1,2.3-5.1,5.1s2.3,5.1,5.1,5.1s5.1-2.3,5.1-5.1S17.3,16.1,14.5,16.1z"/>
	</g>
</g>
</svg>
