<?xml version="1.0" encoding="utf-8"?>
<!-- Generator: Adobe Illustrator 19.0.0, SVG Export Plug-In . SVG Version: 6.00 Build 0)  -->
<svg version="1.1" id="图层_1" xmlns="http://www.w3.org/2000/svg" xmlns:xlink="http://www.w3.org/1999/xlink" x="0px" y="0px"
	 viewBox="0 0 34 34" style="enable-background:new 0 0 34 34;" xml:space="preserve">
<style type="text/css">
	.st0{fill:#62727B;}
</style>
<g id="XMLID_2572_">
	<g id="XMLID_2567_">
		<path id="XMLID_2587_" class="st0" d="M33.3,15h-31c-0.3,0-0.5-0.2-0.5-0.5S2,14,2.3,14h30l-4.4-5.5c-0.2-0.2-0.1-0.5,0.1-0.7
			c0.2-0.2,0.5-0.1,0.7,0.1l5,6.3c0.1,0.2,0.1,0.4,0.1,0.5C33.6,14.9,33.4,15,33.3,15z"/>
	</g>
	<g id="XMLID_2569_">
		<path id="XMLID_2573_" class="st0" d="M11.2,26.2v-4.5c0-0.9-0.1-1.6-0.4-2s-0.8-0.6-1.4-0.6c-0.6,0-1.1,0.3-1.5,0.8
			c-0.4,0.5-0.6,1.1-0.6,1.9v4.4H6.5v-4.5c0-1.7-0.6-2.5-1.9-2.5c-0.6,0-1.1,0.3-1.5,0.8c-0.4,0.5-0.6,1.2-0.6,2v4.3H1.9v-7.4h0.7
			V20h0c0.5-0.9,1.3-1.4,2.3-1.4c0.5,0,1,0.2,1.4,0.5c0.4,0.3,0.6,0.7,0.8,1.2c0.2-0.5,0.6-1,1-1.3c0.4-0.3,0.9-0.4,1.4-0.4
			c1.6,0,2.4,1,2.4,3v4.6H11.2z"/>
		<path id="XMLID_2575_" class="st0" d="M17.1,26.3c-1.1,0-1.9-0.4-2.6-1.1c-0.6-0.7-0.9-1.6-0.9-2.8c0-1.2,0.3-2.2,1-2.9
			s1.5-1,2.6-1c1.1,0,1.9,0.3,2.5,1c0.6,0.7,0.9,1.7,0.9,2.9c0,1.2-0.3,2.1-0.9,2.8C19,26,18.2,26.3,17.1,26.3z M17.1,19.1
			c-0.9,0-1.6,0.3-2.1,0.9c-0.5,0.6-0.8,1.4-0.8,2.5c0,1,0.3,1.8,0.8,2.3c0.5,0.6,1.2,0.9,2.1,0.9c0.9,0,1.6-0.3,2.1-0.9
			c0.5-0.6,0.7-1.4,0.7-2.4c0-1.1-0.2-1.9-0.7-2.4C18.7,19.4,18,19.1,17.1,19.1z"/>
		<path id="XMLID_2582_" class="st0" d="M26,19.4c-0.2-0.2-0.5-0.2-0.8-0.2c-0.6,0-1.1,0.3-1.5,0.9c-0.4,0.6-0.6,1.5-0.6,2.6v3.5
			h-0.7v-7.4h0.7v1.6h0c0.2-0.6,0.4-1,0.8-1.3s0.8-0.5,1.3-0.5c0.3,0,0.5,0,0.7,0.1V19.4z"/>
		<path id="XMLID_2584_" class="st0" d="M27.2,22.5c0,1,0.2,1.8,0.7,2.4c0.5,0.6,1.1,0.9,1.9,0.9c0.8,0,1.6-0.3,2.4-0.9v0.7
			c-0.8,0.5-1.6,0.8-2.6,0.8c-1,0-1.7-0.3-2.3-1c-0.6-0.7-0.9-1.7-0.9-2.9c0-1.1,0.3-2,0.9-2.7c0.6-0.7,1.4-1.1,2.4-1.1
			c0.9,0,1.6,0.3,2.1,1c0.5,0.7,0.7,1.5,0.7,2.7v0.3H27.2z M32.1,21.9c0-0.9-0.2-1.5-0.6-2s-0.9-0.7-1.6-0.7c-0.7,0-1.3,0.2-1.7,0.7
			c-0.5,0.5-0.7,1.1-0.8,2H32.1z"/>
	</g>
</g>
</svg>
