<?xml version="1.0" encoding="utf-8"?>
<!-- Generator: Adobe Illustrator 19.0.0, SVG Export Plug-In . SVG Version: 6.00 Build 0)  -->
<svg version="1.1" id="图层_1" xmlns="http://www.w3.org/2000/svg" xmlns:xlink="http://www.w3.org/1999/xlink" x="0px" y="0px"
	 viewBox="0 0 24 24" style="enable-background:new 0 0 24 24;" xml:space="preserve">
<style type="text/css">
	.st0{fill:#B8B8B8;}
</style>
<g id="XMLID_2761_">
	<g id="XMLID_2760_">
		<path id="XMLID_2765_" class="st0" d="M19.9,22.5h-16c-1.4,0-2.5-1.1-2.5-2.5V4c0-1.4,1.1-2.5,2.5-2.5h16c1.4,0,2.5,1.1,2.5,2.5
			v16C22.4,21.4,21.3,22.5,19.9,22.5z M3.9,2.5C3,2.5,2.4,3.2,2.4,4v16c0,0.8,0.7,1.5,1.5,1.5h16c0.8,0,1.5-0.7,1.5-1.5V4
			c0-0.8-0.7-1.5-1.5-1.5H3.9z"/>
	</g>
	<g id="XMLID_2759_">
		<path id="XMLID_2764_" class="st0" d="M10.6,17.5L10.6,17.5c-0.1,0-0.3-0.1-0.4-0.2l-5.3-6.2c-0.2-0.2-0.2-0.5,0.1-0.7
			s0.5-0.2,0.7,0.1l5,5.7l8.8-10.1c0.2-0.2,0.5-0.2,0.7,0c0.2,0.2,0.2,0.5,0,0.7L11,17.3C10.9,17.4,10.7,17.5,10.6,17.5z"/>
	</g>
</g>
</svg>
