<?xml version="1.0" encoding="utf-8"?>
<!-- Generator: Adobe Illustrator 16.0.0, SVG Export Plug-In . SVG Version: 6.00 Build 0)  -->
<!DOCTYPE svg PUBLIC "-//W3C//DTD SVG 1.1//EN" "http://www.w3.org/Graphics/SVG/1.1/DTD/svg11.dtd">
<svg version="1.1" id="图层_1" xmlns="http://www.w3.org/2000/svg" xmlns:xlink="http://www.w3.org/1999/xlink" x="0px" y="0px"
	 width="85.039px" height="85.039px" viewBox="57.48 57.48 85.039 85.039" enable-background="new 57.48 57.48 85.039 85.039"
	 xml:space="preserve">
<g>
	<g>
		<g transform="scale(0.1953125, 0.1953125)">
			<path fill="#BBBBBB" d="M294.429,462.716C293.989,462.129,294.812,463.289,294.429,462.716L294.429,462.716L294.429,462.716z
				 M294.429,462.716L294.429,462.716z M500.489,541.949h-93.117c-4.622,0-8.4,3.745-8.4,8.4v4.09c0,4.625,3.777,8.37,8.4,8.37
				h93.117c4.655,0,8.4-3.74,8.4-8.37v-4.09C508.891,545.694,505.144,541.949,500.489,541.949z M516.379,298.879
				c-117.827,0-213.362,95.535-213.362,213.359s95.535,213.359,213.362,213.359c117.825,0,213.319-95.535,213.319-213.359
				S634.208,298.879,516.379,298.879z M516.379,700.053c-103.757,0-187.815-84.095-187.815-187.815
				c0-29.535,6.787-57.46,18.965-82.31l28.312,16.062v44.617h78.702l25.3,14.352H375.842v76.777c0,11.795,9.587,21.38,21.38,21.38
				h238.237c4.24,0,8.155-1.225,11.485-3.395l26.73,15.155C640.153,666.178,582.239,700.053,516.379,700.053z M535.729,562.914
				h23.485c4.58,0,8.29-3.64,8.395-8.195l68.28,38.71c-0.145,0.035-0.285,0.035-0.43,0.035H397.221
				c-6.475,0-11.725-5.25-11.725-11.725v-67.155h111.317l48.435,27.47h-9.525c-4.615,0-8.4,3.78-8.4,8.4v4.095
				C527.329,559.169,531.109,562.914,535.729,562.914z M551.754,514.584h95.435v54.135L551.754,514.584z M492.446,480.954
				l-88.012-49.902h231.029c6.475,0,11.725,5.25,11.725,11.722v38.18H492.446z M437.504,480.954h-52.002v-29.5L437.504,480.954z
				 M656.853,574.179v-69.217H534.789l-25.3-14.352h147.365v-47.835c0-11.792-9.59-21.377-21.39-21.377H397.227
				c-2.625,0-5.142,0.455-7.455,1.365l-28.66-16.272c33.84-49.552,90.74-82.06,155.267-82.06
				c103.725,0,187.815,84.09,187.815,187.812c0,28.207-6.23,54.937-17.36,78.947L656.853,574.179z"/>
		</g>
	</g>
</g>
</svg>
