<?xml version="1.0" encoding="utf-8"?>
<!-- Generator: Adobe Illustrator 19.0.0, SVG Export Plug-In . SVG Version: 6.00 Build 0)  -->
<svg version="1.1" id="图层_1" xmlns="http://www.w3.org/2000/svg" xmlns:xlink="http://www.w3.org/1999/xlink" x="0px" y="0px"
	 viewBox="0 0 36 36" style="enable-background:new 0 0 36 36;" xml:space="preserve">
<style type="text/css">
	.st0{fill:#717070;}
</style>
<g id="XMLID_1422_">
	<g id="XMLID_1423_">
		<rect id="XMLID_13_" x="3" y="3" class="st0" width="11" height="11"/>
		<path id="XMLID_14_" class="st0" d="M15,15H2V2h13V15z M4,13h9V4H4V13z"/>
	</g>
	<g id="XMLID_1424_">
		<rect id="XMLID_9_" x="21" y="3" class="st0" width="12" height="11"/>
		<path id="XMLID_10_" class="st0" d="M34,15H20V2h14V15z M22,13h10V4H22V13z"/>
	</g>
	<g id="XMLID_1425_">
		<rect id="XMLID_5_" x="3" y="21" class="st0" width="11" height="11"/>
		<path id="XMLID_6_" class="st0" d="M15,33H2V20h13V33z M4,31h9v-9H4V31z"/>
	</g>
	<g id="XMLID_1426_">
		<rect id="XMLID_1_" x="21" y="21" class="st0" width="12" height="11"/>
		<path id="XMLID_2_" class="st0" d="M34,33H20V20h14V33z M22,31h10v-9H22V31z"/>
	</g>
</g>
</svg>
