<?xml version="1.0" standalone="no"?><!DOCTYPE svg PUBLIC "-//W3C//DTD SVG 1.1//EN" "http://www.w3.org/Graphics/SVG/1.1/DTD/svg11.dtd"><svg width="200" height="200" viewBox="0 0 200 200" version="1.1" xmlns="http://www.w3.org/2000/svg" xmlns:xlink="http://www.w3.org/1999/xlink"><defs><style type="text/css"><![CDATA[
@font-face { font-family: ifont; src: url(http://at.alicdn.com/t/font_1442373896_4754455.eot?#iefix) format(embedded-opentype), url(http://at.alicdn.com/t/font_1442373896_4754455.woff) format(woff), url(http://at.alicdn.com/t/font_1442373896_4754455.ttf) format(truetype), url(http://at.alicdn.com/t/font_1442373896_4754455.svg#ifont) format(svg); }

]]></style></defs><g class="transform-group"><g transform="scale(0.1953125, 0.1953125)"><path d="M481.278495 750.230898l244.056093-373.580126 7.616405 0-3.898515 16.858445L473.66209 801.724416l-11.454711 0L305.860356 508.086432l-55.286668 30.510775-5.719829-17.174541 89.620697-49.566838L481.278495 750.230898zM481.985947 816.776599l-28.82493 0L299.764222 528.647714l-57.740173 31.865471-15.398383-46.210201 114.005233-63.053594 142.04745 269.34376 234.543113-359.009613 34.695281 0-8.730266 37.750875L481.985947 816.776599zM317.721476 498.317566l150.80782 283.221873 6.653065-10.626841-146.849096-278.465383L317.721476 498.317566zM485.357636 822.059915l-35.342525 0L297.61176 535.887814l-58.598148 32.332089-18.800176-56.400529 122.554873-67.795032 139.458474 264.436748 246.10319-411.556784 58.011113 0 0 4.726385L485.357636 822.059915zM324.841158 500.439924l143.627929 269.720065 0.195678-0.301044-142.483963-270.17163L324.841158 500.439924zM494.042746 837.112098l-53.058945 0-149.468176-280.663002-61.051654 33.686785-28.47873-85.43619 146.939409-81.281787 134.130001 254.321682L719.795384 281.837072l81.597883 0 0 23.827605-2.032045 3.492106L494.042746 837.112098zM459.061473 807.007732l17.626106 0 286.30757-495.066294-26.100485 0L481.413964 739.152492l-144.786947-274.536763-98.170337 54.308276 9.121623 27.364868 56.144642-30.992445L459.061473 807.007732zM467.355226 799.466588l-12.192268-22.247126L304.58092 494.434103l27.741173-15.323122 153.7731 291.560782L467.355226 799.466588zM512.015052 987.1071c-261.968191 0-475.092048-213.123857-475.092048-475.092048 0-261.968191 213.123857-475.092048 475.092048-475.092048 261.968191 0 475.092048 213.123857 475.092048 475.092048C987.1071 773.983243 773.983243 987.1071 512.015052 987.1071zM512.015052 82.079553c-237.07188 0-429.935499 192.863619-429.935499 429.935499 0 237.07188 192.863619 429.935499 429.935499 429.935499 237.07188 0 429.935499-192.863619 429.935499-429.935499C941.950551 274.943172 749.086932 82.079553 512.015052 82.079553z" fill="#fcc505"></path></g></g></svg>