<?xml version="1.0" encoding="utf-8"?>
<!-- Generator: Adobe Illustrator 19.0.0, SVG Export Plug-In . SVG Version: 6.00 Build 0)  -->
<svg version="1.1" id="图层_1" xmlns="http://www.w3.org/2000/svg" xmlns:xlink="http://www.w3.org/1999/xlink" x="0px" y="0px"
	 viewBox="0 0 28 28" style="enable-background:new 0 0 28 28;" xml:space="preserve">
<style type="text/css">
	.st0{display:none;fill:#F2BF1E;}
	.st1{fill:#525151;}
</style>
<path id="XMLID_2966_" class="st0" d="M-9-16v59.9l23-16.2l23,16.2V-16H-9z M26,25.4l-11.4-6l-11.5,6l2.2-12.7l-9.2-9L8.9,1.8
	l5.7-11.6l5.7,11.6l12.8,1.8l-9.2,9L26,25.4z"/>
<path id="XMLID_2961_" class="st1" d="M14,0.6C6.6,0.6,0.7,6.6,0.7,14c0,7.4,6,13.4,13.4,13.4s13.4-6,13.4-13.4
	C27.4,6.6,21.4,0.6,14,0.6z M22.3,21.1c0.3,0.3,0.3,0.9,0,1.2c-0.2,0.2-0.4,0.3-0.6,0.3c-0.2,0-0.4-0.1-0.6-0.3L14,15.2l-7,7
	c-0.2,0.2-0.4,0.3-0.6,0.3c-0.2,0-0.4-0.1-0.6-0.3c-0.3-0.3-0.3-0.9,0-1.2l7-7l-7-7c-0.3-0.3-0.3-0.9,0-1.2c0.3-0.3,0.9-0.3,1.2,0
	l7,7l7.1-7.1c0.3-0.3,0.9-0.3,1.2,0c0.3,0.3,0.3,0.9,0,1.2L15.2,14L22.3,21.1z"/>
</svg>
