<?xml version="1.0" encoding="utf-8"?>
<!-- Generator: Adobe Illustrator 19.0.0, SVG Export Plug-In . SVG Version: 6.00 Build 0)  -->
<svg version="1.1" id="图层_1" xmlns="http://www.w3.org/2000/svg" xmlns:xlink="http://www.w3.org/1999/xlink" x="0px" y="0px"
	 viewBox="0 0 34 34" style="enable-background:new 0 0 34 34;" xml:space="preserve">
<style type="text/css">
	.st0{display:none;}
	.st1{display:inline;}
	.st2{fill:#272728;}
	.st3{fill:none;stroke:#272728;stroke-width:2;stroke-linecap:round;stroke-linejoin:round;stroke-miterlimit:10;}
	.st4{fill:#F1BE1C;}
	.st5{display:inline;fill:#F1BE1C;}
	.st6{fill:#FFFFFF;}
	.st7{display:inline;fill:#FB5B46;}
	.st8{display:none;fill:#E1E1E1;}
	.st9{display:inline;fill:#E1E1E1;}
	.st10{display:inline;fill:#C4C4C4;}
	.st11{fill:#C4C4C4;}
</style>
<g id="XMLID_137_" class="st0">
	<g id="XMLID_149_" class="st1">
		<g id="XMLID_366_">
			<path id="XMLID_6_" class="st2" d="M11,38.4H0.6c-1.5,0-2.8-1.3-2.8-2.8V24.4c0-0.6,0.4-1,1-1s1,0.4,1,1v11.1
				c0,0.4,0.4,0.8,0.8,0.8H11c0.6,0,1,0.4,1,1S11.5,38.4,11,38.4z"/>
		</g>
		<g id="XMLID_150_">
			<path id="XMLID_5_" class="st2" d="M-1.2,13.4c-0.6,0-1-0.4-1-1V2c0-1.5,1.3-2.8,2.8-2.8h10.3c0.6,0,1,0.4,1,1s-0.4,1-1,1H0.6
				C0.2,1.2-0.2,1.5-0.2,2v10.5C-0.2,13-0.6,13.4-1.2,13.4z"/>
		</g>
	</g>
	<g id="XMLID_143_" class="st1">
		<g id="XMLID_145_">
			<path id="XMLID_4_" class="st2" d="M34.2,38.4H23.8c-0.6,0-1-0.4-1-1s0.4-1,1-1h10.4c0.4,0,0.8-0.4,0.8-0.8V24.4c0-0.6,0.4-1,1-1
				s1,0.4,1,1v11.1C36.9,37.1,35.7,38.4,34.2,38.4z"/>
		</g>
		<g id="XMLID_144_">
			<path id="XMLID_7_" class="st2" d="M35.9,13.4c-0.6,0-1-0.4-1-1V2c0-0.4-0.4-0.8-0.8-0.8H23.8c-0.6,0-1-0.4-1-1s0.4-1,1-1h10.3
				c1.5,0,2.8,1.3,2.8,2.8v10.5C36.9,13,36.5,13.4,35.9,13.4z"/>
		</g>
	</g>
	<g id="XMLID_141_" class="st1">
		<path id="XMLID_3_" class="st2" d="M38,19H-2c-0.6,0-1-0.4-1-1s0.4-1,1-1h40c0.6,0,1,0.4,1,1S38.6,19,38,19z"/>
	</g>
</g>
<g id="XMLID_385_" class="st0">
	<g id="XMLID_407_" class="st1">
		<path id="XMLID_16_" class="st2" d="M3.7,36.1l2.6-4.3c-5.7-2.9-9.1-7.9-9.1-13.3c0-8.8,9.1-15.9,20.3-15.9
			c11.2,0,20.3,7.1,20.3,15.9s-9.1,15.9-20.3,15.9c-0.7,0-1.5,0-2.4-0.1L3.7,36.1z M17.5,4.6C7.4,4.6-0.8,10.8-0.8,18.5
			c0,4.9,3.4,9.4,9,11.9l1,0.5l-1.5,2.5l7.4-1.2l0.1,0c0.9,0.1,1.7,0.1,2.4,0.1c10.1,0,18.3-6.2,18.3-13.9
			C35.9,10.8,27.7,4.6,17.5,4.6z"/>
	</g>
	<g id="XMLID_395_" class="st1">
		<path id="XMLID_13_" class="st2" d="M6,21.2c-1.6,0-2.8-1.3-2.8-2.8s1.3-2.8,2.8-2.8s2.8,1.3,2.8,2.8S7.6,21.2,6,21.2z M6,17.6
			c-0.4,0-0.8,0.4-0.8,0.8c0,0.4,0.4,0.8,0.8,0.8s0.8-0.4,0.8-0.8C6.8,18,6.5,17.6,6,17.6z"/>
	</g>
	<g id="XMLID_394_" class="st1">
		<path id="XMLID_10_" class="st2" d="M18,21.2c-1.6,0-2.8-1.3-2.8-2.8s1.3-2.8,2.8-2.8c1.6,0,2.8,1.3,2.8,2.8S19.6,21.2,18,21.2z
			 M18,17.6c-0.4,0-0.8,0.4-0.8,0.8c0,0.4,0.4,0.8,0.8,0.8c0.4,0,0.8-0.4,0.8-0.8C18.8,18,18.5,17.6,18,17.6z"/>
	</g>
	<g id="XMLID_386_" class="st1">
		<path id="XMLID_8_" class="st2" d="M30,21.2c-1.6,0-2.8-1.3-2.8-2.8s1.3-2.8,2.8-2.8s2.8,1.3,2.8,2.8S31.6,21.2,30,21.2z M30,17.6
			c-0.4,0-0.8,0.4-0.8,0.8c0,0.4,0.4,0.8,0.8,0.8s0.8-0.4,0.8-0.8C30.8,18,30.5,17.6,30,17.6z"/>
	</g>
</g>
<g id="XMLID_455_" class="st0">
	<g id="XMLID_458_" class="st1">
		<path id="XMLID_49_" class="st2" d="M35.5,20.2c-0.3,0-0.5-0.1-0.7-0.3L18.4,3.3L1.9,19.9c-0.4,0.4-1,0.4-1.4,0
			c-0.4-0.4-0.4-1,0-1.4L17.7,1.2C17.9,1,18.2,1,18.4,1c0,0,0,0,0,0c0.3,0,0.5,0,0.7,0.2l17.1,17.2c0.4,0.4,0.4,1,0,1.4
			C36,20.1,35.7,20.2,35.5,20.2z"/>
	</g>
	<g id="XMLID_457_" class="st1">
		<path id="XMLID_48_" class="st2" d="M28,33.8H8.7c-1.7,0-3-1.3-3-3V18.2c0-0.6,0.4-1,1-1s1,0.4,1,1v12.7c0,0.6,0.4,1,1,1H28
			c0.6,0,1-0.4,1-1V18.2c0-0.6,0.4-1,1-1s1,0.4,1,1v12.7C31,32.5,29.7,33.8,28,33.8z"/>
	</g>
	<g id="XMLID_456_" class="st1">
		<path id="XMLID_45_" class="st2" d="M21,33.1h-5.4c-0.4,0-0.8-0.3-0.8-0.8v-6.5c0-0.4,0.3-0.8,0.8-0.8H21c0.4,0,0.8,0.3,0.8,0.8
			v6.5C21.8,32.7,21.4,33.1,21,33.1z M16.4,31.6h3.9v-5h-3.9V31.6z"/>
	</g>
</g>
<g id="XMLID_554_" class="st0">
	<g id="XMLID_467_" class="st1">
		<g id="XMLID_468_">
			<path id="XMLID_57_" class="st2" d="M21.8,33.4c-5.2,0-9.3-4.2-9.3-9.3s4.2-9.3,9.3-9.3s9.3,4.2,9.3,9.3S27,33.4,21.8,33.4z
				 M21.8,16.7c-4,0-7.3,3.3-7.3,7.3s3.3,7.3,7.3,7.3c4,0,7.3-3.3,7.3-7.3S25.9,16.7,21.8,16.7z"/>
		</g>
	</g>
	<g id="XMLID_465_" class="st1">
		<g id="XMLID_466_">
			<path id="XMLID_52_" class="st2" d="M14,35.3H4.9c-1.8,0-3.3-1.5-3.3-3.3V10.5c0-0.6,0.4-1,1-1h29.8c0.6,0,1,0.4,1,1v6.7
				c0,0.6-0.4,1-1,1s-1-0.4-1-1v-5.7H3.6V32c0,0.7,0.6,1.3,1.3,1.3H14c0.6,0,1,0.4,1,1S14.5,35.3,14,35.3z"/>
		</g>
	</g>
	<g id="XMLID_462_" class="st1">
		<g id="XMLID_463_">
			<path id="XMLID_53_" class="st2" d="M32.5,11.6H2.6c-0.4,0-0.8-0.2-0.9-0.6c-0.2-0.4-0.1-0.8,0.2-1.1l6.4-7.1
				C8.4,2.6,8.7,2.5,9,2.5h17.1c0.3,0,0.6,0.1,0.7,0.3l6.4,7.1c0.3,0.3,0.3,0.7,0.2,1.1C33.2,11.3,32.9,11.6,32.5,11.6z M4.9,9.6
				h25.4l-4.6-5.1H9.4L4.9,9.6z"/>
		</g>
	</g>
	<g id="XMLID_459_" class="st1">
		<g id="XMLID_460_">
			<path id="XMLID_51_" class="st2" d="M6,19.4c-0.1,0-0.3,0-0.4-0.1C5.2,19.1,5,18.8,5,18.4V11c0-0.6,0.4-1,1-1s1,0.4,1,1v5.2
				L8.4,15c0.4-0.3,0.9-0.3,1.3,0l1.3,1.1V11c0-0.6,0.4-1,1-1s1,0.4,1,1v7.3c0,0.4-0.2,0.7-0.6,0.9c-0.4,0.2-0.8,0.1-1.1-0.1l-2.3-2
				l-2.4,2C6.5,19.3,6.2,19.4,6,19.4z"/>
		</g>
	</g>
	<g id="XMLID_521_" class="st1">
		<g id="XMLID_524_">
			<path id="XMLID_185_" class="st3" d="M31.7,35"/>
		</g>
		<g id="XMLID_523_">
			<path id="XMLID_50_" class="st2" d="M31.7,35.2c-0.2,0-0.5-0.1-0.7-0.3l-3.8-3.5c-0.4-0.4-0.4-1-0.1-1.4c0.4-0.4,1-0.4,1.4-0.1
				l3.8,3.5c0.4,0.4,0.4,1,0.1,1.4C32.2,35.1,32,35.2,31.7,35.2z"/>
		</g>
		<g id="XMLID_522_">
			<path id="XMLID_181_" class="st3" d="M27.1,30.7"/>
		</g>
	</g>
</g>
<g id="XMLID_555_" class="st0">
	<g id="XMLID_518_" class="st1">
		<path id="XMLID_65_" class="st2" d="M29,19H8c-0.6,0-1-0.4-1-1s0.4-1,1-1h21c0.6,0,1,0.4,1,1S29.6,19,29,19z"/>
	</g>
	<g id="XMLID_517_" class="st1">
		<path id="XMLID_64_" class="st2" d="M29,25H8c-0.6,0-1-0.4-1-1s0.4-1,1-1h21c0.6,0,1,0.4,1,1S29.6,25,29,25z"/>
	</g>
	<g id="XMLID_516_" class="st1">
		<path id="XMLID_63_" class="st2" d="M29,31H8c-0.6,0-1-0.4-1-1s0.4-1,1-1h21c0.6,0,1,0.4,1,1S29.6,31,29,31z"/>
	</g>
	<g id="XMLID_515_" class="st1">
		<path id="XMLID_62_" class="st2" d="M32.8,11.6c-0.2,0-0.5-0.1-0.6-0.3L28.8,6c-0.2-0.3-0.1-0.8,0.2-1c0.4-0.2,0.8-0.1,1,0.2
			l3.3,5.3c0.2,0.3,0.1,0.8-0.2,1C33,11.6,32.9,11.6,32.8,11.6z"/>
	</g>
	<g id="XMLID_500_" class="st1">
		<path id="XMLID_56_" class="st2" d="M31.9,36H4.8C3.2,36,2,34.7,2,33V6c0-1.7,1.2-3,2.8-3H27c0.6,0,1,0.4,1,1v9h6c0.6,0,1,0.4,1,1
			v19C35,34.7,33.6,36,31.9,36z M4.8,5C4.1,5,4,5.7,4,6v27c0,0.3,0.1,1,0.8,1h27.2c0.6,0,1.1-0.4,1.1-1V15h-6c-0.6,0-1-0.4-1-1V5
			H4.8z"/>
	</g>
</g>
<g id="XMLID_501_" class="st0">
	<g id="XMLID_503_" class="st1">
		<g id="XMLID_513_">
			<path id="XMLID_71_" class="st2" d="M21.4,21.6c-5,0-9.1-4.1-9.1-9.2s4.1-9.2,9.1-9.2c5,0,9.1,4.1,9.1,9.2S26.4,21.6,21.4,21.6z
				 M21.4,5.2c-3.9,0-7.1,3.2-7.1,7.2s3.2,7.2,7.1,7.2c3.9,0,7.1-3.2,7.1-7.2S25.3,5.2,21.4,5.2z"/>
		</g>
		<g id="XMLID_512_">
			<path id="XMLID_69_" class="st2" d="M9,34.6c-0.6,0-1-0.4-1-1c0-7.7,6.2-14.1,13.9-14.1c0.6,0,1,0.4,1,1s-0.4,1-1,1
				C15.4,21.6,10,27,10,33.6C10,34.2,9.6,34.6,9,34.6z"/>
		</g>
		<g id="XMLID_511_">
			<path id="XMLID_68_" class="st2" d="M34.8,34.6c-0.6,0-1-0.4-1-1c0-4.2-2.3-8.1-5.9-10.2c-0.5-0.3-0.6-0.9-0.4-1.4
				c0.3-0.5,0.9-0.6,1.4-0.4c4.2,2.5,6.9,7.1,6.9,12C35.8,34.2,35.3,34.6,34.8,34.6z"/>
		</g>
		<g id="XMLID_505_">
			<g id="XMLID_507_">
				<path id="XMLID_67_" class="st2" d="M12.5,21.4c-0.1,0-0.1,0-0.2,0c-4.3-0.8-7.4-4.6-7.4-9C4.9,7.3,9,3.2,14,3.2
					c0.6,0,1,0.4,1,1s-0.4,1-1,1c-3.9,0-7.1,3.2-7.1,7.2c0,3.5,2.4,6.4,5.8,7.1c0.5,0.1,0.9,0.6,0.8,1.2
					C13.4,21.1,13,21.4,12.5,21.4z"/>
			</g>
			<g id="XMLID_506_">
				<path id="XMLID_66_" class="st2" d="M1.6,34.6c-0.6,0-1-0.4-1-1c0-6.9,5.1-13.1,11.6-14.2c0.5-0.1,1.1,0.3,1.1,0.8
					c0.1,0.5-0.3,1.1-0.8,1.1c-5.6,0.9-9.9,6.3-9.9,12.2C2.6,34.2,2.1,34.6,1.6,34.6z"/>
			</g>
		</g>
	</g>
	<g id="XMLID_502_" class="st1">
		<path id="XMLID_148_" class="st3" d="M12.5,20.9"/>
	</g>
</g>
<g id="XMLID_99_" class="st0">
	<g id="XMLID_960_" class="st1">
		<polygon id="XMLID_1015_" class="st4" points="17.4,4 32.4,19 34.5,19 17.4,1.7 0.2,19 2.5,19 		"/>
		<polygon id="XMLID_1016_" class="st4" points="31,19.2 17.4,5.6 3.9,19.2 		"/>
	</g>
	<path id="XMLID_98_" class="st5" d="M6,18v12.8C6,31.9,6.6,33,7.7,33H15v-7h5v7h7c1.1,0,2-1.1,2-2.2V18H6z"/>
</g>
<g id="XMLID_100_" class="st0">
	<g id="XMLID_982_" class="st1">
		<path id="XMLID_983_" class="st4" d="M14,33.3H4.9c-1.3,0-2.3-1-2.3-2.3V10.5h29.8v20.8c0,1.1-0.9,2-2,2H14z"/>
	</g>
	<g id="XMLID_979_" class="st1">
		<path id="XMLID_980_" class="st4" d="M32.5,9.6H2.6L9,2.5h17.1L32.5,9.6z"/>
	</g>
	<g id="XMLID_977_" class="st1">
		<polyline id="XMLID_978_" class="st6" points="12,10 12,17.3 9,14.8 6,17.4 6,10 		"/>
	</g>
	<g id="XMLID_988_" class="st1">
		<path id="XMLID_989_" class="st6" d="M21.8,31.4c-4.6,0-8.3-3.7-8.3-8.3s3.7-8.3,8.3-8.3s8.3,3.7,8.3,8.3S26.4,31.4,21.8,31.4z"/>
	</g>
	<g id="XMLID_984_" class="st1">
		<g id="XMLID_987_">
			<path id="XMLID_381_" class="st6" d="M31.5,33.1"/>
		</g>
		<g id="XMLID_986_">
			<path id="XMLID_374_" class="st6" d="M31.4,33.3c-0.2,0-0.5-0.1-0.7-0.3L27,29.5c-0.4-0.4-0.4-1-0.1-1.4c0.4-0.4,1-0.4,1.4-0.1
				l3.8,3.5c0.4,0.4,0.4,1,0.1,1.4C32,33.2,31.7,33.3,31.4,33.3z"/>
		</g>
		<g id="XMLID_985_">
			<path id="XMLID_377_" class="st6" d="M26.9,28.8"/>
		</g>
	</g>
</g>
<g id="XMLID_101_" class="st0">
	<path id="XMLID_954_" class="st5" d="M27,14V4H4.8C3.7,4,3,4.9,3,6v27c0,1.1,0.7,2,1.8,2h27.2c1.1,0,2.1-0.9,2.1-2V14H27z"/>
	<g id="XMLID_958_" class="st1">
		<path id="XMLID_382_" class="st6" d="M28.7,19h-21c-0.6,0-1-0.4-1-1s0.4-1,1-1h21c0.6,0,1,0.4,1,1S29.3,19,28.7,19z"/>
	</g>
	<g id="XMLID_957_" class="st1">
		<path id="XMLID_379_" class="st6" d="M28.7,25h-21c-0.6,0-1-0.4-1-1s0.4-1,1-1h21c0.6,0,1,0.4,1,1S29.3,25,28.7,25z"/>
	</g>
	<g id="XMLID_956_" class="st1">
		<path id="XMLID_378_" class="st6" d="M28.7,31h-21c-0.6,0-1-0.4-1-1s0.4-1,1-1h21c0.6,0,1,0.4,1,1S29.3,31,28.7,31z"/>
	</g>
	<g id="XMLID_955_" class="st1">
		<path id="XMLID_383_" class="st4" d="M32.8,11.6c-0.2,0-0.5-0.1-0.6-0.3L28.8,6c-0.2-0.3-0.1-0.8,0.2-1c0.3-0.2,0.8-0.1,1,0.2
			l3.3,5.3c0.2,0.3,0.1,0.8-0.2,1C33,11.6,32.9,11.6,32.8,11.6z"/>
	</g>
</g>
<g id="XMLID_1237_" class="st0">
	<path id="XMLID_1238_" class="st7" d="M24.1,4.1c-3.7,0-6.5,2.9-6.7,6.6c0-0.3,0-0.6,0-1c0,0.3,0,0.6,0,1c-0.2-3.7-3-6.6-6.7-6.6
		c-3.8,0-7.6,3.1-7.6,6.9c0,1.8,0.2,3.8,1.6,5.6l3,3.2c0,0,4.1,4,7.1,7.5c1.3,1.5,1,0.8,2.5,3.8h0h0c1.5-3,1.3-2.3,2.5-3.8
		c3-3.5,7.1-7.4,7.1-7.4l3-3.2c1.5-1.8,1.6-3.8,1.6-5.6C31.7,7.2,27.9,4.1,24.1,4.1z"/>
</g>
<path id="XMLID_1681_" class="st8" d="M38,3.1C38,1.9,37.1,1,35.9,1H-1.9C-3.1,1-4,1.9-4,3.1v27.8c0,1.2,0.9,2.1,2.1,2.1h37.8
	c1.2,0,2.1-0.9,2.1-2.1V3.1z M27.4,3.6c2.3,0,4.2,1.9,4.2,4.2c0,2.3-1.9,4.2-4.2,4.2c-2.3,0-4.2-1.9-4.2-4.2
	C23.2,5.5,25.1,3.6,27.4,3.6z M34,28H-1V17.4L8.4,11l13.6,10.5l6-6.3l6,6.3V28z"/>
<g id="XMLID_1673_" class="st0">
	<path id="XMLID_1678_" class="st9" d="M30,8.3c0-1.4,1.2-2.5,2.6-2.5c1.5,0,2.6,1.1,2.6,2.5c0,1.4-1.2,2.5-2.6,2.5
		C31.2,10.8,30,9.7,30,8.3L30,8.3L30,8.3z M35.1,3.4H24.7c0-2.3-1.4-2.5-3-2.5H12c-1.7,0-3,0.1-3,2.5H-1.4c-1.7,0-2.8,0.9-2.8,2.5
		V30c0,1.6,1.2,2.9,2.8,2.9h36.5c1.7,0,2.8-1.3,2.8-2.9V5.9C37.9,4.3,36.7,3.4,35.1,3.4L35.1,3.4L35.1,3.4z M17.1,10.8
		c4.2,0,7.6,3.5,7.6,7.5s-3.8,7.2-7.9,7.2c-4.2,0-7.9-3.3-7.9-7.3C8.9,14.1,13,10.8,17.1,10.8L17.1,10.8L17.1,10.8z M17.1,10.8"/>
</g>
<g id="XMLID_1705_" class="st0">
	<path id="XMLID_70_" class="st10" d="M17,33.5C7.9,33.5,0.4,26.1,0.4,17C0.4,7.9,7.9,0.5,17,0.5S33.5,7.9,33.5,17
		C33.5,26.1,26.1,33.5,17,33.5z M17,2.5C9,2.5,2.4,9,2.4,17C2.4,25,9,31.5,17,31.5S31.5,25,31.5,17C31.5,9,25,2.5,17,2.5z"/>
</g>
<g id="XMLID_79_" class="st0">
	<g id="XMLID_1698_" class="st1">
		<path id="XMLID_80_" class="st11" d="M17,33.5C7.9,33.5,0.4,26.1,0.4,17C0.4,7.9,7.9,0.5,17,0.5S33.5,7.9,33.5,17
			C33.5,26.1,26.1,33.5,17,33.5z M17,2.5C9,2.5,2.4,9,2.4,17C2.4,25,9,31.5,17,31.5S31.5,25,31.5,17C31.5,9,25,2.5,17,2.5z"/>
	</g>
	<g id="XMLID_1704_" class="st1">
		<circle id="XMLID_44_" class="st11" cx="17" cy="17" r="8"/>
		<path id="XMLID_76_" class="st11" d="M17,25.5c-4.7,0-8.5-3.8-8.5-8.5s3.8-8.5,8.5-8.5c4.7,0,8.5,3.8,8.5,8.5S21.7,25.5,17,25.5z
			 M17,9.5c-4.2,0-7.5,3.4-7.5,7.5c0,4.2,3.4,7.5,7.5,7.5s7.5-3.4,7.5-7.5C24.5,12.9,21.1,9.5,17,9.5z"/>
	</g>
</g>
<g id="XMLID_1684_">
	<g id="XMLID_1690_">
		<rect id="XMLID_88_" y="5" class="st11" width="34" height="2"/>
	</g>
	<g id="XMLID_1688_">
		<path id="XMLID_87_" class="st11" d="M30.2,33H6.7C6,33,2,31.9,2,30.1V8h2v21.9C4.5,30.3,6.2,31,6.7,31h23.6
			c0.2,0,0.7-0.6,0.8-0.9V8h2v22.1C33,31.5,31.5,33,30.2,33z"/>
	</g>
	<g id="XMLID_1687_">
		<rect id="XMLID_86_" x="10" y="11" class="st11" width="2" height="15"/>
	</g>
	<g id="XMLID_1686_">
		<rect id="XMLID_85_" x="21" y="11" class="st11" width="2" height="15"/>
	</g>
	<g id="XMLID_1685_">
		<path id="XMLID_84_" class="st11" d="M29,5h-2V3c-0.2,0-0.5,0-0.7,0H10.5l-0.2,0C9,3,8.3,3.1,8,3.2V5H6V2.8c0-0.4,0.2-0.7,0.4-1
			C7.1,1.1,8.5,1,10.4,1h15.8l0.2,0c0.7,0,1.6,0,2.2,0.6C28.7,1.8,29,2.2,29,2.8V5z"/>
	</g>
</g>
</svg>
