<?xml version="1.0" encoding="utf-8"?>
<!-- Generator: Adobe Illustrator 16.0.0, SVG Export Plug-In . SVG Version: 6.00 Build 0)  -->
<!DOCTYPE svg PUBLIC "-//W3C//DTD SVG 1.1//EN" "http://www.w3.org/Graphics/SVG/1.1/DTD/svg11.dtd">
<svg version="1.1" id="图层_1" xmlns="http://www.w3.org/2000/svg" xmlns:xlink="http://www.w3.org/1999/xlink" x="0px" y="0px"
	 width="121.89px" height="121.89px" viewBox="39.055 39.055 121.89 121.89" enable-background="new 39.055 39.055 121.89 121.89"
	 xml:space="preserve">
<g>
	<g>
		<g transform="scale(0.1953125, 0.1953125)">
			<path fill="#C2C2C2" d="M355.779,415.739c0-8.917-7.265-16.175-16.157-16.175c-8.935,0-16.202,7.255-16.202,16.175
				c0,16.005,6.54,30.557,17.057,41.055c10.517,10.5,25.05,16.985,41.122,16.985c16.03,0,30.607-6.485,41.122-16.985
				c10.517-10.5,17.015-25.05,17.015-41.055c0-8.917-7.225-16.175-16.16-16.175c-8.932,0-16.2,7.255-16.2,16.175
				c0,7.085-2.862,13.57-7.525,18.222c-4.658,4.652-11.155,7.555-18.252,7.555c-7.137,0-13.592-2.902-18.252-7.555
				C358.687,429.309,355.779,422.824,355.779,415.739L355.779,415.739z M616.628,415.739c0-8.917-7.27-16.175-16.2-16.175
				c-8.94,0-16.16,7.255-16.16,16.175c0,16.005,6.49,30.557,17.01,41.055c10.56,10.5,25.09,16.985,41.17,16.985
				c16.03,0,30.56-6.485,41.08-16.985c10.55-10.5,17.05-25.05,17.05-41.055c0-8.917-7.22-16.175-16.15-16.175
				c-8.94,0-16.21,7.255-16.21,16.175c0,7.085-2.86,13.57-7.56,18.222c-4.66,4.652-11.12,7.555-18.21,7.555
				c-7.14,0-13.6-2.902-18.26-7.555C619.488,429.309,616.628,422.824,616.628,415.739L616.628,415.739z M370.357,655.838
				c0,8.92,7.267,16.13,16.2,16.13c8.892,0,16.16-7.21,16.16-16.13c0-30.17,12.225-57.445,31.975-77.2l0.043,0.04
				c19.75-19.715,47.107-31.965,77.287-31.965c30.137,0,57.497,12.25,77.247,31.965l0.81,0.765
				c19.32,19.68,31.21,46.65,31.21,76.395c0,8.92,7.26,16.13,16.15,16.13c8.94,0,16.21-7.21,16.21-16.13
				c0-38.535-15.48-73.49-40.57-99.01c-0.3-0.34-0.6-0.64-0.94-0.98c-25.61-25.565-61.04-41.397-100.117-41.397
				c-39.115,0-74.55,15.832-100.157,41.397v0.045v0.04C386.217,581.494,370.357,616.833,370.357,655.838L370.357,655.838z
				 M325.557,732.488c7.995-3.925,17.655-0.64,21.63,7.34c3.932,7.975,0.643,17.625-7.352,21.555l-84.47,41.52l-0.728,0.34
				c-3.93,1.88-9.062,3.415-13.935,3.545h-0.47c-4.617,0.04-9.235-1.07-13.295-3.84c-4.745-3.25-8.12-8.11-9.19-15.025
				c-0.64-4.565-0.088-10.2,2.307-17.155h-0.043l30.052-89.495c-15.347-23.64-27.615-49.545-36.165-77.115
				c-9.062-29.23-13.937-60.175-13.937-92.142c0-86.035,34.925-163.92,91.395-220.294c56.47-56.377,134.487-91.242,220.664-91.242
				c86.137,0,164.147,34.865,220.617,91.242c56.47,56.375,91.4,134.26,91.4,220.294c0,85.997-34.93,163.877-91.4,220.257
				c-56.47,56.375-134.48,91.245-220.617,91.245c-18.85,0-37.49-1.755-55.872-5.04c-18.677-3.37-36.717-8.365-53.902-14.85
				c-8.337-3.115-12.527-12.415-9.405-20.74c3.162-8.325,12.482-12.545,20.82-9.39c15.56,5.845,31.672,10.33,48.175,13.315
				c16.03,2.905,32.83,4.4,50.185,4.4c77.207,0,147.137-31.245,197.757-81.775c50.61-50.525,81.9-120.345,81.9-197.422
				c0-77.115-31.29-146.935-81.9-197.465c-50.62-50.527-120.55-81.767-197.757-81.767c-77.245,0-147.177,31.24-197.792,81.767
				c-50.612,50.53-81.905,120.35-81.905,197.465c0,28.852,4.36,56.632,12.395,82.667c8.295,26.63,20.477,51.64,35.952,74.3
				c3.59,4.61,4.445,10.88,2.05,16.345l-27.442,81.685L325.557,732.488z"/>
		</g>
	</g>
</g>
</svg>
