<?xml version="1.0" encoding="utf-8"?>
<!-- Generator: Adobe Illustrator 16.0.0, SVG Export Plug-In . SVG Version: 6.00 Build 0)  -->
<!DOCTYPE svg PUBLIC "-//W3C//DTD SVG 1.1//EN" "http://www.w3.org/Graphics/SVG/1.1/DTD/svg11.dtd">
<svg version="1.1" id="图层_1" xmlns="http://www.w3.org/2000/svg" xmlns:xlink="http://www.w3.org/1999/xlink" x="0px" y="0px"
	 width="32.837px" height="24.095px" viewBox="0 0 32.837 24.095" enable-background="new 0 0 32.837 24.095" xml:space="preserve">
<g>
	<g>
		<path fill-rule="evenodd" clip-rule="evenodd" fill="#C8C8C8" d="M18.736,9.479h9.449v1.635h-9.449V9.479L18.736,9.479
			L18.736,9.479z M21.613,21.486l-0.087-0.06H2.957c-0.742,0-1.307-0.588-1.307-1.314V2.941c0-0.731,0.565-1.389,1.307-1.389h26.447
			c0.747,0,1.335,0.569,1.335,1.311v10.294l0.06,0.083c0.414,0.252,0.845,0.581,1.16,0.982l0.354,0.417V2.534
			C32.312,1.144,31.133,0,29.738,0H2.543C1.149,0,0,1.144,0,2.534v17.979c0,1.395,1.149,2.546,2.543,2.546h20.122l-0.234-0.335
			C22.095,22.322,21.86,21.908,21.613,21.486L21.613,21.486L21.613,21.486z M18.736,13.074h2.79v1.644h-2.79V13.074L18.736,13.074
			L18.736,13.074z M18.736,5.972h9.449v1.63h-9.449V5.972L18.736,5.972L18.736,5.972z M27.36,13.33
			c-3.044,0-5.422,2.366-5.422,5.387c0,2.948,2.475,5.404,5.422,5.404c3.046,0,5.421-2.369,5.421-5.404
			C32.781,15.696,30.328,13.33,27.36,13.33L27.36,13.33L27.36,13.33z M27.282,21.999c-0.257,0.234-0.747,0.234-1.061,0l-2.318-2.291
			c-0.234-0.265-0.234-0.746,0-0.991c0.256-0.234,0.747-0.234,1.062,0l1.825,1.797l3.538-3.437c0.234-0.232,0.745-0.232,1.061,0
			c0.254,0.245,0.254,0.745,0,0.992L27.282,21.999L27.282,21.999L27.282,21.999z M13.275,11.366
			c0.874-0.791,1.444-1.947,1.444-3.247c0-2.403-1.954-4.347-4.356-4.347c-2.405,0-4.356,1.944-4.356,4.347
			c0,1.3,0.565,2.456,1.448,3.247c-2.391,1.109-4.061,3.535-4.061,6.348h1.739c0-2.883,2.343-5.226,5.23-5.226
			s5.23,2.343,5.23,5.226h1.739C17.331,14.9,15.667,12.475,13.275,11.366L13.275,11.366z M10.362,5.515
			c1.443,0,2.618,1.165,2.618,2.604c0,1.448-1.174,2.622-2.618,2.622S7.754,9.567,7.754,8.119C7.754,6.68,8.919,5.515,10.362,5.515
			L10.362,5.515z"/>
	</g>
</g>
</svg>
