<?xml version="1.0" encoding="utf-8"?>
<!-- Generator: Adobe Illustrator 19.0.0, SVG Export Plug-In . SVG Version: 6.00 Build 0)  -->
<svg version="1.1" id="图层_1" xmlns="http://www.w3.org/2000/svg" xmlns:xlink="http://www.w3.org/1999/xlink" x="0px" y="0px"
	 viewBox="178 0 22 22" style="enable-background:new 178 0 22 22;" xml:space="preserve">
<style type="text/css">
	.st0{fill:#BCBCBC;}
	.st1{fill:#FFFFFF;}
	.st2{display:none;}
	.st3{display:inline;}
	.st4{fill:#55AFFF;}
</style>
<g>
	<g>
		<g transform="scale(0.1953125, 0.1953125)">
			<g>
				<path class="st0" d="M989.3,96.3H939c-3,0-5.4-2.4-5.4-5.4V16.3c0-3,2.4-5.4,5.4-5.4h50.3c3,0,5.4,2.4,5.4,5.4v74.6
					C994.7,93.9,992.3,96.3,989.3,96.3z M964.2,90.9c2,0,3.6-1.6,3.6-3.6c0-2-1.6-3.6-3.6-3.6c-2,0-3.6,1.6-3.6,3.6
					C960.6,89.3,962.2,90.9,964.2,90.9z M989.3,21.7h-1.8h-46.7H939v56.6h1.8h46.7h1.8V21.7z"/>
			</g>
		</g>
	</g>
	<g>
		<g id="XMLID_8_">
			<circle class="st0" cx="193.3" cy="16.4" r="3.1"/>
		</g>
		<g>
			<g>
				<path class="st1" d="M191.7,18.1c0,0-0.1,0-0.1-0.1c-0.1-0.1-0.1-0.2,0-0.2l3.4-3.4c0.1-0.1,0.2-0.1,0.2,0
					c0.1,0.1,0.1,0.2,0,0.2l-3.4,3.4C191.8,18.1,191.7,18.1,191.7,18.1z"/>
			</g>
			<g>
				<path class="st1" d="M195,18.1c0,0-0.1,0-0.1-0.1l-3.4-3.4c-0.1-0.1-0.1-0.2,0-0.2c0.1-0.1,0.2-0.1,0.2,0l3.4,3.4
					c0.1,0.1,0.1,0.2,0,0.2C195.1,18.1,195.1,18.1,195,18.1z"/>
			</g>
		</g>
	</g>
</g>
<g class="st2">
	<g class="st3">
		<g transform="scale(0.1953125, 0.1953125)">
			<g>
				<g>
					<path class="st0" d="M1002.7,21.7h-78.4c-4.3,0-7.9,3.5-7.9,7.9v48.1c0,4.4,3.5,7.9,7.9,7.9h78.4c4.4,0,7.9-3.5,7.9-7.9V29.5
						C1010.6,25.2,1007.1,21.7,1002.7,21.7L1002.7,21.7z M1000.8,27.3L969.6,55c-2.7,2.4-4.7,3.6-6,3.6c-1.3,0-3.3-1.2-6-3.6
						l-31.3-27.7H1000.8L1000.8,27.3z M922.3,75.9V32.4l24.4,21.4L922.3,75.9L922.3,75.9z M926.4,79.8l24.5-21.8l4,3.5
						c2.3,2,5.2,3.1,8.6,3.1c3.4,0,6.3-1,8.6-3.1l4-3.5l24.5,21.8H926.4L926.4,79.8z M1004.7,75.9l-24.4-22l24.4-21.4V75.9
						L1004.7,75.9z"/>
				</g>
			</g>
		</g>
	</g>
	<g class="st3">
		<g id="XMLID_1_">
			<g>
				<circle class="st0" cx="196.3" cy="15.4" r="3.1"/>
			</g>
		</g>
		<g>
			<g>
				<g>
					<path class="st1" d="M194.7,17.1c0,0-0.1,0-0.1-0.1c-0.1-0.1-0.1-0.2,0-0.2l3.4-3.4c0.1-0.1,0.2-0.1,0.2,0
						c0.1,0.1,0.1,0.2,0,0.2l-3.4,3.4C194.7,17.1,194.7,17.1,194.7,17.1z"/>
				</g>
			</g>
			<g>
				<g>
					<path class="st1" d="M198,17.1c0,0-0.1,0-0.1-0.1l-3.4-3.4c-0.1-0.1-0.1-0.2,0-0.2c0.1-0.1,0.2-0.1,0.2,0l3.4,3.4
						c0.1,0.1,0.1,0.2,0,0.2C198.1,17.1,198.1,17.1,198,17.1z"/>
				</g>
			</g>
		</g>
	</g>
</g>
<g class="st2">
	<g id="XMLID_46_" class="st3">
		<g id="XMLID_47_" transform="scale(0.1953125, 0.1953125)">
			<g id="XMLID_48_">
				<path class="st0" d="M936.7,29.6H948v9h-11.3V29.6z M961.4,29.6h11.3v9h-11.3V29.6z M981.4,29.6h11.3v9h-11.3V29.6z M936.7,49.8
					H948v9h-11.3V49.8z M961.4,49.8h11.3v9h-11.3V49.8z M981.4,49.8h11.3v9h-11.3V49.8z M936.7,70H948v9h-11.3V70z M961.4,70h11.3v9
					h-11.3V70z M981.4,70h11.3v9h-11.3V70z M927.8,20.7v67h76.1v-67L927.8,20.7z M999.8,83.7h-68V24.7h68V83.7z"/>
			</g>
		</g>
	</g>
	<g class="st3">
		<g id="XMLID_2_">
			<circle class="st0" cx="193.9" cy="15.4" r="3.1"/>
		</g>
		<g>
			<g>
				<path class="st1" d="M192.3,17.1c0,0-0.1,0-0.1-0.1c-0.1-0.1-0.1-0.2,0-0.2l3.4-3.4c0.1-0.1,0.2-0.1,0.2,0
					c0.1,0.1,0.1,0.2,0,0.2l-3.4,3.4C192.4,17.1,192.3,17.1,192.3,17.1z"/>
			</g>
			<g>
				<path class="st1" d="M195.6,17.1c0,0-0.1,0-0.1-0.1l-3.4-3.4c-0.1-0.1-0.1-0.2,0-0.2c0.1-0.1,0.2-0.1,0.2,0l3.4,3.4
					c0.1,0.1,0.1,0.2,0,0.2C195.7,17.1,195.7,17.1,195.6,17.1z"/>
			</g>
		</g>
	</g>
</g>
<g>
	<g>
		<g transform="scale(0.1953125, 0.1953125)">
			<g>
				<path class="st4" d="M881.8,207.7h-50.3c-3,0-5.4-2.4-5.4-5.4v-74.6c0-3,2.4-5.4,5.4-5.4h50.3c3,0,5.4,2.4,5.4,5.4v74.6
					C887.2,205.3,884.8,207.7,881.8,207.7z M856.6,202.3c2,0,3.6-1.6,3.6-3.6c0-2-1.6-3.6-3.6-3.6c-2,0-3.6,1.6-3.6,3.6
					C853,200.7,854.7,202.3,856.6,202.3z M881.8,133.1H880h-46.7h-1.8v56.6h1.8H880h1.8V133.1z"/>
			</g>
		</g>
	</g>
	<g>
		<g id="XMLID_7_">
			<circle class="st4" cx="172" cy="38" r="3.1"/>
		</g>
		<g id="XMLID_6_">
			<path class="st1" d="M171.7,40c0,0-0.1,0.1-0.1,0l-1.7-1.6c-0.1-0.1-0.1-0.2,0-0.2c0.1-0.1,0.2-0.1,0.2,0l1.6,1.5l2.3-3.2
				c0.1-0.1,0.2-0.1,0.2,0c0.1,0.1,0.1,0.2,0,0.2l-2.4,3.2C171.9,40,171.8,40,171.7,40C171.8,40,171.8,40,171.7,40z"/>
		</g>
	</g>
</g>
<g class="st2">
	<g id="XMLID_4_" class="st3">
		<g id="XMLID_5_" transform="scale(0.1953125, 0.1953125)">
			<g id="XMLID_9_">
				<path class="st4" d="M936.7,29.6H948v9h-11.3V29.6z M961.4,29.6h11.3v9h-11.3V29.6z M981.4,29.6h11.3v9h-11.3V29.6z M936.7,49.8
					H948v9h-11.3V49.8z M961.4,49.8h11.3v9h-11.3V49.8z M981.4,49.8h11.3v9h-11.3V49.8z M936.7,70H948v9h-11.3V70z M961.4,70h11.3v9
					h-11.3V70z M981.4,70h11.3v9h-11.3V70z M927.8,20.7v67h76.1v-67L927.8,20.7z M999.8,83.7h-68V24.7h68V83.7z"/>
			</g>
		</g>
	</g>
	<g id="XMLID_3_" class="st3">
		<circle class="st4" cx="193.9" cy="15.4" r="3.1"/>
	</g>
	<g id="XMLID_24_" class="st3">
		<path class="st1" d="M193.7,17c0,0-0.1,0.1-0.1,0l-1.7-1.6c-0.1-0.1-0.1-0.2,0-0.2s0.2-0.1,0.2,0l1.6,1.5l2.3-3.2
			c0.1-0.1,0.2-0.1,0.2,0c0.1,0.1,0.1,0.2,0,0.2l-2.4,3.2C193.9,17,193.8,17,193.7,17C193.8,17,193.8,17,193.7,17z"/>
	</g>
</g>
<g class="st2">
	<g class="st3">
		<g transform="scale(0.1953125, 0.1953125)">
			<g>
				<path class="st4" d="M1002.7,21.7h-78.4c-4.3,0-7.9,3.5-7.9,7.9v48.1c0,4.4,3.5,7.9,7.9,7.9h78.4c4.4,0,7.9-3.5,7.9-7.9V29.5
					C1010.6,25.2,1007.1,21.7,1002.7,21.7L1002.7,21.7z M1000.8,27.3L969.6,55c-2.7,2.4-4.7,3.6-6,3.6c-1.3,0-3.3-1.2-6-3.6
					l-31.3-27.7H1000.8L1000.8,27.3z M922.3,75.9V32.4l24.4,21.4L922.3,75.9L922.3,75.9z M926.4,79.8l24.5-21.8l4,3.5
					c2.3,2,5.2,3.1,8.6,3.1c3.4,0,6.3-1,8.6-3.1l4-3.5l24.5,21.8H926.4L926.4,79.8z M1004.7,75.9l-24.4-22l24.4-21.4V75.9
					L1004.7,75.9z"/>
			</g>
		</g>
	</g>
	<g id="XMLID_21_" class="st3">
		<circle class="st4" cx="196.3" cy="15.4" r="3.1"/>
	</g>
	<g id="XMLID_22_" class="st3">
		<path class="st1" d="M195.7,17c0,0-0.1,0.1-0.1,0l-1.7-1.6c-0.1-0.1-0.1-0.2,0-0.2s0.2-0.1,0.2,0l1.6,1.5l2.3-3.2
			c0.1-0.1,0.2-0.1,0.2,0c0.1,0.1,0.1,0.2,0,0.2l-2.4,3.2C195.9,17,195.8,17,195.7,17C195.8,17,195.8,17,195.7,17z"/>
	</g>
</g>
</svg>
