<?xml version="1.0" encoding="utf-8"?>
<!-- Generator: Adobe Illustrator 19.0.0, SVG Export Plug-In . SVG Version: 6.00 Build 0)  -->
<svg version="1.1" id="图层_1" xmlns="http://www.w3.org/2000/svg" xmlns:xlink="http://www.w3.org/1999/xlink" x="0px" y="0px"
	 viewBox="0 0 30 30" style="enable-background:new 0 0 30 30;" xml:space="preserve">
<style type="text/css">
	.st0{fill:#62727B;}
</style>
<g id="XMLID_1_">
	<g id="XMLID_2540_">
		<g id="XMLID_2541_">
			<path id="XMLID_2539_" class="st0" d="M15.5,29.2l-0.7-0.4l0.7-1.2c0.7-1.3,0.8-1.4,1.8-2.6c3-3.4,7-7.3,7-7.4l3-3.2
				c1.3-1.6,1.5-3.5,1.5-5.3c0-3.7-3.8-6.4-7.1-6.4c-3.4,0-6,2.6-6.1,6.1l-0.4,0l-0.4,0C14.6,5.3,12,2.7,8.6,2.7
				c-3.4,0-7.1,2.7-7.1,6.4c0,1.7,0.2,3.6,1.5,5.3l3,3.1l0,0c0,0,0.7,0.7,1.8,1.8l-0.6,0.6c-1-1.1-1.8-1.8-1.8-1.8l-3-3.1
				C0.8,13,0.6,11,0.6,9.1c0-4.1,4.2-7.2,8-7.2c3.1,0,5.6,1.9,6.6,4.7c1-2.8,3.5-4.7,6.6-4.7c3.8,0,8,3.1,8,7.2
				c0,1.9-0.2,3.9-1.7,5.8l-3,3.2c-0.1,0.1-4.1,4-7,7.3c-1,1.1-1,1.2-1.7,2.5L15.5,29.2z"/>
			<path id="XMLID_2546_" class="st0" d="M15.5,29.4c0,0-0.1,0-0.1,0l-0.7-0.4c-0.1-0.1-0.1-0.2-0.1-0.3l0.7-1.2
				c0.8-1.3,0.8-1.4,1.9-2.6c3-3.4,7-7.3,7-7.4l3-3.2c1.3-1.6,1.4-3.4,1.4-5.1c0-3.5-3.6-6.2-6.9-6.2c-3.2,0-5.8,2.5-5.9,5.9
				c0,0.1-0.1,0.2-0.2,0.2c0,0,0,0,0,0l-0.4,0l-0.4,0c-0.1,0-0.2-0.1-0.2-0.2c-0.1-3.3-2.7-5.9-5.9-5.9c-3.3,0-6.9,2.6-6.9,6.2
				c0,1.7,0.2,3.5,1.5,5.1l2.9,3.1c0,0,0.7,0.7,1.8,1.8c0,0,0.1,0.1,0.1,0.2c0,0.1,0,0.1-0.1,0.1L7.3,20C7.2,20.1,7,20.1,7,20
				c-1-1.1-1.8-1.8-1.8-1.8l-3-3.1c-1.6-2-1.8-4-1.8-6c0-4.3,4.3-7.4,8.2-7.4c2.9,0,5.4,1.7,6.6,4.3c1.1-2.6,3.7-4.3,6.6-4.3
				c3.9,0,8.2,3.2,8.2,7.5c0,2-0.2,4-1.8,5.9l-3,3.2c-0.7,0.7-4.3,4.3-7,7.3c-1,1.1-1,1.1-1.7,2.4l-0.7,1.2
				C15.7,29.3,15.7,29.4,15.5,29.4C15.6,29.4,15.6,29.4,15.5,29.4z M15.1,28.7l0.4,0.2l0.6-1.1c0.7-1.3,0.8-1.3,1.8-2.5
				c2.7-3.1,6.3-6.6,7-7.3l3-3.2c1.4-1.8,1.6-3.8,1.6-5.7c0-4-4.1-7-7.7-7c-2.9,0-5.4,1.8-6.4,4.5c-0.1,0.2-0.3,0.2-0.4,0
				c-1-2.8-3.5-4.5-6.4-4.5c-3.7,0-7.7,3-7.7,7c0,1.9,0.2,3.8,1.7,5.7l3,3.1l0,0c0,0,0.6,0.6,1.6,1.6l0.3-0.3c-1-1-1.6-1.6-1.6-1.6
				l-3-3.1c-1.4-1.7-1.6-3.6-1.6-5.4c0-3.8,3.9-6.6,7.3-6.6c3.4,0,6.1,2.6,6.3,6.1l0.2,0l0.2,0c0.2-3.5,2.9-6.1,6.3-6.1
				c3.5,0,7.3,2.8,7.3,6.6c0,1.8-0.2,3.7-1.5,5.4l-3,3.2c0,0-4.1,4-7,7.4c-1,1.2-1.1,1.3-1.8,2.6L15.1,28.7z"/>
		</g>
	</g>
	<g id="XMLID_2538_">
		<path id="XMLID_2545_" class="st0" d="M11.8,28.7c-0.3,0-0.5-0.2-0.5-0.5v-4.5H7.1c-0.3,0-0.5-0.2-0.5-0.5s0.2-0.5,0.5-0.5h4.2
			v-4.5c0-0.3,0.2-0.5,0.5-0.5s0.5,0.2,0.5,0.5v4.5h4.3c0.3,0,0.5,0.2,0.5,0.5s-0.2,0.5-0.5,0.5h-4.3v4.5
			C12.3,28.5,12.1,28.7,11.8,28.7z"/>
	</g>
</g>
</svg>
