<?xml version="1.0" encoding="utf-8"?>
<!-- Generator: Adobe Illustrator 19.0.0, SVG Export Plug-In . SVG Version: 6.00 Build 0)  -->
<svg version="1.1" id="图层_1" xmlns="http://www.w3.org/2000/svg" xmlns:xlink="http://www.w3.org/1999/xlink" x="0px" y="0px"
	 viewBox="0 0 47 47" style="enable-background:new 0 0 47 47;" xml:space="preserve">
<style type="text/css">
	.st0{fill:#F2BF1C;}
	.st1{display:none;fill:#F2BF1C;}
</style>
<g id="XMLID_29_">
	<g id="XMLID_27_">
		<path id="XMLID_32_" class="st0" d="M47,45.1L1.9,0H47V45.1z M4.2,0.9l41.9,41.9V0.9H4.2z"/>
	</g>
	<g id="XMLID_28_">
		<path id="XMLID_31_" class="st0" d="M32.1,24.8l-0.5-0.5C21.1,13.4,21,13,20.9,12.9c-0.1-0.3,0.1-0.5,0.3-0.6
			c0.2-0.1,0.5,0,0.6,0.2c0.4,0.6,6.1,6.5,10.1,10.7L44.2,2.8c0.1-0.2,0.5-0.3,0.7-0.2C45.1,2.7,45.2,3,45,3.3L32.1,24.8z"/>
	</g>
</g>
<path id="XMLID_35_" class="st1" d="M3.5,0l21.8,21.8L47,43.5V0H3.5z M45.5,2.8L32.6,24.3l-0.5-0.5c-10.6-11-10.7-11.3-10.7-11.4
	c-0.1-0.3,0.1-0.5,0.3-0.6c0.2-0.1,0.5,0,0.6,0.2c0.4,0.6,6.1,6.5,10.1,10.7L44.7,2.3c0.1-0.2,0.5-0.3,0.7-0.2
	C45.6,2.3,45.7,2.6,45.5,2.8z"/>
</svg>
