<?xml version="1.0" encoding="utf-8"?>
<!-- Generator: Adobe Illustrator 16.0.0, SVG Export Plug-In . SVG Version: 6.00 Build 0)  -->
<!DOCTYPE svg PUBLIC "-//W3C//DTD SVG 1.1//EN" "http://www.w3.org/Graphics/SVG/1.1/DTD/svg11.dtd">
<svg version="1.1" id="图层_1" xmlns="http://www.w3.org/2000/svg" xmlns:xlink="http://www.w3.org/1999/xlink" x="0px" y="0px"
	 width="121.89px" height="121.89px" viewBox="39.055 39.055 121.89 121.89" enable-background="new 39.055 39.055 121.89 121.89"
	 xml:space="preserve">
<g>
	<g transform="scale(0.1953125, 0.1953125)">
		<path fill="#F4C600" d="M325.244,732.868c8.008-3.945,17.685-0.65,21.667,7.345c3.94,7.995,0.643,17.655-7.365,21.59
			l-84.612,41.59l-0.725,0.34c-3.937,1.89-9.077,3.42-13.96,3.55h-0.47c-4.625,0.04-9.25-1.07-13.317-3.845
			c-4.752-3.255-8.135-8.12-9.205-15.045c-0.643-4.575-0.087-10.22,2.315-17.19h-0.047l30.102-89.64
			c-15.367-23.69-27.66-49.635-36.222-77.245c-9.08-29.28-13.962-60.275-13.962-92.295c0-86.18,34.982-164.195,91.547-220.664
			s134.71-91.395,221.034-91.395c86.275,0,164.42,34.925,220.984,91.395c56.565,56.467,91.55,134.485,91.55,220.664
			c0,86.13-34.985,164.15-91.55,220.614c-56.565,56.475-134.71,91.4-220.984,91.4c-18.882,0-37.555-1.75-55.967-5.04
			c-18.712-3.375-36.78-8.385-53.997-14.885c-8.347-3.11-12.542-12.43-9.42-20.77c3.168-8.335,12.502-12.57,20.855-9.4
			c15.585,5.85,31.732,10.345,48.26,13.335c16.052,2.91,32.885,4.405,50.27,4.405c77.325,0,147.38-31.29,198.08-81.91
			c50.695-50.61,82.04-120.545,82.04-197.75c0-77.245-31.345-147.18-82.04-197.795c-50.7-50.61-120.755-81.902-198.08-81.902
			c-77.375,0-147.427,31.292-198.124,81.902c-50.695,50.615-82.042,120.55-82.042,197.795c0,28.905,4.367,56.725,12.415,82.8
			c8.31,26.68,20.512,51.725,36.015,74.43c3.595,4.615,4.452,10.895,2.052,16.37l-27.487,81.82L325.244,732.868z M370.119,530.624
			c0-8.935,7.28-16.165,16.227-16.165c8.907,0,16.187,7.23,16.187,16.165c0,30.215,12.245,57.54,32.027,77.285h0.045
			c19.777,19.75,47.182,32.015,77.417,32.015c30.19,0,57.59-12.265,77.375-32.015l0.81-0.765
			c19.355-19.715,31.255-46.725,31.255-76.52c0-8.935,7.28-16.165,16.185-16.165c8.96,0,16.235,7.23,16.235,16.165
			c0,38.595-15.505,73.605-40.635,99.17c-0.3,0.345-0.61,0.64-0.945,0.98c-25.655,25.615-61.15,41.47-100.28,41.47
			c-39.18,0-74.68-15.855-100.327-41.47v-0.04v-0.04C386.004,605.089,370.119,569.689,370.119,530.624L370.119,530.624z
			 M616.798,457.561c0,8.935-7.275,16.162-16.23,16.162c-8.945,0-16.18-7.227-16.18-16.162c0-16.072,6.51-30.602,17.04-41.12
			c10.575-10.515,25.135-17.055,41.235-17.055c16.055,0,30.62,6.54,41.145,17.055c10.575,10.517,17.09,25.047,17.09,41.12
			c0,8.935-7.24,16.162-16.19,16.162c-8.955,0-16.225-7.227-16.225-16.162c0-7.137-2.865-13.592-7.575-18.25
			c-4.675-4.66-11.14-7.567-18.245-7.567c-7.155,0-13.62,2.908-18.29,7.567C619.663,443.969,616.798,450.424,616.798,457.561
			L616.798,457.561z M355.519,457.561c0,8.935-7.277,16.162-16.19,16.162c-8.945,0-16.222-7.227-16.222-16.162
			c0-16.072,6.547-30.602,17.082-41.12c10.535-10.515,25.095-17.055,41.192-17.055c16.057,0,30.657,6.54,41.192,17.055
			c10.532,10.517,17.042,25.047,17.042,41.12c0,8.935-7.237,16.162-16.185,16.162c-8.952,0-16.23-7.227-16.23-16.162
			c0-7.137-2.867-13.592-7.535-18.25c-4.668-4.66-11.177-7.567-18.285-7.567c-7.15,0-13.62,2.908-18.285,7.567
			C358.429,443.969,355.519,450.424,355.519,457.561L355.519,457.561z"/>
	</g>
</g>
</svg>
