<?xml version="1.0" encoding="utf-8"?>
<!-- Generator: Adobe Illustrator 19.0.0, SVG Export Plug-In . SVG Version: 6.00 Build 0)  -->
<svg version="1.1" id="图层_1" xmlns="http://www.w3.org/2000/svg" xmlns:xlink="http://www.w3.org/1999/xlink" x="0px" y="0px"
	 viewBox="0 0 38 38" style="enable-background:new 0 0 38 38;" xml:space="preserve">
<style type="text/css">
	.st0{display:none;}
	.st1{display:inline;}
	.st2{fill:#272728;}
	.st3{fill:none;stroke:#272728;stroke-width:2;stroke-linecap:round;stroke-linejoin:round;stroke-miterlimit:10;}
	.st4{fill:#F1BE1C;}
	.st5{display:inline;fill:#F1BE1C;}
	.st6{fill:#FFFFFF;}
	.st7{display:inline;fill:#FB5B46;}
	.st8{fill:#C1C1C1;}
	.st9{fill:#D8D7D7;}
	.st10{fill:#FB482B;}
</style>
<g id="XMLID_137_" class="st0">
	<g id="XMLID_149_" class="st1">
		<g id="XMLID_366_">
			<path id="XMLID_6_" class="st2" d="M13,40.4H2.6c-1.5,0-2.8-1.3-2.8-2.8V26.4c0-0.6,0.4-1,1-1s1,0.4,1,1v11.1
				c0,0.4,0.4,0.8,0.8,0.8H13c0.6,0,1,0.4,1,1S13.5,40.4,13,40.4z"/>
		</g>
		<g id="XMLID_150_">
			<path id="XMLID_5_" class="st2" d="M0.8,15.4c-0.6,0-1-0.4-1-1V4c0-1.5,1.3-2.8,2.8-2.8h10.3c0.6,0,1,0.4,1,1s-0.4,1-1,1H2.6
				C2.2,3.2,1.8,3.5,1.8,4v10.5C1.8,15,1.4,15.4,0.8,15.4z"/>
		</g>
	</g>
	<g id="XMLID_143_" class="st1">
		<g id="XMLID_145_">
			<path id="XMLID_4_" class="st2" d="M36.2,40.4H25.8c-0.6,0-1-0.4-1-1s0.4-1,1-1h10.4c0.4,0,0.8-0.4,0.8-0.8V26.4c0-0.6,0.4-1,1-1
				s1,0.4,1,1v11.1C38.9,39.1,37.7,40.4,36.2,40.4z"/>
		</g>
		<g id="XMLID_144_">
			<path id="XMLID_7_" class="st2" d="M37.9,15.4c-0.6,0-1-0.4-1-1V4c0-0.4-0.4-0.8-0.8-0.8H25.8c-0.6,0-1-0.4-1-1s0.4-1,1-1h10.3
				c1.5,0,2.8,1.3,2.8,2.8v10.5C38.9,15,38.5,15.4,37.9,15.4z"/>
		</g>
	</g>
	<g id="XMLID_141_" class="st1">
		<path id="XMLID_3_" class="st2" d="M40,21H0c-0.6,0-1-0.4-1-1s0.4-1,1-1h40c0.6,0,1,0.4,1,1S40.6,21,40,21z"/>
	</g>
</g>
<g id="XMLID_385_" class="st0">
	<g id="XMLID_407_" class="st1">
		<path id="XMLID_16_" class="st2" d="M5.7,38.1l2.6-4.3c-5.7-2.9-9.1-7.9-9.1-13.3c0-8.8,9.1-15.9,20.3-15.9
			c11.2,0,20.3,7.1,20.3,15.9s-9.1,15.9-20.3,15.9c-0.7,0-1.5,0-2.4-0.1L5.7,38.1z M19.5,6.6C9.4,6.6,1.2,12.8,1.2,20.5
			c0,4.9,3.4,9.4,9,11.9l1,0.5l-1.5,2.5l7.4-1.2l0.1,0c0.9,0.1,1.7,0.1,2.4,0.1c10.1,0,18.3-6.2,18.3-13.9
			C37.9,12.8,29.7,6.6,19.5,6.6z"/>
	</g>
	<g id="XMLID_395_" class="st1">
		<path id="XMLID_13_" class="st2" d="M8,23.2c-1.6,0-2.8-1.3-2.8-2.8s1.3-2.8,2.8-2.8s2.8,1.3,2.8,2.8S9.6,23.2,8,23.2z M8,19.6
			c-0.4,0-0.8,0.4-0.8,0.8c0,0.4,0.4,0.8,0.8,0.8s0.8-0.4,0.8-0.8C8.8,20,8.5,19.6,8,19.6z"/>
	</g>
	<g id="XMLID_394_" class="st1">
		<path id="XMLID_10_" class="st2" d="M20,23.2c-1.6,0-2.8-1.3-2.8-2.8s1.3-2.8,2.8-2.8c1.6,0,2.8,1.3,2.8,2.8S21.6,23.2,20,23.2z
			 M20,19.6c-0.4,0-0.8,0.4-0.8,0.8c0,0.4,0.4,0.8,0.8,0.8c0.4,0,0.8-0.4,0.8-0.8C20.8,20,20.5,19.6,20,19.6z"/>
	</g>
	<g id="XMLID_386_" class="st1">
		<path id="XMLID_8_" class="st2" d="M32,23.2c-1.6,0-2.8-1.3-2.8-2.8s1.3-2.8,2.8-2.8s2.8,1.3,2.8,2.8S33.6,23.2,32,23.2z M32,19.6
			c-0.4,0-0.8,0.4-0.8,0.8c0,0.4,0.4,0.8,0.8,0.8s0.8-0.4,0.8-0.8C32.8,20,32.5,19.6,32,19.6z"/>
	</g>
</g>
<g id="XMLID_455_" class="st0">
	<g id="XMLID_458_" class="st1">
		<path id="XMLID_49_" class="st2" d="M37.5,22.2c-0.3,0-0.5-0.1-0.7-0.3L20.4,5.3L3.9,21.9c-0.4,0.4-1,0.4-1.4,0
			c-0.4-0.4-0.4-1,0-1.4L19.7,3.2C19.9,3,20.2,3,20.4,3c0,0,0,0,0,0c0.3,0,0.5,0,0.7,0.2l17.1,17.2c0.4,0.4,0.4,1,0,1.4
			C38,22.1,37.7,22.2,37.5,22.2z"/>
	</g>
	<g id="XMLID_457_" class="st1">
		<path id="XMLID_48_" class="st2" d="M30,35.8H10.7c-1.7,0-3-1.3-3-3V20.2c0-0.6,0.4-1,1-1s1,0.4,1,1v12.7c0,0.6,0.4,1,1,1H30
			c0.6,0,1-0.4,1-1V20.2c0-0.6,0.4-1,1-1s1,0.4,1,1v12.7C33,34.5,31.7,35.8,30,35.8z"/>
	</g>
	<g id="XMLID_456_" class="st1">
		<path id="XMLID_45_" class="st2" d="M23,35.1h-5.4c-0.4,0-0.8-0.3-0.8-0.8v-6.5c0-0.4,0.3-0.8,0.8-0.8H23c0.4,0,0.8,0.3,0.8,0.8
			v6.5C23.8,34.7,23.4,35.1,23,35.1z M18.4,33.6h3.9v-5h-3.9V33.6z"/>
	</g>
</g>
<g id="XMLID_554_" class="st0">
	<g id="XMLID_467_" class="st1">
		<g id="XMLID_468_">
			<path id="XMLID_57_" class="st2" d="M23.8,35.4c-5.2,0-9.3-4.2-9.3-9.3s4.2-9.3,9.3-9.3s9.3,4.2,9.3,9.3S29,35.4,23.8,35.4z
				 M23.8,18.7c-4,0-7.3,3.3-7.3,7.3s3.3,7.3,7.3,7.3c4,0,7.3-3.3,7.3-7.3S27.9,18.7,23.8,18.7z"/>
		</g>
	</g>
	<g id="XMLID_465_" class="st1">
		<g id="XMLID_466_">
			<path id="XMLID_52_" class="st2" d="M16,37.3H6.9c-1.8,0-3.3-1.5-3.3-3.3V12.5c0-0.6,0.4-1,1-1h29.8c0.6,0,1,0.4,1,1v6.7
				c0,0.6-0.4,1-1,1s-1-0.4-1-1v-5.7H5.6V34c0,0.7,0.6,1.3,1.3,1.3H16c0.6,0,1,0.4,1,1S16.5,37.3,16,37.3z"/>
		</g>
	</g>
	<g id="XMLID_462_" class="st1">
		<g id="XMLID_463_">
			<path id="XMLID_53_" class="st2" d="M34.5,13.6H4.6c-0.4,0-0.8-0.2-0.9-0.6c-0.2-0.4-0.1-0.8,0.2-1.1l6.4-7.1
				c0.2-0.2,0.5-0.3,0.7-0.3h17.1c0.3,0,0.6,0.1,0.7,0.3l6.4,7.1c0.3,0.3,0.3,0.7,0.2,1.1C35.2,13.3,34.9,13.6,34.5,13.6z M6.9,11.6
				h25.4l-4.6-5.1H11.4L6.9,11.6z"/>
		</g>
	</g>
	<g id="XMLID_459_" class="st1">
		<g id="XMLID_460_">
			<path id="XMLID_51_" class="st2" d="M8,21.4c-0.1,0-0.3,0-0.4-0.1C7.2,21.1,7,20.8,7,20.4V13c0-0.6,0.4-1,1-1s1,0.4,1,1v5.2
				l1.4-1.2c0.4-0.3,0.9-0.3,1.3,0l1.3,1.1V13c0-0.6,0.4-1,1-1s1,0.4,1,1v7.3c0,0.4-0.2,0.7-0.6,0.9c-0.4,0.2-0.8,0.1-1.1-0.1
				l-2.3-2l-2.4,2C8.5,21.3,8.2,21.4,8,21.4z"/>
		</g>
	</g>
	<g id="XMLID_521_" class="st1">
		<g id="XMLID_524_">
			<path id="XMLID_185_" class="st3" d="M33.7,37"/>
		</g>
		<g id="XMLID_523_">
			<path id="XMLID_50_" class="st2" d="M33.7,37.2c-0.2,0-0.5-0.1-0.7-0.3l-3.8-3.5c-0.4-0.4-0.4-1-0.1-1.4c0.4-0.4,1-0.4,1.4-0.1
				l3.8,3.5c0.4,0.4,0.4,1,0.1,1.4C34.2,37.1,34,37.2,33.7,37.2z"/>
		</g>
		<g id="XMLID_522_">
			<path id="XMLID_181_" class="st3" d="M29.1,32.7"/>
		</g>
	</g>
</g>
<g id="XMLID_555_" class="st0">
	<g id="XMLID_518_" class="st1">
		<path id="XMLID_65_" class="st2" d="M31,21H10c-0.6,0-1-0.4-1-1s0.4-1,1-1h21c0.6,0,1,0.4,1,1S31.6,21,31,21z"/>
	</g>
	<g id="XMLID_517_" class="st1">
		<path id="XMLID_64_" class="st2" d="M31,27H10c-0.6,0-1-0.4-1-1s0.4-1,1-1h21c0.6,0,1,0.4,1,1S31.6,27,31,27z"/>
	</g>
	<g id="XMLID_516_" class="st1">
		<path id="XMLID_63_" class="st2" d="M31,33H10c-0.6,0-1-0.4-1-1s0.4-1,1-1h21c0.6,0,1,0.4,1,1S31.6,33,31,33z"/>
	</g>
	<g id="XMLID_515_" class="st1">
		<path id="XMLID_62_" class="st2" d="M34.8,13.6c-0.2,0-0.5-0.1-0.6-0.3L30.8,8c-0.2-0.3-0.1-0.8,0.2-1c0.4-0.2,0.8-0.1,1,0.2
			l3.3,5.3c0.2,0.3,0.1,0.8-0.2,1C35,13.6,34.9,13.6,34.8,13.6z"/>
	</g>
	<g id="XMLID_500_" class="st1">
		<path id="XMLID_56_" class="st2" d="M33.9,38H6.8C5.2,38,4,36.7,4,35V8c0-1.7,1.2-3,2.8-3H29c0.6,0,1,0.4,1,1v9h6c0.6,0,1,0.4,1,1
			v19C37,36.7,35.6,38,33.9,38z M6.8,7C6.1,7,6,7.7,6,8v27c0,0.3,0.1,1,0.8,1h27.2c0.6,0,1.1-0.4,1.1-1V17h-6c-0.6,0-1-0.4-1-1V7
			H6.8z"/>
	</g>
</g>
<g id="XMLID_501_" class="st0">
	<g id="XMLID_503_" class="st1">
		<g id="XMLID_513_">
			<path id="XMLID_71_" class="st2" d="M23.4,23.6c-5,0-9.1-4.1-9.1-9.2s4.1-9.2,9.1-9.2c5,0,9.1,4.1,9.1,9.2S28.4,23.6,23.4,23.6z
				 M23.4,7.2c-3.9,0-7.1,3.2-7.1,7.2s3.2,7.2,7.1,7.2c3.9,0,7.1-3.2,7.1-7.2S27.3,7.2,23.4,7.2z"/>
		</g>
		<g id="XMLID_512_">
			<path id="XMLID_69_" class="st2" d="M11,36.6c-0.6,0-1-0.4-1-1c0-7.7,6.2-14.1,13.9-14.1c0.6,0,1,0.4,1,1s-0.4,1-1,1
				C17.4,23.6,12,29,12,35.6C12,36.2,11.6,36.6,11,36.6z"/>
		</g>
		<g id="XMLID_511_">
			<path id="XMLID_68_" class="st2" d="M36.8,36.6c-0.6,0-1-0.4-1-1c0-4.2-2.3-8.1-5.9-10.2c-0.5-0.3-0.6-0.9-0.4-1.4
				c0.3-0.5,0.9-0.6,1.4-0.4c4.2,2.5,6.9,7.1,6.9,12C37.8,36.2,37.3,36.6,36.8,36.6z"/>
		</g>
		<g id="XMLID_505_">
			<g id="XMLID_507_">
				<path id="XMLID_67_" class="st2" d="M14.5,23.4c-0.1,0-0.1,0-0.2,0c-4.3-0.8-7.4-4.6-7.4-9c0-5.1,4.1-9.2,9.1-9.2
					c0.6,0,1,0.4,1,1s-0.4,1-1,1c-3.9,0-7.1,3.2-7.1,7.2c0,3.5,2.4,6.4,5.8,7.1c0.5,0.1,0.9,0.6,0.8,1.2
					C15.4,23.1,15,23.4,14.5,23.4z"/>
			</g>
			<g id="XMLID_506_">
				<path id="XMLID_66_" class="st2" d="M3.6,36.6c-0.6,0-1-0.4-1-1c0-6.9,5.1-13.1,11.6-14.2c0.5-0.1,1.1,0.3,1.1,0.8
					c0.1,0.5-0.3,1.1-0.8,1.1c-5.6,0.9-9.9,6.3-9.9,12.2C4.6,36.2,4.1,36.6,3.6,36.6z"/>
			</g>
		</g>
	</g>
	<g id="XMLID_502_" class="st1">
		<path id="XMLID_148_" class="st3" d="M14.5,22.9"/>
	</g>
</g>
<g id="XMLID_99_" class="st0">
	<g id="XMLID_960_" class="st1">
		<polygon id="XMLID_1015_" class="st4" points="19.4,6 34.4,21 36.5,21 19.4,3.7 2.2,21 4.5,21 		"/>
		<polygon id="XMLID_1016_" class="st4" points="33,21.2 19.4,7.6 5.9,21.2 		"/>
	</g>
	<path id="XMLID_98_" class="st5" d="M8,20v12.8C8,33.9,8.6,35,9.7,35H17v-7h5v7h7c1.1,0,2-1.1,2-2.2V20H8z"/>
</g>
<g id="XMLID_100_" class="st0">
	<g id="XMLID_982_" class="st1">
		<path id="XMLID_983_" class="st4" d="M16,35.3H6.9c-1.3,0-2.3-1-2.3-2.3V12.5h29.8v20.8c0,1.1-0.9,2-2,2H16z"/>
	</g>
	<g id="XMLID_979_" class="st1">
		<path id="XMLID_980_" class="st4" d="M34.5,11.6H4.6L11,4.5h17.1L34.5,11.6z"/>
	</g>
	<g id="XMLID_977_" class="st1">
		<polyline id="XMLID_978_" class="st6" points="14,12 14,19.3 11,16.8 8,19.4 8,12 		"/>
	</g>
	<g id="XMLID_988_" class="st1">
		<path id="XMLID_989_" class="st6" d="M23.8,33.4c-4.6,0-8.3-3.7-8.3-8.3s3.7-8.3,8.3-8.3s8.3,3.7,8.3,8.3S28.4,33.4,23.8,33.4z"/>
	</g>
	<g id="XMLID_984_" class="st1">
		<g id="XMLID_987_">
			<path id="XMLID_381_" class="st6" d="M33.5,35.1"/>
		</g>
		<g id="XMLID_986_">
			<path id="XMLID_374_" class="st6" d="M33.4,35.3c-0.2,0-0.5-0.1-0.7-0.3L29,31.5c-0.4-0.4-0.4-1-0.1-1.4c0.4-0.4,1-0.4,1.4-0.1
				l3.8,3.5c0.4,0.4,0.4,1,0.1,1.4C34,35.2,33.7,35.3,33.4,35.3z"/>
		</g>
		<g id="XMLID_985_">
			<path id="XMLID_377_" class="st6" d="M28.9,30.8"/>
		</g>
	</g>
</g>
<g id="XMLID_101_" class="st0">
	<path id="XMLID_954_" class="st5" d="M29,16V6H6.8C5.7,6,5,6.9,5,8v27c0,1.1,0.7,2,1.8,2h27.2c1.1,0,2.1-0.9,2.1-2V16H29z"/>
	<g id="XMLID_958_" class="st1">
		<path id="XMLID_382_" class="st6" d="M30.7,21h-21c-0.6,0-1-0.4-1-1s0.4-1,1-1h21c0.6,0,1,0.4,1,1S31.3,21,30.7,21z"/>
	</g>
	<g id="XMLID_957_" class="st1">
		<path id="XMLID_379_" class="st6" d="M30.7,27h-21c-0.6,0-1-0.4-1-1s0.4-1,1-1h21c0.6,0,1,0.4,1,1S31.3,27,30.7,27z"/>
	</g>
	<g id="XMLID_956_" class="st1">
		<path id="XMLID_378_" class="st6" d="M30.7,33h-21c-0.6,0-1-0.4-1-1s0.4-1,1-1h21c0.6,0,1,0.4,1,1S31.3,33,30.7,33z"/>
	</g>
	<g id="XMLID_955_" class="st1">
		<path id="XMLID_383_" class="st4" d="M34.8,13.6c-0.2,0-0.5-0.1-0.6-0.3L30.8,8c-0.2-0.3-0.1-0.8,0.2-1c0.3-0.2,0.8-0.1,1,0.2
			l3.3,5.3c0.2,0.3,0.1,0.8-0.2,1C35,13.6,34.9,13.6,34.8,13.6z"/>
	</g>
</g>
<g id="XMLID_1237_" class="st0">
	<path id="XMLID_1238_" class="st7" d="M26.1,6.1c-3.7,0-6.5,2.9-6.7,6.6c0-0.3,0-0.6,0-1c0,0.3,0,0.6,0,1c-0.2-3.7-3-6.6-6.7-6.6
		c-3.8,0-7.6,3.1-7.6,6.9c0,1.8,0.2,3.8,1.6,5.6l3,3.2c0,0,4.1,4,7.1,7.5c1.3,1.5,1,0.8,2.5,3.8h0h0c1.5-3,1.3-2.3,2.5-3.8
		c3-3.5,7.1-7.4,7.1-7.4l3-3.2c1.5-1.8,1.6-3.8,1.6-5.6C33.7,9.2,29.9,6.1,26.1,6.1z"/>
</g>
<g id="XMLID_1259_" class="st0">
	<g id="XMLID_1262_" class="st1">
		<path id="XMLID_78_" class="st8" d="M35.6,42.7H2.1c-3.3,0-6-2.7-6-6V2.2c0-3.3,2.7-6,6-6h22.2c0.6,0,1,0.4,1,1s-0.4,1-1,1H2.1
			c-2.2,0-4,1.8-4,4v34.5c0,2.2,1.8,4,4,4h33.5c2.2,0,4-1.8,4-4V15.6c0-0.6,0.4-1,1-1s1,0.4,1,1v21.1C41.6,40,38.9,42.7,35.6,42.7z"
			/>
	</g>
	<g id="XMLID_1298_" class="st1">
		<g id="XMLID_1299_">
			<path id="XMLID_44_" class="st8" d="M16,25c-0.2,0,1.4-3,1.8-3.4L39.5-3.4c0.4-0.4,1-0.4,1.4-0.1c0.4,0.4,0.4,1,0.1,1.4L19.2,23
				C19,23.2,16.2,25,16,25z"/>
			<path id="XMLID_74_" class="st8" d="M16,26h-0.3l-0.2-0.5c-0.3-0.7,1.9-4,1.9-4L39.1-3.7c0.3-0.3,0.6-0.5,1-0.5
				c0.4,0,0.8,0.1,1.1,0.4c0.3,0.3,0.5,0.6,0.5,1c0,0.4-0.1,0.8-0.4,1.1L19.6,23.6C19.5,23.7,16.5,26,16,26z M40.3-3
				C40.2-3,40.2-3,40.3-3c-0.2,0-0.3-0.1-0.4,0l-21.7,25C18,22.2,17.4,23.2,17,24c0.8-0.5,1.7-1.1,1.9-1.3L40.6-2.4
				c0.1-0.1,0.1-0.2,0.1-0.4c0-0.1-0.1-0.1-0.2-0.2C40.5-3.1,40.4-3,40.3-3z"/>
		</g>
	</g>
	<g id="XMLID_1281_" class="st1">
		<path id="XMLID_70_" class="st8" d="M32,31H4c-0.3,0-0.5-0.2-0.5-0.5S3.7,30,4,30h28c0.3,0,0.5,0.2,0.5,0.5S32.3,31,32,31z"/>
	</g>
</g>
<g id="XMLID_1339_" class="st0">
	<g id="XMLID_1346_" class="st1">
		<g id="XMLID_1351_">
			<path id="XMLID_1352_" class="st9" d="M-31,40.2l-16.9-29.5c-2.2-3.8-0.9-8.7,3-10.9l74.5-42.6c3.8-2.2,8.8-0.9,10.9,3L64.4,1.9
				c2.2,3.8,0.9,8.7-3,10.9l-1.6-2.8c1.1-0.6,1.9-1.7,2.3-2.9c0.3-1.2,0.2-2.5-0.5-3.7L37.7-38.2c-1.3-2.3-4.3-3.1-6.6-1.8
				L-43.3,2.6c-2.3,1.3-3.1,4.3-1.8,6.6l16.9,29.5L-31,40.2z"/>
		</g>
		<g id="XMLID_1347_">
			<path id="XMLID_1348_" class="st9" d="M78.3,82H-18c-5,0-9-4-9-9v-54c0-5,4-9,9-9h96.3c5,0,9,4,9,9v54C87.3,77.9,83.3,82,78.3,82
				z M-18,13.5c-3,0-5.4,2.4-5.4,5.4v54c0,3,2.4,5.4,5.4,5.4h96.3c3,0,5.4-2.4,5.4-5.4v-54c0-3-2.4-5.4-5.4-5.4H-18z"/>
		</g>
	</g>
	<g id="XMLID_1344_" class="st1">
		<rect id="XMLID_1345_" x="-25" y="28" class="st9" width="107" height="4"/>
	</g>
	<g id="XMLID_1342_" class="st1">
		<rect id="XMLID_1343_" x="-25" y="39" class="st9" width="107" height="4"/>
	</g>
	<g id="XMLID_1340_" class="st1">
		<rect id="XMLID_1341_" x="41" y="66" class="st9" width="34" height="5"/>
	</g>
</g>
<path id="XMLID_115_" class="st10" d="M18.7,0.9C8.5,0.9,0.3,9.1,0.3,19.3s8.3,18.4,18.4,18.4c10.2,0,18.4-8.3,18.4-18.4
	S28.9,0.9,18.7,0.9z M18,6.7c0-0.8,0.4-1.5,1-1.5s1,0.7,1,1.5v18c0,0.8-0.4,1.5-1,1.5s-1-0.7-1-1.5V6.7z M18.9,33.9
	c-1,0-1.9-0.8-1.9-1.9c0-1,0.8-1.9,1.9-1.9s1.9,0.8,1.9,1.9C20.8,33,20,33.9,18.9,33.9z"/>
</svg>
