<?xml version="1.0" standalone="no"?><!DOCTYPE svg PUBLIC "-//W3C//DTD SVG 1.1//EN" "http://www.w3.org/Graphics/SVG/1.1/DTD/svg11.dtd"><svg width="200" height="200" viewBox="0 0 200 200" version="1.1" xmlns="http://www.w3.org/2000/svg" xmlns:xlink="http://www.w3.org/1999/xlink"><defs><style type="text/css"><![CDATA[
@font-face { font-family: ifont; src: url(http://at.alicdn.com/t/font_1442373896_4754455.eot?#iefix) format(embedded-opentype), url(http://at.alicdn.com/t/font_1442373896_4754455.woff) format(woff), url(http://at.alicdn.com/t/font_1442373896_4754455.ttf) format(truetype), url(http://at.alicdn.com/t/font_1442373896_4754455.svg#ifont) format(svg); }

]]></style></defs><g class="transform-group"><g transform="scale(0.1953125, 0.1953125)"><path d="M510.967996 91.834568c-231.067656 0-419.091984 161.174819-419.091984 359.184569 0 100.595093 50.177819 195.630562 138.745994 264.551258l102.978373 79.893608c-3.03001 17.024745-16.129352 56.889685-30.943756 93.397157-4.66423 11.296277-1.880837 24.311709 6.876618 32.825616 5.728468 5.483898 13.257955 8.429996 20.874423 8.429996 4.093225 0 8.18645-0.819668 12.195763-2.537799 34.131355-15.225773 117.134791-55.82647 175.485757-117.544113 227.805356-3.273557 411.985122-162.893974 411.985122-358.931812C930.074306 253.009388 742.048955 91.834568 510.967996 91.834568L510.967996 91.834568zM509.351172 758.859317c-1.958608 0-1.958608 0-3.743254 0.341784-13.265118 1.528819-29.937846 19.482727-29.937846 19.482727s-54.963823 55.05285-100.993159 81.258699c16.84362-56.160067 13.869892-76.833923 8.505721-84.832084-1.358951-2.040473-2.805906-3.65525-4.590552-4.848425l0.082888-0.088004c0 0-0.424672-0.25378-1.192152-0.593518-0.425695-0.25378-0.765433-0.423649-1.27504-0.681522-14.041808-7.486508-87.043449-48.155766-146.347113-105.07922-57.605999-60.496839-89.254813-141.577482-89.254813-214.322273 0-170.169681 166.1706-308.605613 370.363166-308.605613 204.207915 0 370.376469 138.435932 370.376469 308.605613C881.344464 619.659999 713.554994 758.859317 509.351172 758.859317L509.351172 758.859317zM689.497065 364.254028 333.271898 364.254028c-17.35425 0-31.432896 14.07967-31.432896 31.431873 0 17.356296 14.078647 31.432896 31.432896 31.432896L689.497065 427.118797c17.352203 0 31.43085-14.0766 31.43085-31.432896C720.927915 378.333698 706.849268 364.254028 689.497065 364.254028L689.497065 364.254028zM689.497065 364.254028M647.585513 510.938831l-272.40411 0c-17.352203 0-31.43085 14.075577-31.43085 31.425733 0 17.352203 14.078647 31.43085 31.43085 31.43085l272.40411 0c17.352203 0 31.434943-14.078647 31.434943-31.43085C679.020456 525.013385 664.937716 510.938831 647.585513 510.938831L647.585513 510.938831zM647.585513 510.938831" fill="#272636"></path></g></g></svg>