<?xml version="1.0" encoding="utf-8"?>
<!-- Generator: Adobe Illustrator 16.0.0, SVG Export Plug-In . SVG Version: 6.00 Build 0)  -->
<!DOCTYPE svg PUBLIC "-//W3C//DTD SVG 1.1//EN" "http://www.w3.org/Graphics/SVG/1.1/DTD/svg11.dtd">
<svg version="1.1" id="图层_1" xmlns="http://www.w3.org/2000/svg" xmlns:xlink="http://www.w3.org/1999/xlink" x="0px" y="0px"
	 width="19.842px" height="19.842px" viewBox="90.079 90.079 19.842 19.842" enable-background="new 90.079 90.079 19.842 19.842"
	 xml:space="preserve">
<g>
	<g>
		<g transform="scale(0.1953125, 0.1953125)">
			<path fill="#6E6E78" d="M551.139,562.799h-78.62c-4.725,0-8.57-3.85-8.57-8.57v-84.452c0-4.727,3.845-8.575,8.57-8.575h78.62
				c4.72,0,8.565,3.848,8.565,8.575v84.452C559.704,558.949,555.859,562.799,551.139,562.799z M472.519,463.596
				c-3.405,0-6.177,2.772-6.177,6.18v84.452c0,3.41,2.772,6.17,6.177,6.17h78.62c3.4,0,6.175-2.76,6.175-6.17v-84.452
				c0-3.408-2.775-6.18-6.175-6.18H472.519z M557.829,486.589h-91.355c-0.66,0-1.197-0.535-1.197-1.195s0.538-1.198,1.197-1.198
				h91.355c0.655,0,1.2,0.538,1.2,1.198S558.484,486.589,557.829,486.589z M486.264,517.859c-5.477,0-9.935-4.457-9.935-9.937
				c0-5.475,4.457-9.93,9.935-9.93c5.48,0,9.94,4.455,9.94,9.93C496.204,513.401,491.744,517.859,486.264,517.859z M486.264,501.184
				c-3.72,0-6.742,3.025-6.742,6.737c0,3.715,3.022,6.747,6.742,6.747c3.72,0,6.75-3.032,6.75-6.747
				C493.014,504.209,489.984,501.184,486.264,501.184z M511.819,517.859c-5.475,0-9.93-4.457-9.93-9.937
				c0-5.475,4.455-9.93,9.93-9.93c5.48,0,9.94,4.455,9.94,9.93C521.759,513.401,517.299,517.859,511.819,517.859z M511.819,501.184
				c-3.715,0-6.74,3.025-6.74,6.737c0,3.715,3.025,6.747,6.74,6.747c3.725,0,6.75-3.032,6.75-6.747
				C518.569,504.209,515.544,501.184,511.819,501.184z M537.129,517.859c-5.48,0-9.93-4.457-9.93-9.937c0-5.475,4.45-9.93,9.93-9.93
				c5.475,0,9.93,4.455,9.93,9.93C547.059,513.401,542.604,517.859,537.129,517.859z M537.129,501.184
				c-3.715,0-6.74,3.025-6.74,6.737c0,3.715,3.025,6.747,6.74,6.747c3.71,0,6.74-3.032,6.74-6.747
				C543.869,504.209,540.839,501.184,537.129,501.184z M486.264,542.899c-5.477,0-9.935-4.46-9.935-9.94
				c0-5.49,4.457-9.94,9.935-9.94c5.48,0,9.94,4.45,9.94,9.94C496.204,538.439,491.744,542.899,486.264,542.899z M486.264,526.209
				c-3.72,0-6.742,3.03-6.742,6.75s3.022,6.74,6.742,6.74c3.72,0,6.75-3.02,6.75-6.74S489.984,526.209,486.264,526.209z
				 M511.819,542.899c-5.475,0-9.93-4.46-9.93-9.94c0-5.49,4.455-9.94,9.93-9.94c5.48,0,9.94,4.45,9.94,9.94
				C521.759,538.439,517.299,542.899,511.819,542.899z M511.819,526.209c-3.715,0-6.74,3.03-6.74,6.75s3.025,6.74,6.74,6.74
				c3.725,0,6.75-3.02,6.75-6.74S515.544,526.209,511.819,526.209z M537.129,542.899c-5.48,0-9.93-4.46-9.93-9.94
				c0-5.49,4.45-9.94,9.93-9.94c5.475,0,9.93,4.45,9.93,9.94C547.059,538.439,542.604,542.899,537.129,542.899z M537.129,526.209
				c-3.715,0-6.74,3.03-6.74,6.75s3.025,6.74,6.74,6.74c3.71,0,6.74-3.02,6.74-6.74S540.839,526.209,537.129,526.209z"/>
		</g>
	</g>
</g>
</svg>
