<?xml version="1.0" encoding="utf-8"?>
<!-- Generator: Adobe Illustrator 19.0.0, SVG Export Plug-In . SVG Version: 6.00 Build 0)  -->
<svg version="1.1" id="图层_1" xmlns="http://www.w3.org/2000/svg" xmlns:xlink="http://www.w3.org/1999/xlink" x="0px" y="0px"
	 viewBox="0 0 64 64" style="enable-background:new 0 0 64 64;" xml:space="preserve">
<style type="text/css">
	.st0{fill:#62727B;}
</style>
<g id="XMLID_2802_">
	<g id="XMLID_2853_">
		<path id="XMLID_4_" class="st0" d="M31.9,61C15.8,61,2.8,47.9,2.8,31.8S15.8,2.6,31.9,2.6s29.2,13.1,29.2,29.2S48,61,31.9,61z
			 M31.9,3.6C16.4,3.6,3.8,16.3,3.8,31.8C3.8,47.4,16.4,60,31.9,60c15.5,0,28.2-12.6,28.2-28.2C60.1,16.3,47.5,3.6,31.9,3.6z"/>
	</g>
	<g id="XMLID_2852_">
		<path id="XMLID_1_" class="st0" d="M46.5,27.9c-0.6,0-1,0.5-1,1v13.8c0,1.4-1.1,2.6-2.4,2.6H21.3c-1.4,0-3-1.2-3-2.6V21
			c0-1.4,1.6-2.9,3-2.9H33c0.6,0,1-0.4,1-1s-0.5-1-1-1H21.3c-2.8,0-5,2.1-5,4.9v21.8c0,2.8,2.2,4.6,5,4.6h21.7
			c2.8,0,4.5-1.8,4.5-4.6V28.9C47.5,28.4,47.1,27.9,46.5,27.9L46.5,27.9z"/>
	</g>
	<g id="XMLID_2799_">
		<path id="XMLID_2_" class="st0" d="M29.4,40c-0.3,0-0.7,0-0.9-0.3l-6.8-7.2c-0.5-0.5-0.4-1.3,0.1-1.7c0.5-0.5,1.3-0.4,1.8,0.1
			l5.9,6.3l19.4-21c0.5-0.5,1.3-0.5,1.8-0.1c0.5,0.5,0.5,1.3,0.1,1.8L30.3,39.7C30.1,40,29.8,40,29.4,40C29.4,40,29.4,40,29.4,40z"
			/>
	</g>
</g>
</svg>
