<?xml version="1.0" encoding="utf-8"?>
<!-- Generator: Adobe Illustrator 19.0.0, SVG Export Plug-In . SVG Version: 6.00 Build 0)  -->
<svg version="1.1" id="图层_1" xmlns="http://www.w3.org/2000/svg" xmlns:xlink="http://www.w3.org/1999/xlink" x="0px" y="0px"
	 viewBox="174.8 -132.5 288 281.4" style="enable-background:new 174.8 -132.5 288 281.4;" xml:space="preserve">
<style type="text/css">
	.st0{fill:#272636;}
</style>
<g>
	<path class="st0" d="M287.4,32.9c-1,0.5-2.1,0.8-3.3,0.8c-2.7,0-5.1-1.5-6.4-3.7l-0.5-1l-19.9-43.6c-0.2-0.5-0.4-1-0.4-1.5
		c0-2,1.6-3.6,3.6-3.6c0.8,0,1.6,0.3,2.2,0.7l23.5,16.7c1.7,1.1,3.8,1.8,6,1.8c1.3,0,2.6-0.2,3.7-0.7l110.3-49.1
		C386.7-73.8,354.1-89,317.2-89C256.9-89,208-48.3,208,2c0,27.4,14.7,52.1,37.7,68.8c1.9,1.3,3.1,3.5,3.1,5.9c0,0.8-0.2,1.6-0.4,2.3
		c-1.8,6.9-4.8,17.8-4.9,18.4c-0.2,0.9-0.6,1.8-0.6,2.7c0,2,1.6,3.6,3.6,3.6c0.8,0,1.4-0.3,2.1-0.7l23.9-13.8c1.8-1,3.7-1.7,5.8-1.7
		c1.1,0,2.2,0.2,3.2,0.5c11.2,3.2,23.2,5,35.7,5c60.3,0,109.2-40.8,109.2-91c0-15.2-4.5-29.6-12.4-42.2L288.2,32.4L287.4,32.9
		L287.4,32.9z"/>
</g>
</svg>
