<?xml version="1.0" encoding="utf-8"?>
<!-- Generator: Adobe Illustrator 19.0.0, SVG Export Plug-In . SVG Version: 6.00 Build 0)  -->
<svg version="1.1" id="图层_1" xmlns="http://www.w3.org/2000/svg" xmlns:xlink="http://www.w3.org/1999/xlink" x="0px" y="0px"
	 viewBox="0 0 38 38" style="enable-background:new 0 0 38 38;" xml:space="preserve">
<style type="text/css">
	.st0{fill:#E94A30;}
</style>
<path id="XMLID_2789_" class="st0" d="M18.7,0.9C8.5,0.9,0.3,9.1,0.3,19.3c0,10.2,8.3,18.4,18.4,18.4c10.2,0,18.4-8.3,18.4-18.4
	C37.1,9.1,28.9,0.9,18.7,0.9z M20.3,31.7c-0.3,0.3-0.6,0.4-1,0.4c-0.4,0-0.7-0.1-1-0.4c-0.3-0.3-0.4-0.6-0.4-1c0-0.4,0.1-0.7,0.4-1
	c0.3-0.3,0.6-0.4,1-0.4c0.4,0,0.7,0.1,1,0.4c0.3,0.3,0.4,0.6,0.4,1C20.7,31.1,20.6,31.4,20.3,31.7z M25.5,13.9
	c-0.2,0.5-0.4,1-0.7,1.5c-0.3,0.5-0.6,0.9-1,1.3c-0.4,0.4-0.8,0.8-1.1,1.2c-0.6,0.6-1.1,1.1-1.5,1.5c-0.4,0.4-0.7,0.8-0.9,1.1
	s-0.4,0.6-0.5,0.9s-0.1,0.7-0.1,1.1c0,0.5,0,1,0.1,1.5S20,25,20.1,25h-1.4c-0.1,0-0.2-0.7-0.3-1.2c-0.1-0.5-0.1-0.9-0.1-1.4
	c0-0.5,0.1-1,0.2-1.5c0.1-0.4,0.3-0.9,0.6-1.3s0.6-0.8,0.9-1.1c0.4-0.4,0.8-0.7,1.2-1.1c0.4-0.3,0.7-0.7,1.1-1s0.7-0.7,0.9-1.2
	c0.3-0.4,0.5-0.9,0.7-1.4c0.2-0.5,0.3-1,0.3-1.6c0-0.6-0.1-1.2-0.3-1.7c-0.2-0.5-0.5-0.9-0.9-1.3c-0.4-0.3-0.8-0.6-1.4-0.8
	s-1.1-0.3-1.8-0.3c-1.1,0-2.2,0.2-3.1,0.6C15.8,9.2,15,9.7,14,10.4V8.5c1-0.6,1.8-1.1,2.7-1.4c0.9-0.3,2-0.5,3.1-0.5
	c0.8,0,1.7,0.1,2.4,0.4c0.7,0.2,1.4,0.6,1.9,1.1c0.5,0.5,1,1,1.3,1.7c0.3,0.7,0.5,1.4,0.5,2.3C25.8,12.8,25.7,13.4,25.5,13.9z"/>
</svg>
