<?xml version="1.0" encoding="utf-8"?>
<!-- Generator: Adobe Illustrator 19.0.0, SVG Export Plug-In . SVG Version: 6.00 Build 0)  -->
<svg version="1.1" id="图层_1" xmlns="http://www.w3.org/2000/svg" xmlns:xlink="http://www.w3.org/1999/xlink" x="0px" y="0px"
	 viewBox="0 0 34 34" style="enable-background:new 0 0 34 34;" xml:space="preserve">
<style type="text/css">
	.st0{fill:#282828;}
	.st1{fill:none;stroke:#282828;stroke-width:2;stroke-linecap:round;stroke-linejoin:round;stroke-miterlimit:10;}
</style>
<g id="XMLID_1903_">
	<g id="XMLID_1908_">
		<path id="XMLID_11_" class="st0" d="M10.2,18.1c-0.3,0-0.5-0.1-0.7-0.3l-7.2-7.2c-0.4-0.4-0.4-1,0-1.4L9.5,2c0.4-0.4,1-0.4,1.4,0
			l7.2,7.2c0.2,0.2,0.3,0.4,0.3,0.7c0,0.3-0.1,0.5-0.3,0.7l-7.2,7.2C10.7,18,10.4,18.1,10.2,18.1z M4.4,9.9l5.8,5.8l5.8-5.8
			l-5.8-5.8L4.4,9.9z"/>
	</g>
	<g id="XMLID_1907_">
		<path id="XMLID_8_" class="st0" d="M32,16H21c-0.6,0-1-0.4-1-1V5c0-0.6,0.4-1,1-1h11c0.6,0,1,0.4,1,1v10C33,15.6,32.6,16,32,16z
			 M22,14h9V6h-9V14z"/>
	</g>
	<g id="XMLID_1906_">
		<path id="XMLID_5_" class="st0" d="M15,32H5c-0.6,0-1-0.4-1-1V21c0-0.6,0.4-1,1-1h10c0.6,0,1,0.4,1,1v10C16,31.6,15.6,32,15,32z
			 M6,30h8v-8H6V30z"/>
	</g>
	<g id="XMLID_1905_">
		<path id="XMLID_2_" class="st0" d="M32,32H21c-0.6,0-1-0.4-1-1V21c0-0.6,0.4-1,1-1h11c0.6,0,1,0.4,1,1v10C33,31.6,32.6,32,32,32z
			 M22,30h9v-8h-9V30z"/>
	</g>
</g>
<g id="XMLID_1_">
	
		<rect id="XMLID_17_" x="449.1" y="598.8" transform="matrix(0.7071 -0.7071 0.7071 0.7071 -294.0082 498.0201)" class="st1" width="10.2" height="10.2"/>
	<rect id="XMLID_16_" x="465" y="599" class="st1" width="11" height="10"/>
	<rect id="XMLID_15_" x="449" y="615" class="st1" width="10" height="10"/>
	<rect id="XMLID_14_" x="465" y="615" class="st1" width="11" height="10"/>
</g>
</svg>
