<?xml version="1.0" encoding="utf-8"?>
<!-- Generator: Adobe Illustrator 19.0.0, SVG Export Plug-In . SVG Version: 6.00 Build 0)  -->
<svg version="1.1" id="图层_1" xmlns="http://www.w3.org/2000/svg" xmlns:xlink="http://www.w3.org/1999/xlink" x="0px" y="0px"
	 viewBox="0 0 34 34" style="enable-background:new 0 0 34 34;" xml:space="preserve">
<style type="text/css">
	.st0{fill:#282828;}
</style>
<g id="XMLID_2869_">
	<g id="XMLID_2883_">
		<path id="XMLID_8_" class="st0" d="M26,17H9c-0.6,0-1-0.4-1-1s0.4-1,1-1h17c0.6,0,1,0.4,1,1S26.6,17,26,17z"/>
	</g>
	<g id="XMLID_2879_">
		<path id="XMLID_7_" class="st0" d="M26,22H9c-0.6,0-1-0.4-1-1s0.4-1,1-1h17c0.6,0,1,0.4,1,1S26.6,22,26,22z"/>
	</g>
	<g id="XMLID_2872_">
		<path id="XMLID_6_" class="st0" d="M26,27H9c-0.6,0-1-0.4-1-1s0.4-1,1-1h17c0.6,0,1,0.4,1,1S26.6,27,26,27z"/>
	</g>
	<g id="XMLID_2871_">
		<path id="XMLID_5_" class="st0" d="M30.3,9c-0.3,0-0.7-0.2-0.8-0.5l-3.1-4.8c-0.3-0.5-0.2-1.1,0.3-1.4c0.5-0.3,1.1-0.2,1.4,0.3
			l3.1,4.8c0.3,0.5,0.2,1.1-0.3,1.4C30.7,9,30.5,9,30.3,9z"/>
	</g>
	<g id="XMLID_2870_">
		<path id="XMLID_2_" class="st0" d="M29.6,32H6.8C5.3,32,3,29.8,3,28.2V3.6c0-0.5,0.2-0.9,0.5-1.2C4.2,1.8,5.2,1.9,6.2,2
			c0.2,0,0.5,0,0.7,0H24c0.6,0,1,0.4,1,1v8h5c0.6,0,1,0.4,1,1v16.2c0,0.2,0,0.5,0.1,0.8c0.1,0.9,0.2,1.8-0.3,2.5
			C30.5,31.8,30,32,29.6,32z M5,3.9v24.3C5.1,28.7,6.3,30,6.8,30h22.3c0-0.2-0.1-0.5-0.1-0.7c0-0.4-0.1-0.7-0.1-1V13h-5
			c-0.6,0-1-0.4-1-1V4H6.8C6.6,4,6.3,4,6,4C5.7,3.9,5.3,3.9,5,3.9z"/>
	</g>
</g>
</svg>
