<?xml version="1.0" encoding="utf-8"?>
<!-- Generator: Adobe Illustrator 19.0.0, SVG Export Plug-In . SVG Version: 6.00 Build 0)  -->
<svg version="1.1" id="图层_1" xmlns="http://www.w3.org/2000/svg" xmlns:xlink="http://www.w3.org/1999/xlink" x="0px" y="0px"
	 viewBox="0 0 34 34" style="enable-background:new 0 0 34 34;" xml:space="preserve">
<style type="text/css">
	.st0{fill:#282828;}
	.st1{fill:none;stroke:#282828;stroke-width:2;stroke-linecap:round;stroke-linejoin:round;stroke-miterlimit:10;}
</style>
<g id="XMLID_2884_">
	<g id="XMLID_2886_">
		<g id="XMLID_2896_">
			<path id="XMLID_7_" class="st0" d="M19.8,19.9c-4.7,0-8.6-3.9-8.6-8.7s3.9-8.7,8.6-8.7s8.6,3.9,8.6,8.7S24.5,19.9,19.8,19.9z
				 M19.8,4.5c-3.6,0-6.6,3-6.6,6.7s3,6.7,6.6,6.7c3.6,0,6.6-3,6.6-6.7S23.4,4.5,19.8,4.5z"/>
		</g>
		<g id="XMLID_2895_">
			<path id="XMLID_5_" class="st0" d="M8.1,32.2c-0.6,0-1-0.4-1-1c0-7.3,5.9-13.3,13.1-13.3c0.6,0,1,0.4,1,1s-0.4,1-1,1
				c-6.1,0-11.1,5.1-11.1,11.3C9.1,31.7,8.7,32.2,8.1,32.2z"/>
		</g>
		<g id="XMLID_2894_">
			<path id="XMLID_4_" class="st0" d="M32.4,32.2c-0.6,0-1-0.4-1-1c0-3.9-2.1-7.6-5.5-9.6c-0.5-0.3-0.6-0.9-0.4-1.4
				c0.3-0.5,0.9-0.6,1.4-0.4c4,2.3,6.5,6.7,6.5,11.3C33.4,31.7,32.9,32.2,32.4,32.2z"/>
		</g>
		<g id="XMLID_2891_">
			<g id="XMLID_2893_">
				<path id="XMLID_3_" class="st0" d="M11.4,19.8c-0.1,0-0.1,0-0.2,0c-4.1-0.8-7-4.4-7-8.5c0-4.8,3.9-8.7,8.6-8.7c0.6,0,1,0.4,1,1
					s-0.4,1-1,1c-3.6,0-6.6,3-6.6,6.7c0,3.2,2.3,6,5.4,6.6c0.5,0.1,0.9,0.6,0.8,1.2C12.3,19.4,11.9,19.8,11.4,19.8z"/>
			</g>
			<g id="XMLID_2892_">
				<path id="XMLID_2_" class="st0" d="M1.1,32.2c-0.6,0-1-0.4-1-1c0-6.5,4.8-12.4,11-13.4c0.6-0.1,1.1,0.3,1.2,0.8
					c0.1,0.5-0.3,1.1-0.8,1.1c-5.2,0.9-9.3,5.9-9.3,11.4C2.1,31.7,1.7,32.2,1.1,32.2z"/>
			</g>
		</g>
	</g>
	<g id="XMLID_2885_">
		<path class="st1" d="M11.4,19.2"/>
	</g>
</g>
</svg>
