<?xml version="1.0" encoding="utf-8"?>
<!-- Generator: Adobe Illustrator 16.0.0, SVG Export Plug-In . SVG Version: 6.00 Build 0)  -->
<!DOCTYPE svg PUBLIC "-//W3C//DTD SVG 1.1//EN" "http://www.w3.org/Graphics/SVG/1.1/DTD/svg11.dtd">
<svg version="1.1" id="图层_1" xmlns="http://www.w3.org/2000/svg" xmlns:xlink="http://www.w3.org/1999/xlink" x="0px" y="0px"
	 width="13.086px" height="16.158px" viewBox="83.502 91.921 13.086 16.158" enable-background="new 83.502 91.921 13.086 16.158"
	 xml:space="preserve">
<g>
	<g>
		<g transform="scale(0.1953125, 0.1953125)">
			<path fill="#696969" d="M483.794,470.636h-15.03l-7.73,7.732l-8.162-7.732h-14.602c-6.015,0-10.737,4.723-10.737,10.31v61.417
				c0,5.585,4.722,10.31,10.737,10.31h14.602l8.162-7.73l7.73,7.73h15.03c6.015,0,10.737-4.725,10.737-10.31v-61.417
				C494.531,474.934,489.809,470.636,483.794,470.636z M490.236,541.934c0,3.44-3.003,6.015-6.442,6.015h-13.312l-9.447-9.455
				l-9.88,9.455h-12.885c-3.437,0-6.442-2.575-6.442-6.015v-60.987c0-3.443,3.005-6.013,6.442-6.013h12.885l9.88,9.447l9.447-9.447
				h13.312c3.44,0,6.442,2.57,6.442,6.013V541.934z M462.749,508.861c-3.435-1.715-5.585-3.003-5.585-5.155
				c0-1.715,1.723-3.867,4.727-3.867c2.578,0,4.723,0.863,6.012,1.72l1.288-3.435c-1.288-0.855-3.435-1.72-6.01-1.72v-4.723h-3.44
				v4.723c-4.292,0.865-7.3,3.865-7.3,8.165c0,4.292,3.007,6.445,7.3,8.157c3.87,1.72,5.585,3.432,5.585,5.588
				c0,2.58-1.715,4.29-5.155,4.29c-2.575,0-5.152-0.855-6.867-2.145l-1.288,3.865c1.715,0.86,4.292,1.715,7.297,2.145v4.725h3.435
				v-5.155c4.727-0.855,7.305-4.29,7.305-8.585C470.054,513.584,467.476,511.014,462.749,508.861z"/>
		</g>
	</g>
</g>
</svg>
