<?xml version="1.0" standalone="no"?><!DOCTYPE svg PUBLIC "-//W3C//DTD SVG 1.1//EN" "http://www.w3.org/Graphics/SVG/1.1/DTD/svg11.dtd"><svg width="200.390625" height="200" viewBox="0 0 200.390625 200" version="1.1" xmlns="http://www.w3.org/2000/svg" xmlns:xlink="http://www.w3.org/1999/xlink"><defs><style type="text/css"><![CDATA[
@font-face { font-family: ifont; src: url(http://at.alicdn.com/t/font_1442373896_4754455.eot?#iefix) format(embedded-opentype), url(http://at.alicdn.com/t/font_1442373896_4754455.woff) format(woff), url(http://at.alicdn.com/t/font_1442373896_4754455.ttf) format(truetype), url(http://at.alicdn.com/t/font_1442373896_4754455.svg#ifont) format(svg); }

]]></style></defs><g class="transform-group"><g transform="scale(0.1953125, 0.1953125)"><path d="M686.026522 351.128079l-2.90619-51.186799c1.88493-0.079818 3.848655-0.158612 5.811356-0.158612 79.525218 0 143.979182 93.581352 143.979182 208.984708s-64.453964 208.983685-143.979182 208.983685l0-51.343365c43.804668 0 92.713588-64.768119 92.713588-157.64032 0-92.952019-48.90892-157.720138-92.713588-157.720138L686.026522 351.128079M793.292548 233.386468l-2.983961-51.211359c3.062755-0.154519 6.04774-0.313132 9.110495-0.313132 124.573203 0 225.581712 147.586336 225.581712 329.574181 0 181.989891-101.008508 329.576227-225.581712 329.576227l0-51.369971c94.491071 0 174.293605-127.399575 174.293605-278.206256s-79.802534-278.206256-174.293605-278.206256L793.292548 233.386468M521.05933 888.073214l-0.551562-755.682975c-42.884716 24.427342-148.450007 116.560716-231.786017 198.404746l-15.002692 14.688537L252.749468 345.483522 51.751664 345.483522l-0.077771 333.189522L247.172449 678.673044l26.175149-0.036839 13.057387 11.248182L521.05933 888.073214M526.084787 948.004165c-2.827395 0-9.871835 1.459235-26.626427-11.311627L247.172449 729.962174 34.079166 729.962174c0 0-31.339776-5.577019-33.617655-39.114856L0.461511 327.733253c0 0 4.477988-24.583908 33.617655-33.539884l218.670302 0c0 0 222.047212-217.962174 273.571702-217.962174 0.39295 0 0.785899 0 1.176802 0.077771 0 0 1.807159-0.315178 4.714372-0.315178 11.153014 0 38.32998 4.241604 40.137139 45.007053l0 787.728832c0-0.002047 0 33.909297-44.850487 39.114856C527.497972 947.845553 527.107069 948.004165 526.084787 948.004165L526.084787 948.004165 526.084787 948.004165z" fill="#272636"></path></g></g></svg>