<?xml version="1.0" encoding="utf-8"?>
<!-- Generator: Adobe Illustrator 19.0.0, SVG Export Plug-In . SVG Version: 6.00 Build 0)  -->
<svg version="1.1" id="图层_1" xmlns="http://www.w3.org/2000/svg" xmlns:xlink="http://www.w3.org/1999/xlink" x="0px" y="0px"
	 viewBox="0 0 24 24" style="enable-background:new 0 0 24 24;" xml:space="preserve">
<style type="text/css">
	.st0{fill:#F2BF1E;}
</style>
<path id="XMLID_2773_" class="st0" d="M22,4c0-1.1-0.9-2-2-2H4C2.9,2,2,2.9,2,4v16c0,1.1,0.9,2,2,2h16c1.1,0,2-0.9,2-2V4z M20.1,6.8
	L11,17.3c-0.1,0.1-0.2,0.2-0.4,0.2h0c-0.1,0-0.3-0.1-0.4-0.2l-5.3-6.2c-0.2-0.2-0.2-0.5,0.1-0.7s0.5-0.2,0.7,0.1l5,5.7l8.8-10.1
	c0.2-0.2,0.5-0.2,0.7,0C20.3,6.3,20.3,6.6,20.1,6.8z"/>
</svg>
