<?xml version="1.0" encoding="utf-8"?>
<!-- Generator: Adobe Illustrator 19.0.0, SVG Export Plug-In . SVG Version: 6.00 Build 0)  -->
<svg version="1.1" id="图层_1" xmlns="http://www.w3.org/2000/svg" xmlns:xlink="http://www.w3.org/1999/xlink" x="0px" y="0px"
	 viewBox="0 0 68 68" style="enable-background:new 0 0 68 68;" xml:space="preserve">
<style type="text/css">
	.st0{fill:#F2BF1C;}
</style>
<path id="XMLID_8_" class="st0" d="M0,68h68V28L0,68z M64.3,43.6l-21,22.3c-0.3,0.3-0.7,0.5-1.1,0.5c0,0,0,0,0,0
	c-0.4,0-0.8-0.2-1.1-0.4L30.6,55.6C30,55,30,54,30.6,53.4c0.6-0.6,1.5-0.6,2.1,0l9.4,9.3l19.9-21.2c0.6-0.6,1.5-0.6,2.1-0.1
	C64.8,42,64.8,43,64.3,43.6z"/>
</svg>
