<?xml version="1.0" encoding="utf-8"?>
<!-- Generator: Adobe Illustrator 16.0.0, SVG Export Plug-In . SVG Version: 6.00 Build 0)  -->
<!DOCTYPE svg PUBLIC "-//W3C//DTD SVG 1.1//EN" "http://www.w3.org/Graphics/SVG/1.1/DTD/svg11.dtd">
<svg version="1.1" id="图层_1" xmlns="http://www.w3.org/2000/svg" xmlns:xlink="http://www.w3.org/1999/xlink" x="0px" y="0px"
	 width="21.122px" height="16.158px" viewBox="89.237 91.921 21.122 16.158" enable-background="new 89.237 91.921 21.122 16.158"
	 xml:space="preserve">
<g>
	<g>
		<g transform="scale(0.1953125, 0.1953125)">
			<path fill="#696969" d="M554.929,553.544h-87.932c-5.598,0-10.105-4.665-10.105-10.42v-62.09c0-5.725,4.54-10.41,10.105-10.41
				h87.932c5.6,0,10.105,4.662,10.105,10.41v62.09C565.034,548.854,560.489,553.544,554.929,553.544L554.929,553.544z
				 M558.269,481.034c0-1.948-1.5-3.497-3.34-3.497h-87.932c-1.82,0-3.348,1.575-3.348,3.497v10.32h94.62V481.034L558.269,481.034z
				 M558.269,505.171h-94.62v37.952c0,1.955,1.5,3.51,3.348,3.51h87.932c1.815,0,3.34-1.575,3.34-3.51V505.171L558.269,505.171z
				 M500.844,539.724h-27.082c-1.853,0-3.353-1.6-3.353-3.46c0-1.905,1.527-3.45,3.353-3.45h27.09c1.85,0,3.348,1.605,3.348,3.45
				C504.199,538.174,502.674,539.724,500.844,539.724L500.844,539.724z"/>
		</g>
	</g>
</g>
</svg>
