<?xml version="1.0" encoding="utf-8"?>
<!-- Generator: Adobe Illustrator 16.0.0, SVG Export Plug-In . SVG Version: 6.00 Build 0)  -->
<!DOCTYPE svg PUBLIC "-//W3C//DTD SVG 1.1//EN" "http://www.w3.org/Graphics/SVG/1.1/DTD/svg11.dtd">
<svg version="1.1" id="图层_1" xmlns="http://www.w3.org/2000/svg" xmlns:xlink="http://www.w3.org/1999/xlink" x="0px" y="0px"
	 width="16.338px" height="16.158px" viewBox="81.292 91.921 16.338 16.158" enable-background="new 81.292 91.921 16.338 16.158"
	 xml:space="preserve">
<g>
	<g>
		<g transform="scale(0.1953125, 0.1953125)">
			<path fill="#696969" d="M495.614,470.636c-3.21,0-31.16,1.66-31.16,1.66s-0.003,0-0.008,0c-0.02,0-0.042,0-0.065,0
				c-0.132,0-0.267,0.008-0.402,0.025c-0.492,0.048-1.252,0.203-1.717,0.665l0.013,0.033c-0.115,0.087-0.225,0.182-0.332,0.29
				l-43.907,43.825c-1.347,1.35-1.347,3.535,0,4.87l30.26,30.27c0.672,0.67,1.557,1.01,2.44,1.01c0.885,0,1.768-0.34,2.443-1.01
				l43.647-43.652c0.105-0.105,0.202-0.22,0.292-0.33l0.025,0.015c0,0,0.573-0.935,0.815-2.285
				c0.23-1.297,1.908-31.455,1.908-31.455s-0.152-1.617-1.217-2.682c-0.735-0.73-1.33-1.117-2.79-1.24
				C495.809,470.641,495.726,470.636,495.614,470.636L495.614,470.636z M450.734,546.899l-27.33-27.325l41.592-41.557
				c0,0,24.04-1.497,28.42-1.497c0.27,0,0.465,0.005,0.575,0.02c0.228,1.895-1.787,28.857-1.787,28.857l-0.307,0.31l0,0
				L450.734,546.899L450.734,546.899z M475.146,492.139c0.84,0,1.633,0.328,2.228,0.923c1.227,1.23,1.227,3.227,0,4.455
				c-0.595,0.59-1.388,0.92-2.228,0.92s-1.633-0.33-2.227-0.92c-1.228-1.228-1.228-3.225,0-4.455
				C473.514,492.466,474.306,492.139,475.146,492.139 M475.146,486.961c-2.13,0-4.26,0.812-5.887,2.44
				c-3.25,3.247-3.25,8.522,0,11.775c1.628,1.625,3.757,2.438,5.887,2.438s4.262-0.813,5.887-2.438c3.25-3.252,3.25-8.527,0-11.775
				C479.409,487.774,477.276,486.961,475.146,486.961L475.146,486.961z"/>
		</g>
	</g>
</g>
</svg>
