<?xml version="1.0" encoding="utf-8"?>
<!-- Generator: Adobe Illustrator 19.0.0, SVG Export Plug-In . SVG Version: 6.00 Build 0)  -->
<svg version="1.1" id="图层_1" xmlns="http://www.w3.org/2000/svg" xmlns:xlink="http://www.w3.org/1999/xlink" x="0px" y="0px"
	 viewBox="-8 -8 52 52" style="enable-background:new -8 -8 52 52;" xml:space="preserve">
<style type="text/css">
	.st0{display:none;}
	.st1{display:inline;}
	.st2{fill:#272728;}
	.st3{fill:none;stroke:#272728;stroke-width:2;stroke-linecap:round;stroke-linejoin:round;stroke-miterlimit:10;}
	.st4{fill:#F1BE1C;}
	.st5{display:inline;fill:#F1BE1C;}
	.st6{fill:#FFFFFF;}
	.st7{display:inline;fill:#FB5B46;}
	.st8{display:inline;fill:#E2E2E2;}
	.st9{fill:#515151;}
	.st10{display:inline;fill:#23A7EC;}
	.st11{fill:#FFC514;}
</style>
<g id="XMLID_137_" class="st0">
	<g id="XMLID_149_" class="st1">
		<g id="XMLID_366_">
			<path id="XMLID_6_" class="st2" d="M12,39.4H1.6c-1.5,0-2.8-1.3-2.8-2.8V25.4c0-0.6,0.4-1,1-1s1,0.4,1,1v11.1
				c0,0.4,0.4,0.8,0.8,0.8H12c0.6,0,1,0.4,1,1S12.5,39.4,12,39.4z"/>
		</g>
		<g id="XMLID_150_">
			<path id="XMLID_5_" class="st2" d="M-0.2,14.4c-0.6,0-1-0.4-1-1V3c0-1.5,1.3-2.8,2.8-2.8h10.3c0.6,0,1,0.4,1,1s-0.4,1-1,1H1.6
				C1.2,2.2,0.8,2.5,0.8,3v10.5C0.8,14,0.4,14.4-0.2,14.4z"/>
		</g>
	</g>
	<g id="XMLID_143_" class="st1">
		<g id="XMLID_145_">
			<path id="XMLID_4_" class="st2" d="M35.2,39.4H24.8c-0.6,0-1-0.4-1-1s0.4-1,1-1h10.4c0.4,0,0.8-0.4,0.8-0.8V25.4c0-0.6,0.4-1,1-1
				s1,0.4,1,1v11.1C37.9,38.1,36.7,39.4,35.2,39.4z"/>
		</g>
		<g id="XMLID_144_">
			<path id="XMLID_7_" class="st2" d="M36.9,14.4c-0.6,0-1-0.4-1-1V3c0-0.4-0.4-0.8-0.8-0.8H24.8c-0.6,0-1-0.4-1-1s0.4-1,1-1h10.3
				c1.5,0,2.8,1.3,2.8,2.8v10.5C37.9,14,37.5,14.4,36.9,14.4z"/>
		</g>
	</g>
	<g id="XMLID_141_" class="st1">
		<path id="XMLID_3_" class="st2" d="M39,20H-1c-0.6,0-1-0.4-1-1s0.4-1,1-1h40c0.6,0,1,0.4,1,1S39.6,20,39,20z"/>
	</g>
</g>
<g id="XMLID_385_" class="st0">
	<g id="XMLID_407_" class="st1">
		<path id="XMLID_16_" class="st2" d="M4.7,37.1l2.6-4.3c-5.7-2.9-9.1-7.9-9.1-13.3c0-8.8,9.1-15.9,20.3-15.9s20.3,7.1,20.3,15.9
			s-9.1,15.9-20.3,15.9c-0.7,0-1.5,0-2.4-0.1L4.7,37.1z M18.5,5.6C8.4,5.6,0.2,11.8,0.2,19.5c0,4.9,3.4,9.4,9,11.9l1,0.5l-1.5,2.5
			l7.4-1.2h0.1c0.9,0.1,1.7,0.1,2.4,0.1c10.1,0,18.3-6.2,18.3-13.9C36.9,11.8,28.7,5.6,18.5,5.6z"/>
	</g>
	<g id="XMLID_395_" class="st1">
		<path id="XMLID_13_" class="st2" d="M7,22.2c-1.6,0-2.8-1.3-2.8-2.8s1.3-2.8,2.8-2.8s2.8,1.3,2.8,2.8S8.6,22.2,7,22.2z M7,18.6
			c-0.4,0-0.8,0.4-0.8,0.8s0.4,0.8,0.8,0.8s0.8-0.4,0.8-0.8S7.5,18.6,7,18.6z"/>
	</g>
	<g id="XMLID_394_" class="st1">
		<path id="XMLID_10_" class="st2" d="M19,22.2c-1.6,0-2.8-1.3-2.8-2.8s1.3-2.8,2.8-2.8c1.6,0,2.8,1.3,2.8,2.8S20.6,22.2,19,22.2z
			 M19,18.6c-0.4,0-0.8,0.4-0.8,0.8s0.4,0.8,0.8,0.8s0.8-0.4,0.8-0.8S19.5,18.6,19,18.6z"/>
	</g>
	<g id="XMLID_386_" class="st1">
		<path id="XMLID_8_" class="st2" d="M31,22.2c-1.6,0-2.8-1.3-2.8-2.8s1.3-2.8,2.8-2.8s2.8,1.3,2.8,2.8S32.6,22.2,31,22.2z M31,18.6
			c-0.4,0-0.8,0.4-0.8,0.8s0.4,0.8,0.8,0.8s0.8-0.4,0.8-0.8S31.5,18.6,31,18.6z"/>
	</g>
</g>
<g id="XMLID_455_" class="st0">
	<g id="XMLID_458_" class="st1">
		<path id="XMLID_49_" class="st2" d="M36.5,21.2c-0.3,0-0.5-0.1-0.7-0.3L19.4,4.3L2.9,20.9c-0.4,0.4-1,0.4-1.4,0s-0.4-1,0-1.4
			L18.7,2.2C18.9,2,19.2,2,19.4,2l0,0c0.3,0,0.5,0,0.7,0.2l17.1,17.2c0.4,0.4,0.4,1,0,1.4C37,21.1,36.7,21.2,36.5,21.2z"/>
	</g>
	<g id="XMLID_457_" class="st1">
		<path id="XMLID_48_" class="st2" d="M29,34.8H9.7c-1.7,0-3-1.3-3-3V19.2c0-0.6,0.4-1,1-1s1,0.4,1,1v12.7c0,0.6,0.4,1,1,1H29
			c0.6,0,1-0.4,1-1V19.2c0-0.6,0.4-1,1-1s1,0.4,1,1v12.7C32,33.5,30.7,34.8,29,34.8z"/>
	</g>
	<g id="XMLID_456_" class="st1">
		<path id="XMLID_45_" class="st2" d="M22,34.1h-5.4c-0.4,0-0.8-0.3-0.8-0.8v-6.5c0-0.4,0.3-0.8,0.8-0.8H22c0.4,0,0.8,0.3,0.8,0.8
			v6.5C22.8,33.7,22.4,34.1,22,34.1z M17.4,32.6h3.9v-5h-3.9V32.6z"/>
	</g>
</g>
<g id="XMLID_554_" class="st0">
	<g id="XMLID_467_" class="st1">
		<g id="XMLID_468_">
			<path id="XMLID_57_" class="st2" d="M22.8,34.4c-5.2,0-9.3-4.2-9.3-9.3s4.2-9.3,9.3-9.3s9.3,4.2,9.3,9.3S28,34.4,22.8,34.4z
				 M22.8,17.7c-4,0-7.3,3.3-7.3,7.3s3.3,7.3,7.3,7.3s7.3-3.3,7.3-7.3S26.9,17.7,22.8,17.7z"/>
		</g>
	</g>
	<g id="XMLID_465_" class="st1">
		<g id="XMLID_466_">
			<path id="XMLID_52_" class="st2" d="M15,36.3H5.9c-1.8,0-3.3-1.5-3.3-3.3V11.5c0-0.6,0.4-1,1-1h29.8c0.6,0,1,0.4,1,1v6.7
				c0,0.6-0.4,1-1,1s-1-0.4-1-1v-5.7H4.6V33c0,0.7,0.6,1.3,1.3,1.3H15c0.6,0,1,0.4,1,1S15.5,36.3,15,36.3z"/>
		</g>
	</g>
	<g id="XMLID_462_" class="st1">
		<g id="XMLID_463_">
			<path id="XMLID_53_" class="st2" d="M33.5,12.6H3.6c-0.4,0-0.8-0.2-0.9-0.6c-0.2-0.4-0.1-0.8,0.2-1.1l6.4-7.1
				C9.4,3.6,9.7,3.5,10,3.5h17.1c0.3,0,0.6,0.1,0.7,0.3l6.4,7.1c0.3,0.3,0.3,0.7,0.2,1.1C34.2,12.3,33.9,12.6,33.5,12.6z M5.9,10.6
				h25.4l-4.6-5.1H10.4L5.9,10.6z"/>
		</g>
	</g>
	<g id="XMLID_459_" class="st1">
		<g id="XMLID_460_">
			<path id="XMLID_51_" class="st2" d="M7,20.4c-0.1,0-0.3,0-0.4-0.1C6.2,20.1,6,19.8,6,19.4V12c0-0.6,0.4-1,1-1s1,0.4,1,1v5.2
				L9.4,16c0.4-0.3,0.9-0.3,1.3,0l1.3,1.1V12c0-0.6,0.4-1,1-1s1,0.4,1,1v7.3c0,0.4-0.2,0.7-0.6,0.9c-0.4,0.2-0.8,0.1-1.1-0.1l-2.3-2
				l-2.4,2C7.5,20.3,7.2,20.4,7,20.4z"/>
		</g>
	</g>
	<g id="XMLID_521_" class="st1">
		<g id="XMLID_524_">
			<path id="XMLID_185_" class="st3" d="M32.7,36"/>
		</g>
		<g id="XMLID_523_">
			<path id="XMLID_50_" class="st2" d="M32.7,36.2c-0.2,0-0.5-0.1-0.7-0.3l-3.8-3.5c-0.4-0.4-0.4-1-0.1-1.4c0.4-0.4,1-0.4,1.4-0.1
				l3.8,3.5c0.4,0.4,0.4,1,0.1,1.4C33.2,36.1,33,36.2,32.7,36.2z"/>
		</g>
		<g id="XMLID_522_">
			<path id="XMLID_181_" class="st3" d="M28.1,31.7"/>
		</g>
	</g>
</g>
<g id="XMLID_555_" class="st0">
	<g id="XMLID_518_" class="st1">
		<path id="XMLID_65_" class="st2" d="M30,20H9c-0.6,0-1-0.4-1-1s0.4-1,1-1h21c0.6,0,1,0.4,1,1S30.6,20,30,20z"/>
	</g>
	<g id="XMLID_517_" class="st1">
		<path id="XMLID_64_" class="st2" d="M30,26H9c-0.6,0-1-0.4-1-1s0.4-1,1-1h21c0.6,0,1,0.4,1,1S30.6,26,30,26z"/>
	</g>
	<g id="XMLID_516_" class="st1">
		<path id="XMLID_63_" class="st2" d="M30,32H9c-0.6,0-1-0.4-1-1s0.4-1,1-1h21c0.6,0,1,0.4,1,1S30.6,32,30,32z"/>
	</g>
	<g id="XMLID_515_" class="st1">
		<path id="XMLID_62_" class="st2" d="M33.8,12.6c-0.2,0-0.5-0.1-0.6-0.3L29.8,7c-0.2-0.3-0.1-0.8,0.2-1c0.4-0.2,0.8-0.1,1,0.2
			l3.3,5.3c0.2,0.3,0.1,0.8-0.2,1C34,12.6,33.9,12.6,33.8,12.6z"/>
	</g>
	<g id="XMLID_500_" class="st1">
		<path id="XMLID_56_" class="st2" d="M32.9,37H5.8C4.2,37,3,35.7,3,34V7c0-1.7,1.2-3,2.8-3H28c0.6,0,1,0.4,1,1v9h6c0.6,0,1,0.4,1,1
			v19C36,35.7,34.6,37,32.9,37z M5.8,6C5.1,6,5,6.7,5,7v27c0,0.3,0.1,1,0.8,1H33c0.6,0,1.1-0.4,1.1-1V16h-6c-0.6,0-1-0.4-1-1V6H5.8z
			"/>
	</g>
</g>
<g id="XMLID_501_" class="st0">
	<g id="XMLID_503_" class="st1">
		<g id="XMLID_513_">
			<path id="XMLID_71_" class="st2" d="M22.4,22.6c-5,0-9.1-4.1-9.1-9.2s4.1-9.2,9.1-9.2s9.1,4.1,9.1,9.2S27.4,22.6,22.4,22.6z
				 M22.4,6.2c-3.9,0-7.1,3.2-7.1,7.2s3.2,7.2,7.1,7.2s7.1-3.2,7.1-7.2S26.3,6.2,22.4,6.2z"/>
		</g>
		<g id="XMLID_512_">
			<path id="XMLID_69_" class="st2" d="M10,35.6c-0.6,0-1-0.4-1-1c0-7.7,6.2-14.1,13.9-14.1c0.6,0,1,0.4,1,1s-0.4,1-1,1
				C16.4,22.6,11,28,11,34.6C11,35.2,10.6,35.6,10,35.6z"/>
		</g>
		<g id="XMLID_511_">
			<path id="XMLID_68_" class="st2" d="M35.8,35.6c-0.6,0-1-0.4-1-1c0-4.2-2.3-8.1-5.9-10.2c-0.5-0.3-0.6-0.9-0.4-1.4
				c0.3-0.5,0.9-0.6,1.4-0.4c4.2,2.5,6.9,7.1,6.9,12C36.8,35.2,36.3,35.6,35.8,35.6z"/>
		</g>
		<g id="XMLID_505_">
			<g id="XMLID_507_">
				<path id="XMLID_67_" class="st2" d="M13.5,22.4c-0.1,0-0.1,0-0.2,0c-4.3-0.8-7.4-4.6-7.4-9c0-5.1,4.1-9.2,9.1-9.2
					c0.6,0,1,0.4,1,1s-0.4,1-1,1c-3.9,0-7.1,3.2-7.1,7.2c0,3.5,2.4,6.4,5.8,7.1c0.5,0.1,0.9,0.6,0.8,1.2
					C14.4,22.1,14,22.4,13.5,22.4z"/>
			</g>
			<g id="XMLID_506_">
				<path id="XMLID_66_" class="st2" d="M2.6,35.6c-0.6,0-1-0.4-1-1c0-6.9,5.1-13.1,11.6-14.2c0.5-0.1,1.1,0.3,1.1,0.8
					c0.1,0.5-0.3,1.1-0.8,1.1c-5.6,0.9-9.9,6.3-9.9,12.2C3.6,35.2,3.1,35.6,2.6,35.6z"/>
			</g>
		</g>
	</g>
	<g id="XMLID_502_" class="st1">
		<path id="XMLID_148_" class="st3" d="M13.5,21.9"/>
	</g>
</g>
<g id="XMLID_99_" class="st0">
	<g id="XMLID_960_" class="st1">
		<polygon id="XMLID_1015_" class="st4" points="18.4,5 33.4,20 35.5,20 18.4,2.7 1.2,20 3.5,20 		"/>
		<polygon id="XMLID_1016_" class="st4" points="32,20.2 18.4,6.6 4.9,20.2 		"/>
	</g>
	<path id="XMLID_98_" class="st5" d="M7,19v12.8C7,32.9,7.6,34,8.7,34H16v-7h5v7h7c1.1,0,2-1.1,2-2.2V19H7z"/>
</g>
<g id="XMLID_100_" class="st0">
	<g id="XMLID_982_" class="st1">
		<path id="XMLID_983_" class="st4" d="M15,34.3H5.9c-1.3,0-2.3-1-2.3-2.3V11.5h29.8v20.8c0,1.1-0.9,2-2,2H15z"/>
	</g>
	<g id="XMLID_979_" class="st1">
		<path id="XMLID_980_" class="st4" d="M33.5,10.6H3.6L10,3.5h17.1L33.5,10.6z"/>
	</g>
	<g id="XMLID_977_" class="st1">
		<polyline id="XMLID_978_" class="st6" points="13,11 13,18.3 10,15.8 7,18.4 7,11 		"/>
	</g>
	<g id="XMLID_988_" class="st1">
		<path id="XMLID_989_" class="st6" d="M22.8,32.4c-4.6,0-8.3-3.7-8.3-8.3s3.7-8.3,8.3-8.3s8.3,3.7,8.3,8.3S27.4,32.4,22.8,32.4z"/>
	</g>
	<g id="XMLID_984_" class="st1">
		<g id="XMLID_987_">
			<path id="XMLID_381_" class="st6" d="M32.5,34.1"/>
		</g>
		<g id="XMLID_986_">
			<path id="XMLID_374_" class="st6" d="M32.4,34.3c-0.2,0-0.5-0.1-0.7-0.3L28,30.5c-0.4-0.4-0.4-1-0.1-1.4c0.4-0.4,1-0.4,1.4-0.1
				l3.8,3.5c0.4,0.4,0.4,1,0.1,1.4C33,34.2,32.7,34.3,32.4,34.3z"/>
		</g>
		<g id="XMLID_985_">
			<path id="XMLID_377_" class="st6" d="M27.9,29.8"/>
		</g>
	</g>
</g>
<g id="XMLID_101_" class="st0">
	<path id="XMLID_954_" class="st5" d="M28,15V5H5.8C4.7,5,4,5.9,4,7v27c0,1.1,0.7,2,1.8,2H33c1.1,0,2.1-0.9,2.1-2V15H28z"/>
	<g id="XMLID_958_" class="st1">
		<path id="XMLID_382_" class="st6" d="M29.7,20h-21c-0.6,0-1-0.4-1-1s0.4-1,1-1h21c0.6,0,1,0.4,1,1S30.3,20,29.7,20z"/>
	</g>
	<g id="XMLID_957_" class="st1">
		<path id="XMLID_379_" class="st6" d="M29.7,26h-21c-0.6,0-1-0.4-1-1s0.4-1,1-1h21c0.6,0,1,0.4,1,1S30.3,26,29.7,26z"/>
	</g>
	<g id="XMLID_956_" class="st1">
		<path id="XMLID_378_" class="st6" d="M29.7,32h-21c-0.6,0-1-0.4-1-1s0.4-1,1-1h21c0.6,0,1,0.4,1,1S30.3,32,29.7,32z"/>
	</g>
	<g id="XMLID_955_" class="st1">
		<path id="XMLID_383_" class="st4" d="M33.8,12.6c-0.2,0-0.5-0.1-0.6-0.3L29.8,7c-0.2-0.3-0.1-0.8,0.2-1c0.3-0.2,0.8-0.1,1,0.2
			l3.3,5.3c0.2,0.3,0.1,0.8-0.2,1C34,12.6,33.9,12.6,33.8,12.6z"/>
	</g>
</g>
<g id="XMLID_1237_" class="st0">
	<path id="XMLID_1238_" class="st7" d="M25.1,5.1c-3.7,0-6.5,2.9-6.7,6.6c0-0.3,0-0.6,0-1c0,0.3,0,0.6,0,1c-0.2-3.7-3-6.6-6.7-6.6
		c-3.8,0-7.6,3.1-7.6,6.9c0,1.8,0.2,3.8,1.6,5.6l3,3.2c0,0,4.1,4,7.1,7.5c1.3,1.5,1,0.8,2.5,3.8l0,0l0,0c1.5-3,1.3-2.3,2.5-3.8
		c3-3.5,7.1-7.4,7.1-7.4l3-3.2c1.5-1.8,1.6-3.8,1.6-5.6C32.7,8.2,28.9,5.1,25.1,5.1z"/>
</g>
<g id="XMLID_1214_" class="st0">
	<path id="XMLID_70_" class="st8" d="M18.1,35.6C8.4,35.6,0.5,27.7,0.5,18S8.4,0.4,18.1,0.4S35.7,8.3,35.7,18S27.8,35.6,18.1,35.6z
		 M18.1,2.2C9.4,2.2,2.3,9.3,2.3,18s7.1,15.8,15.8,15.8S33.9,26.7,33.9,18S26.8,2.2,18.1,2.2z"/>
</g>
<g id="XMLID_1247_" class="st0">
	<path class="st8" d="M18,35.7C8.3,35.7,0.4,27.7,0.4,18S8.3,0.3,18,0.3c9.7,0,17.7,7.9,17.7,17.7S27.8,35.7,18,35.7z M18,2.3
		C9.4,2.3,2.4,9.4,2.4,18s7,15.7,15.7,15.7s15.7-7,15.7-15.7S26.7,2.3,18,2.3z"/>
</g>
<g id="XMLID_1249_" class="st0">
	<g id="XMLID_1248_" class="st1">
		<path class="st9" d="M18,35.4c-9.7,0-17.5-7.9-17.5-17.5C0.5,8.2,8.4,0.3,18,0.3c9.7,0,17.5,7.9,17.5,17.5
			C35.6,27.6,27.7,35.4,18,35.4z M18,2.3c-8.6,0-15.5,7-15.5,15.5c0,8.6,7,15.5,15.5,15.5c8.6,0,15.5-7,15.5-15.5
			C33.6,9.3,26.6,2.3,18,2.3z"/>
	</g>
	<g id="XMLID_1223_" class="st1">
		<path class="st9" d="M17.3,27c-0.3,0-0.5-0.1-0.7-0.3L8,18.6c-0.4-0.4-0.4-1-0.1-1.4c0.4-0.4,1-0.4,1.4-0.1l7.9,7.3L28.7,8.9
			c0.3-0.4,1-0.5,1.4-0.2c0.4,0.3,0.5,1,0.2,1.4L18.1,26.6C18,26.8,17.7,26.9,17.3,27C17.4,27,17.4,27,17.3,27z"/>
	</g>
</g>
<g id="XMLID_1286_" class="st0">
	<path id="XMLID_1290_" class="st10" d="M21.8,26c0,0-3.8,3.1-5.2,3.9c-1.2,0.7-2.4,1.2-3.4,1.5c-1,0.3-1.9,0.5-2.7,0.6
		c-0.8,0.1-1.4,0.1-1.9,0.2c0,0-0.1,0-0.2,0H7.8c-1.3,0-2.6-0.2-3.7-0.5c-1.2-0.3-2.2-0.8-3.1-1.4C0.2,29.7-0.5,29-1,28
		c-0.5-0.9-0.8-2-0.8-3.2c0-1.1,0.3-2,0.9-2.9c0.6-0.9,1.3-1.6,2.1-2.2c0.9-0.6,1.9-1.1,2.9-1.4c1.1-0.3,2.1-0.4,3.2-0.4
		c1.1,0,2.1,0.2,3.1,0.4c1,0.2,1.9,0.5,2.8,0.7c0.9,0.3,1.8,0.6,2.6,0.9c0.8,0.3,1.6,0.7,2.3,1c0.3,0.1,0.6,0.2,0.9,0.4
		c0.3,0.1,0.6,0.2,1,0.4c0.7-0.9,1.3-1.8,1.8-2.6c0.5-0.9,0.9-1.6,1.2-2.3c0.3-0.7,0.6-1.3,0.7-1.8c0.2-0.5,0.3-0.8,0.3-1H8.4v-1.7
		h7.4v-4H5.5V6.4h10.3V3.2c0-0.2,0.1-0.4,0.4-0.5c0.2-0.1,0.5-0.2,0.8-0.3c0.4-0.1,0.8-0.1,1.2-0.1H21v4.2h10.6v1.7H21v4h8.4
		c0,0,0,0,0,0v0h0c-0.2,1.1-0.5,2.2-0.9,3.4c-0.3,1-0.8,2.2-1.5,3.5c-0.7,1.3-1.5,2.7-2.6,4.1c0,0,8.3,4,17,5.4
		c1.5-3.2,2.3-6.8,2.3-10.6C43.7,3.8,32.2-7.7,18-7.7C3.8-7.7-7.7,3.8-7.7,18S3.8,43.7,18,43.7c8.8,0,16.6-4.4,21.2-11.2
		C34.5,31.5,29.5,29.4,21.8,26L21.8,26z M21.8,26"/>
	<path id="XMLID_1287_" class="st10" d="M1.6,24.9c-0.1,4.4,4.9,4.7,5.7,4.8c2.5,0.1,4.6-0.9,6.2-1.8c1.6-1,4.2-3.4,4.3-3.5
		c0.1-0.1,0.2-0.2,0.3-0.3c-0.7-0.4-1.4-0.7-2.1-1.1c-0.7-0.3-4.1-2.2-7.1-2.5C3.1,19.9,1.6,23.5,1.6,24.9L1.6,24.9z M1.6,24.9"/>
</g>
<g id="XMLID_1226_">
	<path id="XMLID_1227_" class="st11" d="M18,43.1C2.3,43.1-4.3,37.5-4.3,26c0-9.5,7.5-19.5,16.5-22.7h11.5
		c9,3.1,16.5,13.1,16.5,22.7C40.3,37.5,33.7,43.1,18,43.1L18,43.1z M24.2,24.2L24.2,24.2c1,0,1.9-0.9,1.9-1.9c0-1-0.8-1.9-1.9-1.9v0
		h-3.8c0,0,0-0.1,0-0.1l4.5-4.6c0.7-0.8,0.4-1.5-0.4-2.2c-0.7-0.7-2-0.9-2.6-0.3L18,17.3l-4.2-4.2c-0.5-0.5-1.5-0.4-2.3,0.4
		c-0.7,0.7-0.9,1.8-0.4,2.3l4.2,4.2c-0.1,0.1-0.1,0.2-0.2,0.3h-3.5v0h0c-1,0-1.9,0.8-1.9,1.9c0,1,0.8,1.9,1.9,1.9c0,0,0,0,0,0v0h3.8
		V26h-3.8v0h0c-1,0-1.9,0.8-1.9,1.9c0,1,0.8,1.9,1.9,1.9c0,0,0,0,0,0v0h3.8v1.9h0c0,0.1,0,0.3,0,0.5c0,1.3,1.1,2.4,2.4,2.4
		c1.3,0,2.4-1.1,2.4-2.4c0-0.2,0-0.3,0-0.5h0v-1.9l3.8,0c1,0,1.9-0.9,1.9-1.9c0-1-0.8-1.9-1.9-1.9v0h-3.8v-1.9L24.2,24.2L24.2,24.2z
		 M27-4.3l-0.4,0.5c0,0,0,0,0,0l-3.4,4.2H11.8L8.5-3.7c0,0,0-0.1-0.1-0.1L8.1-4.3l0.1-0.1C8.1-4.5,8-4.6,8-4.7C8-5.3,8.4-5.8,9-6.1
		l0-0.1c0,0,4.7-0.9,8.5-0.9c4,0,8.5,0.9,8.5,0.9l0,0.1C26.6-5.8,27-5.3,27-4.7c0,0.1,0,0.2-0.1,0.3L27-4.3L27-4.3z M27-4.3"/>
</g>
</svg>
