<?xml version="1.0" encoding="utf-8"?>
<!-- Generator: Adobe Illustrator 19.0.0, SVG Export Plug-In . SVG Version: 6.00 Build 0)  -->
<svg version="1.1" id="图层_1" xmlns="http://www.w3.org/2000/svg" xmlns:xlink="http://www.w3.org/1999/xlink" x="0px" y="0px"
	 viewBox="0 0 28 28" style="enable-background:new 0 0 28 28;" xml:space="preserve">
<style type="text/css">
	.st0{fill:#BCBCBC;}
</style>
<g id="XMLID_2416_">
	<g id="XMLID_2213_">
		<g id="XMLID_2214_">
			<path id="XMLID_64_" class="st0" d="M20.5,25h-13C6.7,25,6,24.3,6,23.5v-20C6,2.7,6.7,2,7.5,2h13C21.3,2,22,2.7,22,3.5v20
				C22,24.3,21.3,25,20.5,25z M7.5,3C7.2,3,7,3.2,7,3.5v20C7,23.8,7.2,24,7.5,24h13c0.3,0,0.5-0.2,0.5-0.5v-20C21,3.2,20.8,3,20.5,3
				H7.5z"/>
		</g>
		<g id="XMLID_2312_">
			<rect id="XMLID_63_" x="6" y="6" class="st0" width="15" height="1"/>
		</g>
		<g id="XMLID_2380_">
			<rect id="XMLID_62_" x="6" y="19" class="st0" width="15" height="1"/>
		</g>
	</g>
	<g id="XMLID_2383_">
		<rect id="XMLID_61_" x="12" y="21" class="st0" width="3" height="1"/>
	</g>
</g>
</svg>
