<?xml version="1.0" encoding="utf-8"?>
<!-- Generator: Adobe Illustrator 19.0.0, SVG Export Plug-In . SVG Version: 6.00 Build 0)  -->
<svg version="1.1" id="图层_1" xmlns="http://www.w3.org/2000/svg" xmlns:xlink="http://www.w3.org/1999/xlink" x="0px" y="0px"
	 viewBox="0 0 16 16" style="enable-background:new 0 0 16 16;" xml:space="preserve">
<style type="text/css">
	.st0{display:none;fill:#F2BF1E;}
	.st1{display:none;fill:#525151;}
	.st2{fill:#E0E0E0;}
</style>
<path id="XMLID_2966_" class="st0" d="M-15-22v59.9L8,21.8l23,16.2V-22H-15z M20,19.4l-11.4-6l-11.5,6l2.2-12.7l-9.2-9L2.9-4.2
	l5.7-11.6l5.7,11.6l12.8,1.8l-9.2,9L20,19.4z"/>
<path id="XMLID_2961_" class="st1" d="M8-5.4C0.6-5.4-5.3,0.6-5.3,8c0,7.4,6,13.4,13.4,13.4s13.4-6,13.4-13.4
	C21.4,0.6,15.4-5.4,8-5.4z M16.3,15.1c0.3,0.3,0.3,0.9,0,1.2c-0.2,0.2-0.4,0.3-0.6,0.3s-0.4-0.1-0.6-0.3L8,9.2l-7,7
	c-0.2,0.2-0.4,0.3-0.6,0.3s-0.4-0.1-0.6-0.3c-0.3-0.3-0.3-0.9,0-1.2l7-7l-7-7c-0.3-0.3-0.3-0.9,0-1.2c0.3-0.3,0.9-0.3,1.2,0l7,7
	l7.1-7.1c0.3-0.3,0.9-0.3,1.2,0c0.3,0.3,0.3,0.9,0,1.2L9.2,8L16.3,15.1z"/>
<g id="XMLID_2912_">
	<g id="XMLID_2916_">
		<path id="XMLID_16_" class="st2" d="M8.2,14.1c-0.1,0-0.3-0.1-0.4-0.1L1.3,7.5C1.1,7.3,1.1,7,1.3,6.8s0.5-0.2,0.7,0l6.1,6.1
			l6.1-6.2c0.2-0.2,0.5-0.2,0.7,0c0.2,0.2,0.2,0.5,0,0.7L8.5,14C8.4,14.1,8.3,14.2,8.2,14.1z"/>
	</g>
	<g id="XMLID_2967_">
		<path id="XMLID_15_" class="st2" d="M8.2,10.1c-0.1,0-0.3-0.1-0.4-0.1L1.3,3.5C1.1,3.3,1.1,3,1.3,2.8s0.5-0.2,0.7,0l6.1,6.1
			l6.1-6.2c0.2-0.2,0.5-0.2,0.7,0c0.2,0.2,0.2,0.5,0,0.7L8.5,10C8.4,10.1,8.3,10.1,8.2,10.1z"/>
	</g>
</g>
</svg>
