<?xml version="1.0" encoding="utf-8"?>
<!-- Generator: Adobe Illustrator 19.0.0, SVG Export Plug-In . SVG Version: 6.00 Build 0)  -->
<svg version="1.1" id="图层_1" xmlns="http://www.w3.org/2000/svg" xmlns:xlink="http://www.w3.org/1999/xlink" x="0px" y="0px"
	 viewBox="0 0 34 34" style="enable-background:new 0 0 34 34;" xml:space="preserve">
<style type="text/css">
	.st0{fill:#62727B;}
</style>
<g id="XMLID_2588_">
	<g id="XMLID_2590_">
		<path id="XMLID_2593_" class="st0" d="M30.3,8h-27C3,8,2.8,7.8,2.8,7.5S3,7,3.3,7h27c0.3,0,0.5,0.2,0.5,0.5S30.5,8,30.3,8z"/>
	</g>
	<g id="XMLID_2591_">
		<path id="XMLID_2592_" class="st0" d="M29.8,26.5c0,0.1-0.1,0.3-0.2,0.4c-0.2,0.2-0.5,0.2-0.7,0L16.8,14.5L4.8,26.8
			c-0.2,0.2-0.5,0.2-0.7,0c-0.2-0.2-0.2-0.5,0-0.7l12.3-12.8c0.1-0.1,0.2-0.2,0.4-0.2s0.3,0.1,0.4,0.2l12.5,12.8
			C29.7,26.2,29.8,26.4,29.8,26.5z"/>
	</g>
</g>
</svg>
