<?xml version="1.0" encoding="utf-8"?>
<!-- Generator: Adobe Illustrator 19.0.0, SVG Export Plug-In . SVG Version: 6.00 Build 0)  -->
<svg version="1.1" id="图层_1" xmlns="http://www.w3.org/2000/svg" xmlns:xlink="http://www.w3.org/1999/xlink" x="0px" y="0px"
	 viewBox="0 0 24 24" style="enable-background:new 0 0 24 24;" xml:space="preserve">
<style type="text/css">
	.st0{fill:#62727B;}
</style>
<g id="XMLID_2597_">
	<g id="XMLID_2623_">
		<path id="XMLID_2662_" class="st0" d="M12.1,23.5c-6.1,0-11-4.9-11-11s4.9-11,11-11s11,4.9,11,11S18.1,23.5,12.1,23.5z M12.1,2.5
			c-5.5,0-10,4.5-10,10s4.5,10,10,10s10-4.5,10-10S17.6,2.5,12.1,2.5z"/>
	</g>
	<g id="XMLID_2614_">
		<g id="XMLID_2617_">
			<g id="XMLID_2624_">
				<path id="XMLID_2687_" class="st0" d="M12.3,19.2H12c-0.2,0-0.3-0.2-0.3-0.3V15H7.7c-0.2,0-0.3-0.2-0.3-0.3v-0.3
					c0-0.2,0.2-0.3,0.3-0.3h3.9v-0.3L6.8,7.6C6.8,7.6,6.8,7.5,6.8,7.4c0-0.1,0.1-0.2,0.1-0.2L7.2,7C7.3,6.9,7.5,6.9,7.6,7l4.5,5.8
					L16.7,7c0.1-0.1,0.1-0.1,0.2-0.1c0.1,0,0.2,0,0.3,0.1l0.2,0.2c0.1,0.1,0.1,0.3,0,0.4l-4.7,6.2V14h3.9c0.2,0,0.3,0.2,0.3,0.3v0.3
					c0,0.2-0.2,0.3-0.3,0.3h-3.9v3.9C12.6,19.1,12.5,19.2,12.3,19.2z"/>
			</g>
		</g>
	</g>
</g>
</svg>
