<?xml version="1.0" encoding="utf-8"?>
<!-- Generator: Adobe Illustrator 16.0.0, SVG Export Plug-In . SVG Version: 6.00 Build 0)  -->
<!DOCTYPE svg PUBLIC "-//W3C//DTD SVG 1.1//EN" "http://www.w3.org/Graphics/SVG/1.1/DTD/svg11.dtd">
<svg version="1.1" id="图层_1" xmlns="http://www.w3.org/2000/svg" xmlns:xlink="http://www.w3.org/1999/xlink" x="0px" y="0px"
	 width="31.943px" height="24.094px" viewBox="0 0 31.943 24.094" enable-background="new 0 0 31.943 24.094" xml:space="preserve">
<g>
	<path fill-rule="evenodd" clip-rule="evenodd" fill="#F4C500" d="M27.016,24.089H4.882C2.189,24.089,0,21.9,0,19.208V4.887
		c0-2.692,2.189-4.882,4.882-4.882h22.133c2.691,0,4.882,2.19,4.882,4.882v14.322C31.897,21.9,29.707,24.089,27.016,24.089
		L27.016,24.089z M4.882,1.958c-1.616,0-2.929,1.313-2.929,2.929v14.322c0,1.615,1.313,2.93,2.929,2.93h22.133
		c1.613,0,2.93-1.314,2.93-2.93V4.887c0-1.616-1.316-2.929-2.93-2.929H4.882L4.882,1.958z"/>
	<path fill-rule="evenodd" clip-rule="evenodd" fill="#F4C500" d="M28.229,10.083v0.388c0,0.215-0.213,0.388-0.475,0.388h-6.206
		c-0.263,0-0.479-0.174-0.479-0.388v-0.388c0-0.216,0.215-0.389,0.479-0.389h6.206C28.016,9.694,28.229,9.867,28.229,10.083
		L28.229,10.083z"/>
	<path fill-rule="evenodd" clip-rule="evenodd" fill="#F4C500" d="M28.229,7.042V7.43c0,0.214-0.347,0.389-0.778,0.389H17.331
		c-0.429,0-0.777-0.175-0.777-0.389V7.042c0-0.215,0.349-0.389,0.777-0.389H27.45C27.882,6.652,28.229,6.827,28.229,7.042
		L28.229,7.042z"/>
	<path fill-rule="evenodd" clip-rule="evenodd" fill="#F4C500" d="M15.693,17.49c0,0.705-0.566,1.279-1.264,1.279H7.152
		c-0.698,0-1.264-0.574-1.264-1.279v-4.916c0-0.706,0.566-1.278,1.264-1.278h7.278c0.698,0,1.264,0.573,1.264,1.278V17.49
		L15.693,17.49z M14.664,9.888H7.205c0.013-0.06,0.02-0.121,0.02-0.184V8.501c0-1.933,1.624-3.44,3.186-3.503
		c3.871-0.155,3.388,4.889,3.388,4.889s1.534,0.008,1.67,0.136c0.237,0.223,0.396-6.745-5.058-6.745
		c-1.236,0-2.74,0.561-3.602,1.578C5.982,5.837,5.527,7.131,5.527,8.501v1.203c0,0.192,0.062,0.367,0.166,0.509
		c-0.759,0.435-1.274,1.259-1.274,2.205v5.232c0,1.393,1.121,2.527,2.498,2.527h7.747c1.378,0,2.499-1.135,2.499-2.527v-5.232
		C17.162,11.023,16.042,9.888,14.664,9.888L14.664,9.888L14.664,9.888z"/>
	<path fill-rule="evenodd" clip-rule="evenodd" fill="#F4C500" d="M10.791,16.001c-0.568,0-1.027-0.467-1.027-1.041
		c0-0.576,0.459-1.041,1.027-1.041s1.027,0.465,1.027,1.041C11.819,15.535,11.358,16.001,10.791,16.001L10.791,16.001z
		 M10.791,12.88c-1.135,0-2.056,0.932-2.056,2.08c0,1.146,0.92,2.08,2.056,2.08s2.056-0.934,2.056-2.08
		C12.847,13.812,11.926,12.88,10.791,12.88L10.791,12.88z"/>
</g>
</svg>
